0
SECTION
2
ENTITIES
0
LINE
8
0
10
0.0
20
930.0
30
-2000.0
11
0.0
21
747.1694
31
-2612.286
0
LINE
8
0
10
0.0
20
747.1694
30
-2612.286
11
25.0
21
747.1694
31
-2612.286
0
LINE
8
0
10
25.0
20
747.1694
30
-2612.286
11
25.0
21
930.0
31
-2000.0
0
LINE
8
0
10
25.0
20
930.0
30
-2000.0
11
0.0
21
930.0
31
-2000.0
0
LINE
8
0
10
0.0
20
0.0
30
-2000.0
11
0.0
21
747.1694
31
-2612.286
0
LINE
8
0
10
0.0
20
747.1694
30
-2612.286
11
25.0
21
747.1694
31
-2612.286
0
LINE
8
0
10
25.0
20
747.1694
30
-2612.286
11
25.0
21
0.0
31
-2000.0
0
LINE
8
0
10
25.0
20
0.0
30
-2000.0
11
0.0
21
0.0
31
-2000.0
0
LINE
8
0
10
25.0
20
930.0
30
-2000.0
11
25.0
21
814.4758
31
-2588.7734
0
LINE
8
0
10
25.0
20
814.4758
30
-2588.7734
11
50.0
21
814.4758
31
-2588.7734
0
LINE
8
0
10
50.0
20
814.4758
30
-2588.7734
11
50.0
21
930.0
31
-2000.0
0
LINE
8
0
10
50.0
20
930.0
30
-2000.0
11
25.0
21
930.0
31
-2000.0
0
LINE
8
0
10
25.0
20
0.0
30
-2000.0
11
25.0
21
814.4758
31
-2588.7734
0
LINE
8
0
10
25.0
20
814.4758
30
-2588.7734
11
50.0
21
814.4758
31
-2588.7734
0
LINE
8
0
10
50.0
20
814.4758
30
-2588.7734
11
50.0
21
0.0
31
-2000.0
0
LINE
8
0
10
50.0
20
0.0
30
-2000.0
11
25.0
21
0.0
31
-2000.0
0
LINE
8
0
10
50.0
20
930.0
30
-2000.0
11
50.0
21
679.8629
31
-2630.171
0
LINE
8
0
10
50.0
20
679.8629
30
-2630.171
11
75.0
21
679.8629
31
-2630.171
0
LINE
8
0
10
75.0
20
679.8629
30
-2630.171
11
75.0
21
930.0
31
-2000.0
0
LINE
8
0
10
75.0
20
930.0
30
-2000.0
11
50.0
21
930.0
31
-2000.0
0
LINE
8
0
10
50.0
20
0.0
30
-2000.0
11
50.0
21
679.8629
31
-2630.171
0
LINE
8
0
10
50.0
20
679.8629
30
-2630.171
11
75.0
21
679.8629
31
-2630.171
0
LINE
8
0
10
75.0
20
679.8629
30
-2630.171
11
75.0
21
0.0
31
-2000.0
0
LINE
8
0
10
75.0
20
0.0
30
-2000.0
11
50.0
21
0.0
31
-2000.0
0
LINE
8
0
10
75.0
20
930.0
30
-2000.0
11
75.0
21
881.7823
31
-2558.9238
0
LINE
8
0
10
75.0
20
881.7823
30
-2558.9238
11
100.0
21
881.7823
31
-2558.9238
0
LINE
8
0
10
100.0
20
881.7823
30
-2558.9238
11
100.0
21
930.0
31
-2000.0
0
LINE
8
0
10
100.0
20
930.0
30
-2000.0
11
75.0
21
930.0
31
-2000.0
0
LINE
8
0
10
75.0
20
0.0
30
-2000.0
11
75.0
21
881.7823
31
-2558.9238
0
LINE
8
0
10
75.0
20
881.7823
30
-2558.9238
11
100.0
21
881.7823
31
-2558.9238
0
LINE
8
0
10
100.0
20
881.7823
30
-2558.9238
11
100.0
21
0.0
31
-2000.0
0
LINE
8
0
10
100.0
20
0.0
30
-2000.0
11
75.0
21
0.0
31
-2000.0
0
LINE
8
0
10
100.0
20
930.0
30
-2000.0
11
100.0
21
616.00806
31
-2642.366
0
LINE
8
0
10
100.0
20
616.00806
30
-2642.366
11
125.0
21
616.00806
31
-2642.366
0
LINE
8
0
10
125.0
20
616.00806
30
-2642.366
11
125.0
21
930.0
31
-2000.0
0
LINE
8
0
10
125.0
20
930.0
30
-2000.0
11
100.0
21
930.0
31
-2000.0
0
LINE
8
0
10
100.0
20
0.0
30
-2000.0
11
100.0
21
616.00806
31
-2642.366
0
LINE
8
0
10
100.0
20
616.00806
30
-2642.366
11
125.0
21
616.00806
31
-2642.366
0
LINE
8
0
10
125.0
20
616.00806
30
-2642.366
11
125.0
21
0.0
31
-2000.0
0
LINE
8
0
10
125.0
20
0.0
30
-2000.0
11
100.0
21
0.0
31
-2000.0
0
LINE
8
0
10
125.0
20
930.0
30
-2000.0
11
125.0
21
938.7339
31
-2527.9277
0
LINE
8
0
10
125.0
20
938.7339
30
-2527.9277
11
150.0
21
938.7339
31
-2527.9277
0
LINE
8
0
10
150.0
20
938.7339
30
-2527.9277
11
150.0
21
930.0
31
-2000.0
0
LINE
8
0
10
150.0
20
930.0
30
-2000.0
11
125.0
21
930.0
31
-2000.0
0
LINE
8
0
10
125.0
20
0.0
30
-2000.0
11
125.0
21
938.7339
31
-2527.9277
0
LINE
8
0
10
125.0
20
938.7339
30
-2527.9277
11
150.0
21
938.7339
31
-2527.9277
0
LINE
8
0
10
150.0
20
938.7339
30
-2527.9277
11
150.0
21
0.0
31
-2000.0
0
LINE
8
0
10
150.0
20
0.0
30
-2000.0
11
125.0
21
0.0
31
-2000.0
0
LINE
8
0
10
150.0
20
930.0
30
-2000.0
11
150.0
21
557.3306
31
-2649.7065
0
LINE
8
0
10
150.0
20
557.3306
30
-2649.7065
11
175.0
21
557.3306
31
-2649.7065
0
LINE
8
0
10
175.0
20
557.3306
30
-2649.7065
11
175.0
21
930.0
31
-2000.0
0
LINE
8
0
10
175.0
20
930.0
30
-2000.0
11
150.0
21
930.0
31
-2000.0
0
LINE
8
0
10
150.0
20
0.0
30
-2000.0
11
150.0
21
557.3306
31
-2649.7065
0
LINE
8
0
10
150.0
20
557.3306
30
-2649.7065
11
175.0
21
557.3306
31
-2649.7065
0
LINE
8
0
10
175.0
20
557.3306
30
-2649.7065
11
175.0
21
0.0
31
-2000.0
0
LINE
8
0
10
175.0
20
0.0
30
-2000.0
11
150.0
21
0.0
31
-2000.0
0
LINE
8
0
10
175.0
20
930.0
30
-2000.0
11
175.0
21
985.3306
31
-2497.9353
0
LINE
8
0
10
175.0
20
985.3306
30
-2497.9353
11
200.0
21
985.3306
31
-2497.9353
0
LINE
8
0
10
200.0
20
985.3306
30
-2497.9353
11
200.0
21
930.0
31
-2000.0
0
LINE
8
0
10
200.0
20
930.0
30
-2000.0
11
175.0
21
930.0
31
-2000.0
0
LINE
8
0
10
175.0
20
0.0
30
-2000.0
11
175.0
21
985.3306
31
-2497.9353
0
LINE
8
0
10
175.0
20
985.3306
30
-2497.9353
11
200.0
21
985.3306
31
-2497.9353
0
LINE
8
0
10
200.0
20
985.3306
30
-2497.9353
11
200.0
21
0.0
31
-2000.0
0
LINE
8
0
10
200.0
20
0.0
30
-2000.0
11
175.0
21
0.0
31
-2000.0
0
LINE
8
0
10
200.0
20
930.0
30
-2000.0
11
200.0
21
505.55646
31
-2653.214
0
LINE
8
0
10
200.0
20
505.55646
30
-2653.214
11
225.0
21
505.55646
31
-2653.214
0
LINE
8
0
10
225.0
20
505.55646
30
-2653.214
11
225.0
21
930.0
31
-2000.0
0
LINE
8
0
10
225.0
20
930.0
30
-2000.0
11
200.0
21
930.0
31
-2000.0
0
LINE
8
0
10
200.0
20
0.0
30
-2000.0
11
200.0
21
505.55646
31
-2653.214
0
LINE
8
0
10
200.0
20
505.55646
30
-2653.214
11
225.0
21
505.55646
31
-2653.214
0
LINE
8
0
10
225.0
20
505.55646
30
-2653.214
11
225.0
21
0.0
31
-2000.0
0
LINE
8
0
10
225.0
20
0.0
30
-2000.0
11
200.0
21
0.0
31
-2000.0
0
LINE
8
0
10
225.0
20
930.0
30
-2000.0
11
225.0
21
1023.2984
31
-2469.826
0
LINE
8
0
10
225.0
20
1023.2984
30
-2469.826
11
250.0
21
1023.2984
31
-2469.826
0
LINE
8
0
10
250.0
20
1023.2984
30
-2469.826
11
250.0
21
930.0
31
-2000.0
0
LINE
8
0
10
250.0
20
930.0
30
-2000.0
11
225.0
21
930.0
31
-2000.0
0
LINE
8
0
10
225.0
20
0.0
30
-2000.0
11
225.0
21
1023.2984
31
-2469.826
0
LINE
8
0
10
225.0
20
1023.2984
30
-2469.826
11
250.0
21
1023.2984
31
-2469.826
0
LINE
8
0
10
250.0
20
1023.2984
30
-2469.826
11
250.0
21
0.0
31
-2000.0
0
LINE
8
0
10
250.0
20
0.0
30
-2000.0
11
225.0
21
0.0
31
-2000.0
0
LINE
8
0
10
250.0
20
930.0
30
-2000.0
11
250.0
21
460.6855
31
-2654.0405
0
LINE
8
0
10
250.0
20
460.6855
30
-2654.0405
11
275.0
21
460.6855
31
-2654.0405
0
LINE
8
0
10
275.0
20
460.6855
30
-2654.0405
11
275.0
21
930.0
31
-2000.0
0
LINE
8
0
10
275.0
20
930.0
30
-2000.0
11
250.0
21
930.0
31
-2000.0
0
LINE
8
0
10
250.0
20
0.0
30
-2000.0
11
250.0
21
460.6855
31
-2654.0405
0
LINE
8
0
10
250.0
20
460.6855
30
-2654.0405
11
275.0
21
460.6855
31
-2654.0405
0
LINE
8
0
10
275.0
20
460.6855
30
-2654.0405
11
275.0
21
0.0
31
-2000.0
0
LINE
8
0
10
275.0
20
0.0
30
-2000.0
11
250.0
21
0.0
31
-2000.0
0
LINE
8
0
10
275.0
20
930.0
30
-2000.0
11
275.0
21
1052.6371
31
-2445.4258
0
LINE
8
0
10
275.0
20
1052.6371
30
-2445.4258
11
300.0
21
1052.6371
31
-2445.4258
0
LINE
8
0
10
300.0
20
1052.6371
30
-2445.4258
11
300.0
21
930.0
31
-2000.0
0
LINE
8
0
10
300.0
20
930.0
30
-2000.0
11
275.0
21
930.0
31
-2000.0
0
LINE
8
0
10
275.0
20
0.0
30
-2000.0
11
275.0
21
1052.6371
31
-2445.4258
0
LINE
8
0
10
275.0
20
1052.6371
30
-2445.4258
11
300.0
21
1052.6371
31
-2445.4258
0
LINE
8
0
10
300.0
20
1052.6371
30
-2445.4258
11
300.0
21
0.0
31
-2000.0
0
LINE
8
0
10
300.0
20
0.0
30
-2000.0
11
275.0
21
0.0
31
-2000.0
0
LINE
8
0
10
300.0
20
930.0
30
-2000.0
11
300.0
21
424.44354
31
-2653.214
0
LINE
8
0
10
300.0
20
424.44354
30
-2653.214
11
325.0
21
424.44354
31
-2653.214
0
LINE
8
0
10
325.0
20
424.44354
30
-2653.214
11
325.0
21
930.0
31
-2000.0
0
LINE
8
0
10
325.0
20
930.0
30
-2000.0
11
300.0
21
930.0
31
-2000.0
0
LINE
8
0
10
300.0
20
0.0
30
-2000.0
11
300.0
21
424.44354
31
-2653.214
0
LINE
8
0
10
300.0
20
424.44354
30
-2653.214
11
325.0
21
424.44354
31
-2653.214
0
LINE
8
0
10
325.0
20
424.44354
30
-2653.214
11
325.0
21
0.0
31
-2000.0
0
LINE
8
0
10
325.0
20
0.0
30
-2000.0
11
300.0
21
0.0
31
-2000.0
0
LINE
8
0
10
325.0
20
930.0
30
-2000.0
11
325.0
21
1075.0726
31
-2424.9177
0
LINE
8
0
10
325.0
20
1075.0726
30
-2424.9177
11
350.0
21
1075.0726
31
-2424.9177
0
LINE
8
0
10
350.0
20
1075.0726
30
-2424.9177
11
350.0
21
930.0
31
-2000.0
0
LINE
8
0
10
350.0
20
930.0
30
-2000.0
11
325.0
21
930.0
31
-2000.0
0
LINE
8
0
10
325.0
20
0.0
30
-2000.0
11
325.0
21
1075.0726
31
-2424.9177
0
LINE
8
0
10
325.0
20
1075.0726
30
-2424.9177
11
350.0
21
1075.0726
31
-2424.9177
0
LINE
8
0
10
350.0
20
1075.0726
30
-2424.9177
11
350.0
21
0.0
31
-2000.0
0
LINE
8
0
10
350.0
20
0.0
30
-2000.0
11
325.0
21
0.0
31
-2000.0
0
LINE
8
0
10
350.0
20
930.0
30
-2000.0
11
350.0
21
396.83066
31
-2651.6858
0
LINE
8
0
10
350.0
20
396.83066
30
-2651.6858
11
375.0
21
396.83066
31
-2651.6858
0
LINE
8
0
10
375.0
20
396.83066
30
-2651.6858
11
375.0
21
930.0
31
-2000.0
0
LINE
8
0
10
375.0
20
930.0
30
-2000.0
11
350.0
21
930.0
31
-2000.0
0
LINE
8
0
10
350.0
20
0.0
30
-2000.0
11
350.0
21
396.83066
31
-2651.6858
0
LINE
8
0
10
350.0
20
396.83066
30
-2651.6858
11
375.0
21
396.83066
31
-2651.6858
0
LINE
8
0
10
375.0
20
396.83066
30
-2651.6858
11
375.0
21
0.0
31
-2000.0
0
LINE
8
0
10
375.0
20
0.0
30
-2000.0
11
350.0
21
0.0
31
-2000.0
0
LINE
8
0
10
375.0
20
930.0
30
-2000.0
11
375.0
21
1090.6049
31
-2409.6414
0
LINE
8
0
10
375.0
20
1090.6049
30
-2409.6414
11
400.0
21
1090.6049
31
-2409.6414
0
LINE
8
0
10
400.0
20
1090.6049
30
-2409.6414
11
400.0
21
930.0
31
-2000.0
0
LINE
8
0
10
400.0
20
930.0
30
-2000.0
11
375.0
21
930.0
31
-2000.0
0
LINE
8
0
10
375.0
20
0.0
30
-2000.0
11
375.0
21
1090.6049
31
-2409.6414
0
LINE
8
0
10
375.0
20
1090.6049
30
-2409.6414
11
400.0
21
1090.6049
31
-2409.6414
0
LINE
8
0
10
400.0
20
1090.6049
30
-2409.6414
11
400.0
21
0.0
31
-2000.0
0
LINE
8
0
10
400.0
20
0.0
30
-2000.0
11
375.0
21
0.0
31
-2000.0
0
LINE
8
0
10
400.0
20
930.0
30
-2000.0
11
400.0
21
379.57257
31
-2650.3335
0
LINE
8
0
10
400.0
20
379.57257
30
-2650.3335
11
425.0
21
379.57257
31
-2650.3335
0
LINE
8
0
10
425.0
20
379.57257
30
-2650.3335
11
425.0
21
930.0
31
-2000.0
0
LINE
8
0
10
425.0
20
930.0
30
-2000.0
11
400.0
21
930.0
31
-2000.0
0
LINE
8
0
10
400.0
20
0.0
30
-2000.0
11
400.0
21
379.57257
31
-2650.3335
0
LINE
8
0
10
400.0
20
379.57257
30
-2650.3335
11
425.0
21
379.57257
31
-2650.3335
0
LINE
8
0
10
425.0
20
379.57257
30
-2650.3335
11
425.0
21
0.0
31
-2000.0
0
LINE
8
0
10
425.0
20
0.0
30
-2000.0
11
400.0
21
0.0
31
-2000.0
0
LINE
8
0
10
425.0
20
930.0
30
-2000.0
11
425.0
21
1099.2339
31
-2400.7305
0
LINE
8
0
10
425.0
20
1099.2339
30
-2400.7305
11
450.0
21
1099.2339
31
-2400.7305
0
LINE
8
0
10
450.0
20
1099.2339
30
-2400.7305
11
450.0
21
930.0
31
-2000.0
0
LINE
8
0
10
450.0
20
930.0
30
-2000.0
11
425.0
21
930.0
31
-2000.0
0
LINE
8
0
10
425.0
20
0.0
30
-2000.0
11
425.0
21
1099.2339
31
-2400.7305
0
LINE
8
0
10
425.0
20
1099.2339
30
-2400.7305
11
450.0
21
1099.2339
31
-2400.7305
0
LINE
8
0
10
450.0
20
1099.2339
30
-2400.7305
11
450.0
21
0.0
31
-2000.0
0
LINE
8
0
10
450.0
20
0.0
30
-2000.0
11
425.0
21
0.0
31
-2000.0
0
LINE
8
0
10
450.0
20
930.0
30
-2000.0
11
450.0
21
370.94354
31
-2649.542
0
LINE
8
0
10
450.0
20
370.94354
30
-2649.542
11
475.0
21
370.94354
31
-2649.542
0
LINE
8
0
10
475.0
20
370.94354
30
-2649.542
11
475.0
21
930.0
31
-2000.0
0
LINE
8
0
10
475.0
20
930.0
30
-2000.0
11
450.0
21
930.0
31
-2000.0
0
LINE
8
0
10
450.0
20
0.0
30
-2000.0
11
450.0
21
370.94354
31
-2649.542
0
LINE
8
0
10
450.0
20
370.94354
30
-2649.542
11
475.0
21
370.94354
31
-2649.542
0
LINE
8
0
10
475.0
20
370.94354
30
-2649.542
11
475.0
21
0.0
31
-2000.0
0
LINE
8
0
10
475.0
20
0.0
30
-2000.0
11
450.0
21
0.0
31
-2000.0
0
LINE
8
0
10
475.0
20
930.0
30
-2000.0
11
475.0
21
1099.2339
31
-2400.7305
0
LINE
8
0
10
475.0
20
1099.2339
30
-2400.7305
11
500.0
21
1099.2339
31
-2400.7305
0
LINE
8
0
10
500.0
20
1099.2339
30
-2400.7305
11
500.0
21
930.0
31
-2000.0
0
LINE
8
0
10
500.0
20
930.0
30
-2000.0
11
475.0
21
930.0
31
-2000.0
0
LINE
8
0
10
475.0
20
0.0
30
-2000.0
11
475.0
21
1099.2339
31
-2400.7305
0
LINE
8
0
10
475.0
20
1099.2339
30
-2400.7305
11
500.0
21
1099.2339
31
-2400.7305
0
LINE
8
0
10
500.0
20
1099.2339
30
-2400.7305
11
500.0
21
0.0
31
-2000.0
0
LINE
8
0
10
500.0
20
0.0
30
-2000.0
11
475.0
21
0.0
31
-2000.0
0
LINE
8
0
10
500.0
20
930.0
30
-2000.0
11
500.0
21
379.57257
31
-2650.3335
0
LINE
8
0
10
500.0
20
379.57257
30
-2650.3335
11
525.0
21
379.57257
31
-2650.3335
0
LINE
8
0
10
525.0
20
379.57257
30
-2650.3335
11
525.0
21
930.0
31
-2000.0
0
LINE
8
0
10
525.0
20
930.0
30
-2000.0
11
500.0
21
930.0
31
-2000.0
0
LINE
8
0
10
500.0
20
0.0
30
-2000.0
11
500.0
21
379.57257
31
-2650.3335
0
LINE
8
0
10
500.0
20
379.57257
30
-2650.3335
11
525.0
21
379.57257
31
-2650.3335
0
LINE
8
0
10
525.0
20
379.57257
30
-2650.3335
11
525.0
21
0.0
31
-2000.0
0
LINE
8
0
10
525.0
20
0.0
30
-2000.0
11
500.0
21
0.0
31
-2000.0
0
LINE
8
0
10
525.0
20
930.0
30
-2000.0
11
525.0
21
1090.6049
31
-2409.6414
0
LINE
8
0
10
525.0
20
1090.6049
30
-2409.6414
11
550.0
21
1090.6049
31
-2409.6414
0
LINE
8
0
10
550.0
20
1090.6049
30
-2409.6414
11
550.0
21
930.0
31
-2000.0
0
LINE
8
0
10
550.0
20
930.0
30
-2000.0
11
525.0
21
930.0
31
-2000.0
0
LINE
8
0
10
525.0
20
0.0
30
-2000.0
11
525.0
21
1090.6049
31
-2409.6414
0
LINE
8
0
10
525.0
20
1090.6049
30
-2409.6414
11
550.0
21
1090.6049
31
-2409.6414
0
LINE
8
0
10
550.0
20
1090.6049
30
-2409.6414
11
550.0
21
0.0
31
-2000.0
0
LINE
8
0
10
550.0
20
0.0
30
-2000.0
11
525.0
21
0.0
31
-2000.0
0
LINE
8
0
10
550.0
20
930.0
30
-2000.0
11
550.0
21
396.83066
31
-2651.6858
0
LINE
8
0
10
550.0
20
396.83066
30
-2651.6858
11
575.0
21
396.83066
31
-2651.6858
0
LINE
8
0
10
575.0
20
396.83066
30
-2651.6858
11
575.0
21
930.0
31
-2000.0
0
LINE
8
0
10
575.0
20
930.0
30
-2000.0
11
550.0
21
930.0
31
-2000.0
0
LINE
8
0
10
550.0
20
0.0
30
-2000.0
11
550.0
21
396.83066
31
-2651.6858
0
LINE
8
0
10
550.0
20
396.83066
30
-2651.6858
11
575.0
21
396.83066
31
-2651.6858
0
LINE
8
0
10
575.0
20
396.83066
30
-2651.6858
11
575.0
21
0.0
31
-2000.0
0
LINE
8
0
10
575.0
20
0.0
30
-2000.0
11
550.0
21
0.0
31
-2000.0
0
LINE
8
0
10
575.0
20
930.0
30
-2000.0
11
575.0
21
1075.0726
31
-2424.9177
0
LINE
8
0
10
575.0
20
1075.0726
30
-2424.9177
11
600.0
21
1075.0726
31
-2424.9177
0
LINE
8
0
10
600.0
20
1075.0726
30
-2424.9177
11
600.0
21
930.0
31
-2000.0
0
LINE
8
0
10
600.0
20
930.0
30
-2000.0
11
575.0
21
930.0
31
-2000.0
0
LINE
8
0
10
575.0
20
0.0
30
-2000.0
11
575.0
21
1075.0726
31
-2424.9177
0
LINE
8
0
10
575.0
20
1075.0726
30
-2424.9177
11
600.0
21
1075.0726
31
-2424.9177
0
LINE
8
0
10
600.0
20
1075.0726
30
-2424.9177
11
600.0
21
0.0
31
-2000.0
0
LINE
8
0
10
600.0
20
0.0
30
-2000.0
11
575.0
21
0.0
31
-2000.0
0
LINE
8
0
10
600.0
20
930.0
30
-2000.0
11
600.0
21
424.44354
31
-2653.214
0
LINE
8
0
10
600.0
20
424.44354
30
-2653.214
11
625.0
21
424.44354
31
-2653.214
0
LINE
8
0
10
625.0
20
424.44354
30
-2653.214
11
625.0
21
930.0
31
-2000.0
0
LINE
8
0
10
625.0
20
930.0
30
-2000.0
11
600.0
21
930.0
31
-2000.0
0
LINE
8
0
10
600.0
20
0.0
30
-2000.0
11
600.0
21
424.44354
31
-2653.214
0
LINE
8
0
10
600.0
20
424.44354
30
-2653.214
11
625.0
21
424.44354
31
-2653.214
0
LINE
8
0
10
625.0
20
424.44354
30
-2653.214
11
625.0
21
0.0
31
-2000.0
0
LINE
8
0
10
625.0
20
0.0
30
-2000.0
11
600.0
21
0.0
31
-2000.0
0
LINE
8
0
10
625.0
20
930.0
30
-2000.0
11
625.0
21
1052.6371
31
-2445.4258
0
LINE
8
0
10
625.0
20
1052.6371
30
-2445.4258
11
650.0
21
1052.6371
31
-2445.4258
0
LINE
8
0
10
650.0
20
1052.6371
30
-2445.4258
11
650.0
21
930.0
31
-2000.0
0
LINE
8
0
10
650.0
20
930.0
30
-2000.0
11
625.0
21
930.0
31
-2000.0
0
LINE
8
0
10
625.0
20
0.0
30
-2000.0
11
625.0
21
1052.6371
31
-2445.4258
0
LINE
8
0
10
625.0
20
1052.6371
30
-2445.4258
11
650.0
21
1052.6371
31
-2445.4258
0
LINE
8
0
10
650.0
20
1052.6371
30
-2445.4258
11
650.0
21
0.0
31
-2000.0
0
LINE
8
0
10
650.0
20
0.0
30
-2000.0
11
625.0
21
0.0
31
-2000.0
0
LINE
8
0
10
650.0
20
930.0
30
-2000.0
11
650.0
21
460.6855
31
-2654.0405
0
LINE
8
0
10
650.0
20
460.6855
30
-2654.0405
11
675.0
21
460.6855
31
-2654.0405
0
LINE
8
0
10
675.0
20
460.6855
30
-2654.0405
11
675.0
21
930.0
31
-2000.0
0
LINE
8
0
10
675.0
20
930.0
30
-2000.0
11
650.0
21
930.0
31
-2000.0
0
LINE
8
0
10
650.0
20
0.0
30
-2000.0
11
650.0
21
460.6855
31
-2654.0405
0
LINE
8
0
10
650.0
20
460.6855
30
-2654.0405
11
675.0
21
460.6855
31
-2654.0405
0
LINE
8
0
10
675.0
20
460.6855
30
-2654.0405
11
675.0
21
0.0
31
-2000.0
0
LINE
8
0
10
675.0
20
0.0
30
-2000.0
11
650.0
21
0.0
31
-2000.0
0
LINE
8
0
10
675.0
20
930.0
30
-2000.0
11
675.0
21
1023.2984
31
-2469.826
0
LINE
8
0
10
675.0
20
1023.2984
30
-2469.826
11
700.0
21
1023.2984
31
-2469.826
0
LINE
8
0
10
700.0
20
1023.2984
30
-2469.826
11
700.0
21
930.0
31
-2000.0
0
LINE
8
0
10
700.0
20
930.0
30
-2000.0
11
675.0
21
930.0
31
-2000.0
0
LINE
8
0
10
675.0
20
0.0
30
-2000.0
11
675.0
21
1023.2984
31
-2469.826
0
LINE
8
0
10
675.0
20
1023.2984
30
-2469.826
11
700.0
21
1023.2984
31
-2469.826
0
LINE
8
0
10
700.0
20
1023.2984
30
-2469.826
11
700.0
21
0.0
31
-2000.0
0
LINE
8
0
10
700.0
20
0.0
30
-2000.0
11
675.0
21
0.0
31
-2000.0
0
LINE
8
0
10
700.0
20
930.0
30
-2000.0
11
700.0
21
505.55646
31
-2653.214
0
LINE
8
0
10
700.0
20
505.55646
30
-2653.214
11
725.0
21
505.55646
31
-2653.214
0
LINE
8
0
10
725.0
20
505.55646
30
-2653.214
11
725.0
21
930.0
31
-2000.0
0
LINE
8
0
10
725.0
20
930.0
30
-2000.0
11
700.0
21
930.0
31
-2000.0
0
LINE
8
0
10
700.0
20
0.0
30
-2000.0
11
700.0
21
505.55646
31
-2653.214
0
LINE
8
0
10
700.0
20
505.55646
30
-2653.214
11
725.0
21
505.55646
31
-2653.214
0
LINE
8
0
10
725.0
20
505.55646
30
-2653.214
11
725.0
21
0.0
31
-2000.0
0
LINE
8
0
10
725.0
20
0.0
30
-2000.0
11
700.0
21
0.0
31
-2000.0
0
LINE
8
0
10
725.0
20
930.0
30
-2000.0
11
725.0
21
985.3306
31
-2497.9353
0
LINE
8
0
10
725.0
20
985.3306
30
-2497.9353
11
750.0
21
985.3306
31
-2497.9353
0
LINE
8
0
10
750.0
20
985.3306
30
-2497.9353
11
750.0
21
930.0
31
-2000.0
0
LINE
8
0
10
750.0
20
930.0
30
-2000.0
11
725.0
21
930.0
31
-2000.0
0
LINE
8
0
10
725.0
20
0.0
30
-2000.0
11
725.0
21
985.3306
31
-2497.9353
0
LINE
8
0
10
725.0
20
985.3306
30
-2497.9353
11
750.0
21
985.3306
31
-2497.9353
0
LINE
8
0
10
750.0
20
985.3306
30
-2497.9353
11
750.0
21
0.0
31
-2000.0
0
LINE
8
0
10
750.0
20
0.0
30
-2000.0
11
725.0
21
0.0
31
-2000.0
0
LINE
8
0
10
750.0
20
930.0
30
-2000.0
11
750.0
21
557.3306
31
-2649.7065
0
LINE
8
0
10
750.0
20
557.3306
30
-2649.7065
11
775.0
21
557.3306
31
-2649.7065
0
LINE
8
0
10
775.0
20
557.3306
30
-2649.7065
11
775.0
21
930.0
31
-2000.0
0
LINE
8
0
10
775.0
20
930.0
30
-2000.0
11
750.0
21
930.0
31
-2000.0
0
LINE
8
0
10
750.0
20
0.0
30
-2000.0
11
750.0
21
557.3306
31
-2649.7065
0
LINE
8
0
10
750.0
20
557.3306
30
-2649.7065
11
775.0
21
557.3306
31
-2649.7065
0
LINE
8
0
10
775.0
20
557.3306
30
-2649.7065
11
775.0
21
0.0
31
-2000.0
0
LINE
8
0
10
775.0
20
0.0
30
-2000.0
11
750.0
21
0.0
31
-2000.0
0
LINE
8
0
10
775.0
20
930.0
30
-2000.0
11
775.0
21
938.7339
31
-2527.9277
0
LINE
8
0
10
775.0
20
938.7339
30
-2527.9277
11
800.0
21
938.7339
31
-2527.9277
0
LINE
8
0
10
800.0
20
938.7339
30
-2527.9277
11
800.0
21
930.0
31
-2000.0
0
LINE
8
0
10
800.0
20
930.0
30
-2000.0
11
775.0
21
930.0
31
-2000.0
0
LINE
8
0
10
775.0
20
0.0
30
-2000.0
11
775.0
21
938.7339
31
-2527.9277
0
LINE
8
0
10
775.0
20
938.7339
30
-2527.9277
11
800.0
21
938.7339
31
-2527.9277
0
LINE
8
0
10
800.0
20
938.7339
30
-2527.9277
11
800.0
21
0.0
31
-2000.0
0
LINE
8
0
10
800.0
20
0.0
30
-2000.0
11
775.0
21
0.0
31
-2000.0
0
LINE
8
0
10
800.0
20
930.0
30
-2000.0
11
800.0
21
616.00806
31
-2642.366
0
LINE
8
0
10
800.0
20
616.00806
30
-2642.366
11
825.0
21
616.00806
31
-2642.366
0
LINE
8
0
10
825.0
20
616.00806
30
-2642.366
11
825.0
21
930.0
31
-2000.0
0
LINE
8
0
10
825.0
20
930.0
30
-2000.0
11
800.0
21
930.0
31
-2000.0
0
LINE
8
0
10
800.0
20
0.0
30
-2000.0
11
800.0
21
616.00806
31
-2642.366
0
LINE
8
0
10
800.0
20
616.00806
30
-2642.366
11
825.0
21
616.00806
31
-2642.366
0
LINE
8
0
10
825.0
20
616.00806
30
-2642.366
11
825.0
21
0.0
31
-2000.0
0
LINE
8
0
10
825.0
20
0.0
30
-2000.0
11
800.0
21
0.0
31
-2000.0
0
LINE
8
0
10
825.0
20
930.0
30
-2000.0
11
825.0
21
881.7823
31
-2558.9238
0
LINE
8
0
10
825.0
20
881.7823
30
-2558.9238
11
850.0
21
881.7823
31
-2558.9238
0
LINE
8
0
10
850.0
20
881.7823
30
-2558.9238
11
850.0
21
930.0
31
-2000.0
0
LINE
8
0
10
850.0
20
930.0
30
-2000.0
11
825.0
21
930.0
31
-2000.0
0
LINE
8
0
10
825.0
20
0.0
30
-2000.0
11
825.0
21
881.7823
31
-2558.9238
0
LINE
8
0
10
825.0
20
881.7823
30
-2558.9238
11
850.0
21
881.7823
31
-2558.9238
0
LINE
8
0
10
850.0
20
881.7823
30
-2558.9238
11
850.0
21
0.0
31
-2000.0
0
LINE
8
0
10
850.0
20
0.0
30
-2000.0
11
825.0
21
0.0
31
-2000.0
0
LINE
8
0
10
850.0
20
930.0
30
-2000.0
11
850.0
21
679.8629
31
-2630.171
0
LINE
8
0
10
850.0
20
679.8629
30
-2630.171
11
875.0
21
679.8629
31
-2630.171
0
LINE
8
0
10
875.0
20
679.8629
30
-2630.171
11
875.0
21
930.0
31
-2000.0
0
LINE
8
0
10
875.0
20
930.0
30
-2000.0
11
850.0
21
930.0
31
-2000.0
0
LINE
8
0
10
850.0
20
0.0
30
-2000.0
11
850.0
21
679.8629
31
-2630.171
0
LINE
8
0
10
850.0
20
679.8629
30
-2630.171
11
875.0
21
679.8629
31
-2630.171
0
LINE
8
0
10
875.0
20
679.8629
30
-2630.171
11
875.0
21
0.0
31
-2000.0
0
LINE
8
0
10
875.0
20
0.0
30
-2000.0
11
850.0
21
0.0
31
-2000.0
0
LINE
8
0
10
875.0
20
930.0
30
-2000.0
11
875.0
21
814.4758
31
-2588.7734
0
LINE
8
0
10
875.0
20
814.4758
30
-2588.7734
11
900.0
21
814.4758
31
-2588.7734
0
LINE
8
0
10
900.0
20
814.4758
30
-2588.7734
11
900.0
21
930.0
31
-2000.0
0
LINE
8
0
10
900.0
20
930.0
30
-2000.0
11
875.0
21
930.0
31
-2000.0
0
LINE
8
0
10
875.0
20
0.0
30
-2000.0
11
875.0
21
814.4758
31
-2588.7734
0
LINE
8
0
10
875.0
20
814.4758
30
-2588.7734
11
900.0
21
814.4758
31
-2588.7734
0
LINE
8
0
10
900.0
20
814.4758
30
-2588.7734
11
900.0
21
0.0
31
-2000.0
0
LINE
8
0
10
900.0
20
0.0
30
-2000.0
11
875.0
21
0.0
31
-2000.0
0
LINE
8
0
10
900.0
20
930.0
30
-2000.0
11
900.0
21
747.1694
31
-2612.286
0
LINE
8
0
10
900.0
20
747.1694
30
-2612.286
11
925.0
21
747.1694
31
-2612.286
0
LINE
8
0
10
925.0
20
747.1694
30
-2612.286
11
925.0
21
930.0
31
-2000.0
0
LINE
8
0
10
925.0
20
930.0
30
-2000.0
11
900.0
21
930.0
31
-2000.0
0
LINE
8
0
10
900.0
20
0.0
30
-2000.0
11
900.0
21
747.1694
31
-2612.286
0
LINE
8
0
10
900.0
20
747.1694
30
-2612.286
11
925.0
21
747.1694
31
-2612.286
0
LINE
8
0
10
925.0
20
747.1694
30
-2612.286
11
925.0
21
0.0
31
-2000.0
0
LINE
8
0
10
925.0
20
0.0
30
-2000.0
11
900.0
21
0.0
31
-2000.0
0
ENDSEC
0
EOF
