0
SECTION
2
ENTITIES
0
LINE
8
0
10
0.0
20
0.0
30
-2000.0
11
673.0
21
0.0
31
-2000.0
0
LINE
8
0
10
673.0
20
0.0
30
-2000.0
11
673.0
21
-25.0
31
-2000.0
0
LINE
8
0
10
673.0
20
-25.0
30
-2000.0
11
1.0927847E-6
21
-25.0
31
-2000.0
0
LINE
8
0
10
1.0927847E-6
20
-25.0
30
-2000.0
11
0.0
21
0.0
31
-2000.0
0
LINE
8
0
10
0.0
20
0.0
30
-1975.0
11
673.0
21
0.0
31
-1975.0
0
LINE
8
0
10
673.0
20
0.0
30
-1975.0
11
673.0
21
-25.0
31
-1975.0
0
LINE
8
0
10
673.0
20
-25.0
30
-1975.0
11
1.0927847E-6
21
-25.0
31
-1975.0
0
LINE
8
0
10
1.0927847E-6
20
-25.0
30
-1975.0
11
0.0
21
0.0
31
-1975.0
0
LINE
8
0
10
0.0
20
0.0
30
-2000.0
11
0.0
21
0.0
31
-1975.0
0
LINE
8
0
10
673.0
20
0.0
30
-2000.0
11
673.0
21
0.0
31
-1975.0
0
LINE
8
0
10
673.0
20
-25.0
30
-2000.0
11
673.0
21
-25.0
31
-1975.0
0
LINE
8
0
10
1.0927847E-6
20
-25.0
30
-2000.0
11
1.0927847E-6
21
-25.0
31
-1975.0
0
LINE
8
0
10
673.0
20
0.0
30
-2000.0
11
1674.0
21
0.0
31
-2000.0
0
LINE
8
0
10
1674.0
20
0.0
30
-2000.0
11
1674.0
21
-25.0
31
-2000.0
0
LINE
8
0
10
1674.0
20
-25.0
30
-2000.0
11
673.0
21
-25.0
31
-2000.0
0
LINE
8
0
10
673.0
20
-25.0
30
-2000.0
11
673.0
21
0.0
31
-2000.0
0
LINE
8
0
10
673.0
20
0.0
30
-1975.0
11
1674.0
21
0.0
31
-1975.0
0
LINE
8
0
10
1674.0
20
0.0
30
-1975.0
11
1674.0
21
-25.0
31
-1975.0
0
LINE
8
0
10
1674.0
20
-25.0
30
-1975.0
11
673.0
21
-25.0
31
-1975.0
0
LINE
8
0
10
673.0
20
-25.0
30
-1975.0
11
673.0
21
0.0
31
-1975.0
0
LINE
8
0
10
673.0
20
0.0
30
-2000.0
11
673.0
21
0.0
31
-1975.0
0
LINE
8
0
10
1674.0
20
0.0
30
-2000.0
11
1674.0
21
0.0
31
-1975.0
0
LINE
8
0
10
1674.0
20
-25.0
30
-2000.0
11
1674.0
21
-25.0
31
-1975.0
0
LINE
8
0
10
673.0
20
-25.0
30
-2000.0
11
673.0
21
-25.0
31
-1975.0
0
LINE
8
0
10
0.0
20
0.0
30
-1975.0
11
624.0
21
0.0
31
-1975.0
0
LINE
8
0
10
624.0
20
0.0
30
-1975.0
11
624.0
21
-25.0
31
-1975.0
0
LINE
8
0
10
624.0
20
-25.0
30
-1975.0
11
1.0927847E-6
21
-25.0
31
-1975.0
0
LINE
8
0
10
1.0927847E-6
20
-25.0
30
-1975.0
11
0.0
21
0.0
31
-1975.0
0
LINE
8
0
10
0.0
20
0.0
30
-1950.0
11
624.0
21
0.0
31
-1950.0
0
LINE
8
0
10
624.0
20
0.0
30
-1950.0
11
624.0
21
-25.0
31
-1950.0
0
LINE
8
0
10
624.0
20
-25.0
30
-1950.0
11
1.0927847E-6
21
-25.0
31
-1950.0
0
LINE
8
0
10
1.0927847E-6
20
-25.0
30
-1950.0
11
0.0
21
0.0
31
-1950.0
0
LINE
8
0
10
0.0
20
0.0
30
-1975.0
11
0.0
21
0.0
31
-1950.0
0
LINE
8
0
10
624.0
20
0.0
30
-1975.0
11
624.0
21
0.0
31
-1950.0
0
LINE
8
0
10
624.0
20
-25.0
30
-1975.0
11
624.0
21
-25.0
31
-1950.0
0
LINE
8
0
10
1.0927847E-6
20
-25.0
30
-1975.0
11
1.0927847E-6
21
-25.0
31
-1950.0
0
LINE
8
0
10
624.0
20
0.0
30
-1975.0
11
1674.0
21
0.0
31
-1975.0
0
LINE
8
0
10
1674.0
20
0.0
30
-1975.0
11
1674.0
21
-25.0
31
-1975.0
0
LINE
8
0
10
1674.0
20
-25.0
30
-1975.0
11
624.0
21
-25.0
31
-1975.0
0
LINE
8
0
10
624.0
20
-25.0
30
-1975.0
11
624.0
21
0.0
31
-1975.0
0
LINE
8
0
10
624.0
20
0.0
30
-1950.0
11
1674.0
21
0.0
31
-1950.0
0
LINE
8
0
10
1674.0
20
0.0
30
-1950.0
11
1674.0
21
-25.0
31
-1950.0
0
LINE
8
0
10
1674.0
20
-25.0
30
-1950.0
11
624.0
21
-25.0
31
-1950.0
0
LINE
8
0
10
624.0
20
-25.0
30
-1950.0
11
624.0
21
0.0
31
-1950.0
0
LINE
8
0
10
624.0
20
0.0
30
-1975.0
11
624.0
21
0.0
31
-1950.0
0
LINE
8
0
10
1674.0
20
0.0
30
-1975.0
11
1674.0
21
0.0
31
-1950.0
0
LINE
8
0
10
1674.0
20
-25.0
30
-1975.0
11
1674.0
21
-25.0
31
-1950.0
0
LINE
8
0
10
624.0
20
-25.0
30
-1975.0
11
624.0
21
-25.0
31
-1950.0
0
LINE
8
0
10
0.0
20
0.0
30
-1950.0
11
723.0
21
0.0
31
-1950.0
0
LINE
8
0
10
723.0
20
0.0
30
-1950.0
11
723.0
21
-25.0
31
-1950.0
0
LINE
8
0
10
723.0
20
-25.0
30
-1950.0
11
1.0927847E-6
21
-25.0
31
-1950.0
0
LINE
8
0
10
1.0927847E-6
20
-25.0
30
-1950.0
11
0.0
21
0.0
31
-1950.0
0
LINE
8
0
10
0.0
20
0.0
30
-1925.0
11
723.0
21
0.0
31
-1925.0
0
LINE
8
0
10
723.0
20
0.0
30
-1925.0
11
723.0
21
-25.0
31
-1925.0
0
LINE
8
0
10
723.0
20
-25.0
30
-1925.0
11
1.0927847E-6
21
-25.0
31
-1925.0
0
LINE
8
0
10
1.0927847E-6
20
-25.0
30
-1925.0
11
0.0
21
0.0
31
-1925.0
0
LINE
8
0
10
0.0
20
0.0
30
-1950.0
11
0.0
21
0.0
31
-1925.0
0
LINE
8
0
10
723.0
20
0.0
30
-1950.0
11
723.0
21
0.0
31
-1925.0
0
LINE
8
0
10
723.0
20
-25.0
30
-1950.0
11
723.0
21
-25.0
31
-1925.0
0
LINE
8
0
10
1.0927847E-6
20
-25.0
30
-1950.0
11
1.0927847E-6
21
-25.0
31
-1925.0
0
LINE
8
0
10
723.0
20
0.0
30
-1950.0
11
1674.0
21
0.0
31
-1950.0
0
LINE
8
0
10
1674.0
20
0.0
30
-1950.0
11
1674.0
21
-25.0
31
-1950.0
0
LINE
8
0
10
1674.0
20
-25.0
30
-1950.0
11
723.0
21
-25.0
31
-1950.0
0
LINE
8
0
10
723.0
20
-25.0
30
-1950.0
11
723.0
21
0.0
31
-1950.0
0
LINE
8
0
10
723.0
20
0.0
30
-1925.0
11
1674.0
21
0.0
31
-1925.0
0
LINE
8
0
10
1674.0
20
0.0
30
-1925.0
11
1674.0
21
-25.0
31
-1925.0
0
LINE
8
0
10
1674.0
20
-25.0
30
-1925.0
11
723.0
21
-25.0
31
-1925.0
0
LINE
8
0
10
723.0
20
-25.0
30
-1925.0
11
723.0
21
0.0
31
-1925.0
0
LINE
8
0
10
723.0
20
0.0
30
-1950.0
11
723.0
21
0.0
31
-1925.0
0
LINE
8
0
10
1674.0
20
0.0
30
-1950.0
11
1674.0
21
0.0
31
-1925.0
0
LINE
8
0
10
1674.0
20
-25.0
30
-1950.0
11
1674.0
21
-25.0
31
-1925.0
0
LINE
8
0
10
723.0
20
-25.0
30
-1950.0
11
723.0
21
-25.0
31
-1925.0
0
LINE
8
0
10
0.0
20
0.0
30
-1925.0
11
580.0
21
0.0
31
-1925.0
0
LINE
8
0
10
580.0
20
0.0
30
-1925.0
11
580.0
21
-25.0
31
-1925.0
0
LINE
8
0
10
580.0
20
-25.0
30
-1925.0
11
1.0927847E-6
21
-25.0
31
-1925.0
0
LINE
8
0
10
1.0927847E-6
20
-25.0
30
-1925.0
11
0.0
21
0.0
31
-1925.0
0
LINE
8
0
10
0.0
20
0.0
30
-1900.0
11
580.0
21
0.0
31
-1900.0
0
LINE
8
0
10
580.0
20
0.0
30
-1900.0
11
580.0
21
-25.0
31
-1900.0
0
LINE
8
0
10
580.0
20
-25.0
30
-1900.0
11
1.0927847E-6
21
-25.0
31
-1900.0
0
LINE
8
0
10
1.0927847E-6
20
-25.0
30
-1900.0
11
0.0
21
0.0
31
-1900.0
0
LINE
8
0
10
0.0
20
0.0
30
-1925.0
11
0.0
21
0.0
31
-1900.0
0
LINE
8
0
10
580.0
20
0.0
30
-1925.0
11
580.0
21
0.0
31
-1900.0
0
LINE
8
0
10
580.0
20
-25.0
30
-1925.0
11
580.0
21
-25.0
31
-1900.0
0
LINE
8
0
10
1.0927847E-6
20
-25.0
30
-1925.0
11
1.0927847E-6
21
-25.0
31
-1900.0
0
LINE
8
0
10
580.0
20
0.0
30
-1925.0
11
1674.0
21
0.0
31
-1925.0
0
LINE
8
0
10
1674.0
20
0.0
30
-1925.0
11
1674.0
21
-25.0
31
-1925.0
0
LINE
8
0
10
1674.0
20
-25.0
30
-1925.0
11
580.0
21
-25.0
31
-1925.0
0
LINE
8
0
10
580.0
20
-25.0
30
-1925.0
11
580.0
21
0.0
31
-1925.0
0
LINE
8
0
10
580.0
20
0.0
30
-1900.0
11
1674.0
21
0.0
31
-1900.0
0
LINE
8
0
10
1674.0
20
0.0
30
-1900.0
11
1674.0
21
-25.0
31
-1900.0
0
LINE
8
0
10
1674.0
20
-25.0
30
-1900.0
11
580.0
21
-25.0
31
-1900.0
0
LINE
8
0
10
580.0
20
-25.0
30
-1900.0
11
580.0
21
0.0
31
-1900.0
0
LINE
8
0
10
580.0
20
0.0
30
-1925.0
11
580.0
21
0.0
31
-1900.0
0
LINE
8
0
10
1674.0
20
0.0
30
-1925.0
11
1674.0
21
0.0
31
-1900.0
0
LINE
8
0
10
1674.0
20
-25.0
30
-1925.0
11
1674.0
21
-25.0
31
-1900.0
0
LINE
8
0
10
580.0
20
-25.0
30
-1925.0
11
580.0
21
-25.0
31
-1900.0
0
LINE
8
0
10
0.0
20
0.0
30
-1900.0
11
765.0
21
0.0
31
-1900.0
0
LINE
8
0
10
765.0
20
0.0
30
-1900.0
11
765.0
21
-25.0
31
-1900.0
0
LINE
8
0
10
765.0
20
-25.0
30
-1900.0
11
1.0927847E-6
21
-25.0
31
-1900.0
0
LINE
8
0
10
1.0927847E-6
20
-25.0
30
-1900.0
11
0.0
21
0.0
31
-1900.0
0
LINE
8
0
10
0.0
20
0.0
30
-1875.0
11
765.0
21
0.0
31
-1875.0
0
LINE
8
0
10
765.0
20
0.0
30
-1875.0
11
765.0
21
-25.0
31
-1875.0
0
LINE
8
0
10
765.0
20
-25.0
30
-1875.0
11
1.0927847E-6
21
-25.0
31
-1875.0
0
LINE
8
0
10
1.0927847E-6
20
-25.0
30
-1875.0
11
0.0
21
0.0
31
-1875.0
0
LINE
8
0
10
0.0
20
0.0
30
-1900.0
11
0.0
21
0.0
31
-1875.0
0
LINE
8
0
10
765.0
20
0.0
30
-1900.0
11
765.0
21
0.0
31
-1875.0
0
LINE
8
0
10
765.0
20
-25.0
30
-1900.0
11
765.0
21
-25.0
31
-1875.0
0
LINE
8
0
10
1.0927847E-6
20
-25.0
30
-1900.0
11
1.0927847E-6
21
-25.0
31
-1875.0
0
LINE
8
0
10
765.0
20
0.0
30
-1900.0
11
1674.0
21
0.0
31
-1900.0
0
LINE
8
0
10
1674.0
20
0.0
30
-1900.0
11
1674.0
21
-25.0
31
-1900.0
0
LINE
8
0
10
1674.0
20
-25.0
30
-1900.0
11
765.0
21
-25.0
31
-1900.0
0
LINE
8
0
10
765.0
20
-25.0
30
-1900.0
11
765.0
21
0.0
31
-1900.0
0
LINE
8
0
10
765.0
20
0.0
30
-1875.0
11
1674.0
21
0.0
31
-1875.0
0
LINE
8
0
10
1674.0
20
0.0
30
-1875.0
11
1674.0
21
-25.0
31
-1875.0
0
LINE
8
0
10
1674.0
20
-25.0
30
-1875.0
11
765.0
21
-25.0
31
-1875.0
0
LINE
8
0
10
765.0
20
-25.0
30
-1875.0
11
765.0
21
0.0
31
-1875.0
0
LINE
8
0
10
765.0
20
0.0
30
-1900.0
11
765.0
21
0.0
31
-1875.0
0
LINE
8
0
10
1674.0
20
0.0
30
-1900.0
11
1674.0
21
0.0
31
-1875.0
0
LINE
8
0
10
1674.0
20
-25.0
30
-1900.0
11
1674.0
21
-25.0
31
-1875.0
0
LINE
8
0
10
765.0
20
-25.0
30
-1900.0
11
765.0
21
-25.0
31
-1875.0
0
LINE
8
0
10
0.0
20
0.0
30
-1875.0
11
546.0
21
0.0
31
-1875.0
0
LINE
8
0
10
546.0
20
0.0
30
-1875.0
11
546.0
21
-25.0
31
-1875.0
0
LINE
8
0
10
546.0
20
-25.0
30
-1875.0
11
1.0927847E-6
21
-25.0
31
-1875.0
0
LINE
8
0
10
1.0927847E-6
20
-25.0
30
-1875.0
11
0.0
21
0.0
31
-1875.0
0
LINE
8
0
10
0.0
20
0.0
30
-1850.0
11
546.0
21
0.0
31
-1850.0
0
LINE
8
0
10
546.0
20
0.0
30
-1850.0
11
546.0
21
-25.0
31
-1850.0
0
LINE
8
0
10
546.0
20
-25.0
30
-1850.0
11
1.0927847E-6
21
-25.0
31
-1850.0
0
LINE
8
0
10
1.0927847E-6
20
-25.0
30
-1850.0
11
0.0
21
0.0
31
-1850.0
0
LINE
8
0
10
0.0
20
0.0
30
-1875.0
11
0.0
21
0.0
31
-1850.0
0
LINE
8
0
10
546.0
20
0.0
30
-1875.0
11
546.0
21
0.0
31
-1850.0
0
LINE
8
0
10
546.0
20
-25.0
30
-1875.0
11
546.0
21
-25.0
31
-1850.0
0
LINE
8
0
10
1.0927847E-6
20
-25.0
30
-1875.0
11
1.0927847E-6
21
-25.0
31
-1850.0
0
LINE
8
0
10
546.0
20
0.0
30
-1875.0
11
1674.0
21
0.0
31
-1875.0
0
LINE
8
0
10
1674.0
20
0.0
30
-1875.0
11
1674.0
21
-25.0
31
-1875.0
0
LINE
8
0
10
1674.0
20
-25.0
30
-1875.0
11
546.0
21
-25.0
31
-1875.0
0
LINE
8
0
10
546.0
20
-25.0
30
-1875.0
11
546.0
21
0.0
31
-1875.0
0
LINE
8
0
10
546.0
20
0.0
30
-1850.0
11
1674.0
21
0.0
31
-1850.0
0
LINE
8
0
10
1674.0
20
0.0
30
-1850.0
11
1674.0
21
-25.0
31
-1850.0
0
LINE
8
0
10
1674.0
20
-25.0
30
-1850.0
11
546.0
21
-25.0
31
-1850.0
0
LINE
8
0
10
546.0
20
-25.0
30
-1850.0
11
546.0
21
0.0
31
-1850.0
0
LINE
8
0
10
546.0
20
0.0
30
-1875.0
11
546.0
21
0.0
31
-1850.0
0
LINE
8
0
10
1674.0
20
0.0
30
-1875.0
11
1674.0
21
0.0
31
-1850.0
0
LINE
8
0
10
1674.0
20
-25.0
30
-1875.0
11
1674.0
21
-25.0
31
-1850.0
0
LINE
8
0
10
546.0
20
-25.0
30
-1875.0
11
546.0
21
-25.0
31
-1850.0
0
LINE
8
0
10
0.0
20
0.0
30
-1850.0
11
800.0
21
0.0
31
-1850.0
0
LINE
8
0
10
800.0
20
0.0
30
-1850.0
11
800.0
21
-25.0
31
-1850.0
0
LINE
8
0
10
800.0
20
-25.0
30
-1850.0
11
1.0927847E-6
21
-25.0
31
-1850.0
0
LINE
8
0
10
1.0927847E-6
20
-25.0
30
-1850.0
11
0.0
21
0.0
31
-1850.0
0
LINE
8
0
10
0.0
20
0.0
30
-1825.0
11
800.0
21
0.0
31
-1825.0
0
LINE
8
0
10
800.0
20
0.0
30
-1825.0
11
800.0
21
-25.0
31
-1825.0
0
LINE
8
0
10
800.0
20
-25.0
30
-1825.0
11
1.0927847E-6
21
-25.0
31
-1825.0
0
LINE
8
0
10
1.0927847E-6
20
-25.0
30
-1825.0
11
0.0
21
0.0
31
-1825.0
0
LINE
8
0
10
0.0
20
0.0
30
-1850.0
11
0.0
21
0.0
31
-1825.0
0
LINE
8
0
10
800.0
20
0.0
30
-1850.0
11
800.0
21
0.0
31
-1825.0
0
LINE
8
0
10
800.0
20
-25.0
30
-1850.0
11
800.0
21
-25.0
31
-1825.0
0
LINE
8
0
10
1.0927847E-6
20
-25.0
30
-1850.0
11
1.0927847E-6
21
-25.0
31
-1825.0
0
LINE
8
0
10
800.0
20
0.0
30
-1850.0
11
1674.0
21
0.0
31
-1850.0
0
LINE
8
0
10
1674.0
20
0.0
30
-1850.0
11
1674.0
21
-25.0
31
-1850.0
0
LINE
8
0
10
1674.0
20
-25.0
30
-1850.0
11
800.0
21
-25.0
31
-1850.0
0
LINE
8
0
10
800.0
20
-25.0
30
-1850.0
11
800.0
21
0.0
31
-1850.0
0
LINE
8
0
10
800.0
20
0.0
30
-1825.0
11
1674.0
21
0.0
31
-1825.0
0
LINE
8
0
10
1674.0
20
0.0
30
-1825.0
11
1674.0
21
-25.0
31
-1825.0
0
LINE
8
0
10
1674.0
20
-25.0
30
-1825.0
11
800.0
21
-25.0
31
-1825.0
0
LINE
8
0
10
800.0
20
-25.0
30
-1825.0
11
800.0
21
0.0
31
-1825.0
0
LINE
8
0
10
800.0
20
0.0
30
-1850.0
11
800.0
21
0.0
31
-1825.0
0
LINE
8
0
10
1674.0
20
0.0
30
-1850.0
11
1674.0
21
0.0
31
-1825.0
0
LINE
8
0
10
1674.0
20
-25.0
30
-1850.0
11
1674.0
21
-25.0
31
-1825.0
0
LINE
8
0
10
800.0
20
-25.0
30
-1850.0
11
800.0
21
-25.0
31
-1825.0
0
LINE
8
0
10
0.0
20
0.0
30
-1825.0
11
518.0
21
0.0
31
-1825.0
0
LINE
8
0
10
518.0
20
0.0
30
-1825.0
11
518.0
21
-25.0
31
-1825.0
0
LINE
8
0
10
518.0
20
-25.0
30
-1825.0
11
1.0927847E-6
21
-25.0
31
-1825.0
0
LINE
8
0
10
1.0927847E-6
20
-25.0
30
-1825.0
11
0.0
21
0.0
31
-1825.0
0
LINE
8
0
10
0.0
20
0.0
30
-1800.0
11
518.0
21
0.0
31
-1800.0
0
LINE
8
0
10
518.0
20
0.0
30
-1800.0
11
518.0
21
-25.0
31
-1800.0
0
LINE
8
0
10
518.0
20
-25.0
30
-1800.0
11
1.0927847E-6
21
-25.0
31
-1800.0
0
LINE
8
0
10
1.0927847E-6
20
-25.0
30
-1800.0
11
0.0
21
0.0
31
-1800.0
0
LINE
8
0
10
0.0
20
0.0
30
-1825.0
11
0.0
21
0.0
31
-1800.0
0
LINE
8
0
10
518.0
20
0.0
30
-1825.0
11
518.0
21
0.0
31
-1800.0
0
LINE
8
0
10
518.0
20
-25.0
30
-1825.0
11
518.0
21
-25.0
31
-1800.0
0
LINE
8
0
10
1.0927847E-6
20
-25.0
30
-1825.0
11
1.0927847E-6
21
-25.0
31
-1800.0
0
LINE
8
0
10
518.0
20
0.0
30
-1825.0
11
1674.0
21
0.0
31
-1825.0
0
LINE
8
0
10
1674.0
20
0.0
30
-1825.0
11
1674.0
21
-25.0
31
-1825.0
0
LINE
8
0
10
1674.0
20
-25.0
30
-1825.0
11
518.0
21
-25.0
31
-1825.0
0
LINE
8
0
10
518.0
20
-25.0
30
-1825.0
11
518.0
21
0.0
31
-1825.0
0
LINE
8
0
10
518.0
20
0.0
30
-1800.0
11
1674.0
21
0.0
31
-1800.0
0
LINE
8
0
10
1674.0
20
0.0
30
-1800.0
11
1674.0
21
-25.0
31
-1800.0
0
LINE
8
0
10
1674.0
20
-25.0
30
-1800.0
11
518.0
21
-25.0
31
-1800.0
0
LINE
8
0
10
518.0
20
-25.0
30
-1800.0
11
518.0
21
0.0
31
-1800.0
0
LINE
8
0
10
518.0
20
0.0
30
-1825.0
11
518.0
21
0.0
31
-1800.0
0
LINE
8
0
10
1674.0
20
0.0
30
-1825.0
11
1674.0
21
0.0
31
-1800.0
0
LINE
8
0
10
1674.0
20
-25.0
30
-1825.0
11
1674.0
21
-25.0
31
-1800.0
0
LINE
8
0
10
518.0
20
-25.0
30
-1825.0
11
518.0
21
-25.0
31
-1800.0
0
LINE
8
0
10
0.0
20
0.0
30
-1800.0
11
829.0
21
0.0
31
-1800.0
0
LINE
8
0
10
829.0
20
0.0
30
-1800.0
11
829.0
21
-25.0
31
-1800.0
0
LINE
8
0
10
829.0
20
-25.0
30
-1800.0
11
1.0927847E-6
21
-25.0
31
-1800.0
0
LINE
8
0
10
1.0927847E-6
20
-25.0
30
-1800.0
11
0.0
21
0.0
31
-1800.0
0
LINE
8
0
10
0.0
20
0.0
30
-1775.0
11
829.0
21
0.0
31
-1775.0
0
LINE
8
0
10
829.0
20
0.0
30
-1775.0
11
829.0
21
-25.0
31
-1775.0
0
LINE
8
0
10
829.0
20
-25.0
30
-1775.0
11
1.0927847E-6
21
-25.0
31
-1775.0
0
LINE
8
0
10
1.0927847E-6
20
-25.0
30
-1775.0
11
0.0
21
0.0
31
-1775.0
0
LINE
8
0
10
0.0
20
0.0
30
-1800.0
11
0.0
21
0.0
31
-1775.0
0
LINE
8
0
10
829.0
20
0.0
30
-1800.0
11
829.0
21
0.0
31
-1775.0
0
LINE
8
0
10
829.0
20
-25.0
30
-1800.0
11
829.0
21
-25.0
31
-1775.0
0
LINE
8
0
10
1.0927847E-6
20
-25.0
30
-1800.0
11
1.0927847E-6
21
-25.0
31
-1775.0
0
LINE
8
0
10
829.0
20
0.0
30
-1800.0
11
1674.0
21
0.0
31
-1800.0
0
LINE
8
0
10
1674.0
20
0.0
30
-1800.0
11
1674.0
21
-25.0
31
-1800.0
0
LINE
8
0
10
1674.0
20
-25.0
30
-1800.0
11
829.0
21
-25.0
31
-1800.0
0
LINE
8
0
10
829.0
20
-25.0
30
-1800.0
11
829.0
21
0.0
31
-1800.0
0
LINE
8
0
10
829.0
20
0.0
30
-1775.0
11
1674.0
21
0.0
31
-1775.0
0
LINE
8
0
10
1674.0
20
0.0
30
-1775.0
11
1674.0
21
-25.0
31
-1775.0
0
LINE
8
0
10
1674.0
20
-25.0
30
-1775.0
11
829.0
21
-25.0
31
-1775.0
0
LINE
8
0
10
829.0
20
-25.0
30
-1775.0
11
829.0
21
0.0
31
-1775.0
0
LINE
8
0
10
829.0
20
0.0
30
-1800.0
11
829.0
21
0.0
31
-1775.0
0
LINE
8
0
10
1674.0
20
0.0
30
-1800.0
11
1674.0
21
0.0
31
-1775.0
0
LINE
8
0
10
1674.0
20
-25.0
30
-1800.0
11
1674.0
21
-25.0
31
-1775.0
0
LINE
8
0
10
829.0
20
-25.0
30
-1800.0
11
829.0
21
-25.0
31
-1775.0
0
LINE
8
0
10
0.0
20
0.0
30
-1775.0
11
495.0
21
0.0
31
-1775.0
0
LINE
8
0
10
495.0
20
0.0
30
-1775.0
11
495.0
21
-25.0
31
-1775.0
0
LINE
8
0
10
495.0
20
-25.0
30
-1775.0
11
1.0927847E-6
21
-25.0
31
-1775.0
0
LINE
8
0
10
1.0927847E-6
20
-25.0
30
-1775.0
11
0.0
21
0.0
31
-1775.0
0
LINE
8
0
10
0.0
20
0.0
30
-1750.0
11
495.0
21
0.0
31
-1750.0
0
LINE
8
0
10
495.0
20
0.0
30
-1750.0
11
495.0
21
-25.0
31
-1750.0
0
LINE
8
0
10
495.0
20
-25.0
30
-1750.0
11
1.0927847E-6
21
-25.0
31
-1750.0
0
LINE
8
0
10
1.0927847E-6
20
-25.0
30
-1750.0
11
0.0
21
0.0
31
-1750.0
0
LINE
8
0
10
0.0
20
0.0
30
-1775.0
11
0.0
21
0.0
31
-1750.0
0
LINE
8
0
10
495.0
20
0.0
30
-1775.0
11
495.0
21
0.0
31
-1750.0
0
LINE
8
0
10
495.0
20
-25.0
30
-1775.0
11
495.0
21
-25.0
31
-1750.0
0
LINE
8
0
10
1.0927847E-6
20
-25.0
30
-1775.0
11
1.0927847E-6
21
-25.0
31
-1750.0
0
LINE
8
0
10
495.0
20
0.0
30
-1775.0
11
1674.0
21
0.0
31
-1775.0
0
LINE
8
0
10
1674.0
20
0.0
30
-1775.0
11
1674.0
21
-25.0
31
-1775.0
0
LINE
8
0
10
1674.0
20
-25.0
30
-1775.0
11
495.0
21
-25.0
31
-1775.0
0
LINE
8
0
10
495.0
20
-25.0
30
-1775.0
11
495.0
21
0.0
31
-1775.0
0
LINE
8
0
10
495.0
20
0.0
30
-1750.0
11
1674.0
21
0.0
31
-1750.0
0
LINE
8
0
10
1674.0
20
0.0
30
-1750.0
11
1674.0
21
-25.0
31
-1750.0
0
LINE
8
0
10
1674.0
20
-25.0
30
-1750.0
11
495.0
21
-25.0
31
-1750.0
0
LINE
8
0
10
495.0
20
-25.0
30
-1750.0
11
495.0
21
0.0
31
-1750.0
0
LINE
8
0
10
495.0
20
0.0
30
-1775.0
11
495.0
21
0.0
31
-1750.0
0
LINE
8
0
10
1674.0
20
0.0
30
-1775.0
11
1674.0
21
0.0
31
-1750.0
0
LINE
8
0
10
1674.0
20
-25.0
30
-1775.0
11
1674.0
21
-25.0
31
-1750.0
0
LINE
8
0
10
495.0
20
-25.0
30
-1775.0
11
495.0
21
-25.0
31
-1750.0
0
LINE
8
0
10
0.0
20
0.0
30
-1750.0
11
851.0
21
0.0
31
-1750.0
0
LINE
8
0
10
851.0
20
0.0
30
-1750.0
11
851.0
21
-25.0
31
-1750.0
0
LINE
8
0
10
851.0
20
-25.0
30
-1750.0
11
1.0927847E-6
21
-25.0
31
-1750.0
0
LINE
8
0
10
1.0927847E-6
20
-25.0
30
-1750.0
11
0.0
21
0.0
31
-1750.0
0
LINE
8
0
10
0.0
20
0.0
30
-1725.0
11
851.0
21
0.0
31
-1725.0
0
LINE
8
0
10
851.0
20
0.0
30
-1725.0
11
851.0
21
-25.0
31
-1725.0
0
LINE
8
0
10
851.0
20
-25.0
30
-1725.0
11
1.0927847E-6
21
-25.0
31
-1725.0
0
LINE
8
0
10
1.0927847E-6
20
-25.0
30
-1725.0
11
0.0
21
0.0
31
-1725.0
0
LINE
8
0
10
0.0
20
0.0
30
-1750.0
11
0.0
21
0.0
31
-1725.0
0
LINE
8
0
10
851.0
20
0.0
30
-1750.0
11
851.0
21
0.0
31
-1725.0
0
LINE
8
0
10
851.0
20
-25.0
30
-1750.0
11
851.0
21
-25.0
31
-1725.0
0
LINE
8
0
10
1.0927847E-6
20
-25.0
30
-1750.0
11
1.0927847E-6
21
-25.0
31
-1725.0
0
LINE
8
0
10
851.0
20
0.0
30
-1750.0
11
1674.0
21
0.0
31
-1750.0
0
LINE
8
0
10
1674.0
20
0.0
30
-1750.0
11
1674.0
21
-25.0
31
-1750.0
0
LINE
8
0
10
1674.0
20
-25.0
30
-1750.0
11
851.0
21
-25.0
31
-1750.0
0
LINE
8
0
10
851.0
20
-25.0
30
-1750.0
11
851.0
21
0.0
31
-1750.0
0
LINE
8
0
10
851.0
20
0.0
30
-1725.0
11
1674.0
21
0.0
31
-1725.0
0
LINE
8
0
10
1674.0
20
0.0
30
-1725.0
11
1674.0
21
-25.0
31
-1725.0
0
LINE
8
0
10
1674.0
20
-25.0
30
-1725.0
11
851.0
21
-25.0
31
-1725.0
0
LINE
8
0
10
851.0
20
-25.0
30
-1725.0
11
851.0
21
0.0
31
-1725.0
0
LINE
8
0
10
851.0
20
0.0
30
-1750.0
11
851.0
21
0.0
31
-1725.0
0
LINE
8
0
10
1674.0
20
0.0
30
-1750.0
11
1674.0
21
0.0
31
-1725.0
0
LINE
8
0
10
1674.0
20
-25.0
30
-1750.0
11
1674.0
21
-25.0
31
-1725.0
0
LINE
8
0
10
851.0
20
-25.0
30
-1750.0
11
851.0
21
-25.0
31
-1725.0
0
LINE
8
0
10
0.0
20
0.0
30
-1725.0
11
478.0
21
0.0
31
-1725.0
0
LINE
8
0
10
478.0
20
0.0
30
-1725.0
11
478.0
21
-25.0
31
-1725.0
0
LINE
8
0
10
478.0
20
-25.0
30
-1725.0
11
1.0927847E-6
21
-25.0
31
-1725.0
0
LINE
8
0
10
1.0927847E-6
20
-25.0
30
-1725.0
11
0.0
21
0.0
31
-1725.0
0
LINE
8
0
10
0.0
20
0.0
30
-1700.0
11
478.0
21
0.0
31
-1700.0
0
LINE
8
0
10
478.0
20
0.0
30
-1700.0
11
478.0
21
-25.0
31
-1700.0
0
LINE
8
0
10
478.0
20
-25.0
30
-1700.0
11
1.0927847E-6
21
-25.0
31
-1700.0
0
LINE
8
0
10
1.0927847E-6
20
-25.0
30
-1700.0
11
0.0
21
0.0
31
-1700.0
0
LINE
8
0
10
0.0
20
0.0
30
-1725.0
11
0.0
21
0.0
31
-1700.0
0
LINE
8
0
10
478.0
20
0.0
30
-1725.0
11
478.0
21
0.0
31
-1700.0
0
LINE
8
0
10
478.0
20
-25.0
30
-1725.0
11
478.0
21
-25.0
31
-1700.0
0
LINE
8
0
10
1.0927847E-6
20
-25.0
30
-1725.0
11
1.0927847E-6
21
-25.0
31
-1700.0
0
LINE
8
0
10
478.0
20
0.0
30
-1725.0
11
1674.0
21
0.0
31
-1725.0
0
LINE
8
0
10
1674.0
20
0.0
30
-1725.0
11
1674.0
21
-25.0
31
-1725.0
0
LINE
8
0
10
1674.0
20
-25.0
30
-1725.0
11
478.0
21
-25.0
31
-1725.0
0
LINE
8
0
10
478.0
20
-25.0
30
-1725.0
11
478.0
21
0.0
31
-1725.0
0
LINE
8
0
10
478.0
20
0.0
30
-1700.0
11
1674.0
21
0.0
31
-1700.0
0
LINE
8
0
10
1674.0
20
0.0
30
-1700.0
11
1674.0
21
-25.0
31
-1700.0
0
LINE
8
0
10
1674.0
20
-25.0
30
-1700.0
11
478.0
21
-25.0
31
-1700.0
0
LINE
8
0
10
478.0
20
-25.0
30
-1700.0
11
478.0
21
0.0
31
-1700.0
0
LINE
8
0
10
478.0
20
0.0
30
-1725.0
11
478.0
21
0.0
31
-1700.0
0
LINE
8
0
10
1674.0
20
0.0
30
-1725.0
11
1674.0
21
0.0
31
-1700.0
0
LINE
8
0
10
1674.0
20
-25.0
30
-1725.0
11
1674.0
21
-25.0
31
-1700.0
0
LINE
8
0
10
478.0
20
-25.0
30
-1725.0
11
478.0
21
-25.0
31
-1700.0
0
LINE
8
0
10
0.0
20
0.0
30
-1700.0
11
869.0
21
0.0
31
-1700.0
0
LINE
8
0
10
869.0
20
0.0
30
-1700.0
11
869.0
21
-25.0
31
-1700.0
0
LINE
8
0
10
869.0
20
-25.0
30
-1700.0
11
1.0927847E-6
21
-25.0
31
-1700.0
0
LINE
8
0
10
1.0927847E-6
20
-25.0
30
-1700.0
11
0.0
21
0.0
31
-1700.0
0
LINE
8
0
10
0.0
20
0.0
30
-1675.0
11
869.0
21
0.0
31
-1675.0
0
LINE
8
0
10
869.0
20
0.0
30
-1675.0
11
869.0
21
-25.0
31
-1675.0
0
LINE
8
0
10
869.0
20
-25.0
30
-1675.0
11
1.0927847E-6
21
-25.0
31
-1675.0
0
LINE
8
0
10
1.0927847E-6
20
-25.0
30
-1675.0
11
0.0
21
0.0
31
-1675.0
0
LINE
8
0
10
0.0
20
0.0
30
-1700.0
11
0.0
21
0.0
31
-1675.0
0
LINE
8
0
10
869.0
20
0.0
30
-1700.0
11
869.0
21
0.0
31
-1675.0
0
LINE
8
0
10
869.0
20
-25.0
30
-1700.0
11
869.0
21
-25.0
31
-1675.0
0
LINE
8
0
10
1.0927847E-6
20
-25.0
30
-1700.0
11
1.0927847E-6
21
-25.0
31
-1675.0
0
LINE
8
0
10
869.0
20
0.0
30
-1700.0
11
1674.0
21
0.0
31
-1700.0
0
LINE
8
0
10
1674.0
20
0.0
30
-1700.0
11
1674.0
21
-25.0
31
-1700.0
0
LINE
8
0
10
1674.0
20
-25.0
30
-1700.0
11
869.0
21
-25.0
31
-1700.0
0
LINE
8
0
10
869.0
20
-25.0
30
-1700.0
11
869.0
21
0.0
31
-1700.0
0
LINE
8
0
10
869.0
20
0.0
30
-1675.0
11
1674.0
21
0.0
31
-1675.0
0
LINE
8
0
10
1674.0
20
0.0
30
-1675.0
11
1674.0
21
-25.0
31
-1675.0
0
LINE
8
0
10
1674.0
20
-25.0
30
-1675.0
11
869.0
21
-25.0
31
-1675.0
0
LINE
8
0
10
869.0
20
-25.0
30
-1675.0
11
869.0
21
0.0
31
-1675.0
0
LINE
8
0
10
869.0
20
0.0
30
-1700.0
11
869.0
21
0.0
31
-1675.0
0
LINE
8
0
10
1674.0
20
0.0
30
-1700.0
11
1674.0
21
0.0
31
-1675.0
0
LINE
8
0
10
1674.0
20
-25.0
30
-1700.0
11
1674.0
21
-25.0
31
-1675.0
0
LINE
8
0
10
869.0
20
-25.0
30
-1700.0
11
869.0
21
-25.0
31
-1675.0
0
LINE
8
0
10
0.0
20
0.0
30
-1675.0
11
465.0
21
0.0
31
-1675.0
0
LINE
8
0
10
465.0
20
0.0
30
-1675.0
11
465.0
21
-25.0
31
-1675.0
0
LINE
8
0
10
465.0
20
-25.0
30
-1675.0
11
1.0927847E-6
21
-25.0
31
-1675.0
0
LINE
8
0
10
1.0927847E-6
20
-25.0
30
-1675.0
11
0.0
21
0.0
31
-1675.0
0
LINE
8
0
10
0.0
20
0.0
30
-1650.0
11
465.0
21
0.0
31
-1650.0
0
LINE
8
0
10
465.0
20
0.0
30
-1650.0
11
465.0
21
-25.0
31
-1650.0
0
LINE
8
0
10
465.0
20
-25.0
30
-1650.0
11
1.0927847E-6
21
-25.0
31
-1650.0
0
LINE
8
0
10
1.0927847E-6
20
-25.0
30
-1650.0
11
0.0
21
0.0
31
-1650.0
0
LINE
8
0
10
0.0
20
0.0
30
-1675.0
11
0.0
21
0.0
31
-1650.0
0
LINE
8
0
10
465.0
20
0.0
30
-1675.0
11
465.0
21
0.0
31
-1650.0
0
LINE
8
0
10
465.0
20
-25.0
30
-1675.0
11
465.0
21
-25.0
31
-1650.0
0
LINE
8
0
10
1.0927847E-6
20
-25.0
30
-1675.0
11
1.0927847E-6
21
-25.0
31
-1650.0
0
LINE
8
0
10
465.0
20
0.0
30
-1675.0
11
1674.0
21
0.0
31
-1675.0
0
LINE
8
0
10
1674.0
20
0.0
30
-1675.0
11
1674.0
21
-25.0
31
-1675.0
0
LINE
8
0
10
1674.0
20
-25.0
30
-1675.0
11
465.0
21
-25.0
31
-1675.0
0
LINE
8
0
10
465.0
20
-25.0
30
-1675.0
11
465.0
21
0.0
31
-1675.0
0
LINE
8
0
10
465.0
20
0.0
30
-1650.0
11
1674.0
21
0.0
31
-1650.0
0
LINE
8
0
10
1674.0
20
0.0
30
-1650.0
11
1674.0
21
-25.0
31
-1650.0
0
LINE
8
0
10
1674.0
20
-25.0
30
-1650.0
11
465.0
21
-25.0
31
-1650.0
0
LINE
8
0
10
465.0
20
-25.0
30
-1650.0
11
465.0
21
0.0
31
-1650.0
0
LINE
8
0
10
465.0
20
0.0
30
-1675.0
11
465.0
21
0.0
31
-1650.0
0
LINE
8
0
10
1674.0
20
0.0
30
-1675.0
11
1674.0
21
0.0
31
-1650.0
0
LINE
8
0
10
1674.0
20
-25.0
30
-1675.0
11
1674.0
21
-25.0
31
-1650.0
0
LINE
8
0
10
465.0
20
-25.0
30
-1675.0
11
465.0
21
-25.0
31
-1650.0
0
LINE
8
0
10
0.0
20
0.0
30
-1650.0
11
882.0
21
0.0
31
-1650.0
0
LINE
8
0
10
882.0
20
0.0
30
-1650.0
11
882.0
21
-25.0
31
-1650.0
0
LINE
8
0
10
882.0
20
-25.0
30
-1650.0
11
1.0927847E-6
21
-25.0
31
-1650.0
0
LINE
8
0
10
1.0927847E-6
20
-25.0
30
-1650.0
11
0.0
21
0.0
31
-1650.0
0
LINE
8
0
10
0.0
20
0.0
30
-1625.0
11
882.0
21
0.0
31
-1625.0
0
LINE
8
0
10
882.0
20
0.0
30
-1625.0
11
882.0
21
-25.0
31
-1625.0
0
LINE
8
0
10
882.0
20
-25.0
30
-1625.0
11
1.0927847E-6
21
-25.0
31
-1625.0
0
LINE
8
0
10
1.0927847E-6
20
-25.0
30
-1625.0
11
0.0
21
0.0
31
-1625.0
0
LINE
8
0
10
0.0
20
0.0
30
-1650.0
11
0.0
21
0.0
31
-1625.0
0
LINE
8
0
10
882.0
20
0.0
30
-1650.0
11
882.0
21
0.0
31
-1625.0
0
LINE
8
0
10
882.0
20
-25.0
30
-1650.0
11
882.0
21
-25.0
31
-1625.0
0
LINE
8
0
10
1.0927847E-6
20
-25.0
30
-1650.0
11
1.0927847E-6
21
-25.0
31
-1625.0
0
LINE
8
0
10
882.0
20
0.0
30
-1650.0
11
1674.0
21
0.0
31
-1650.0
0
LINE
8
0
10
1674.0
20
0.0
30
-1650.0
11
1674.0
21
-25.0
31
-1650.0
0
LINE
8
0
10
1674.0
20
-25.0
30
-1650.0
11
882.0
21
-25.0
31
-1650.0
0
LINE
8
0
10
882.0
20
-25.0
30
-1650.0
11
882.0
21
0.0
31
-1650.0
0
LINE
8
0
10
882.0
20
0.0
30
-1625.0
11
1674.0
21
0.0
31
-1625.0
0
LINE
8
0
10
1674.0
20
0.0
30
-1625.0
11
1674.0
21
-25.0
31
-1625.0
0
LINE
8
0
10
1674.0
20
-25.0
30
-1625.0
11
882.0
21
-25.0
31
-1625.0
0
LINE
8
0
10
882.0
20
-25.0
30
-1625.0
11
882.0
21
0.0
31
-1625.0
0
LINE
8
0
10
882.0
20
0.0
30
-1650.0
11
882.0
21
0.0
31
-1625.0
0
LINE
8
0
10
1674.0
20
0.0
30
-1650.0
11
1674.0
21
0.0
31
-1625.0
0
LINE
8
0
10
1674.0
20
-25.0
30
-1650.0
11
1674.0
21
-25.0
31
-1625.0
0
LINE
8
0
10
882.0
20
-25.0
30
-1650.0
11
882.0
21
-25.0
31
-1625.0
0
LINE
8
0
10
0.0
20
0.0
30
-1625.0
11
457.0
21
0.0
31
-1625.0
0
LINE
8
0
10
457.0
20
0.0
30
-1625.0
11
457.0
21
-25.0
31
-1625.0
0
LINE
8
0
10
457.0
20
-25.0
30
-1625.0
11
1.0927847E-6
21
-25.0
31
-1625.0
0
LINE
8
0
10
1.0927847E-6
20
-25.0
30
-1625.0
11
0.0
21
0.0
31
-1625.0
0
LINE
8
0
10
0.0
20
0.0
30
-1600.0
11
457.0
21
0.0
31
-1600.0
0
LINE
8
0
10
457.0
20
0.0
30
-1600.0
11
457.0
21
-25.0
31
-1600.0
0
LINE
8
0
10
457.0
20
-25.0
30
-1600.0
11
1.0927847E-6
21
-25.0
31
-1600.0
0
LINE
8
0
10
1.0927847E-6
20
-25.0
30
-1600.0
11
0.0
21
0.0
31
-1600.0
0
LINE
8
0
10
0.0
20
0.0
30
-1625.0
11
0.0
21
0.0
31
-1600.0
0
LINE
8
0
10
457.0
20
0.0
30
-1625.0
11
457.0
21
0.0
31
-1600.0
0
LINE
8
0
10
457.0
20
-25.0
30
-1625.0
11
457.0
21
-25.0
31
-1600.0
0
LINE
8
0
10
1.0927847E-6
20
-25.0
30
-1625.0
11
1.0927847E-6
21
-25.0
31
-1600.0
0
LINE
8
0
10
457.0
20
0.0
30
-1625.0
11
1674.0
21
0.0
31
-1625.0
0
LINE
8
0
10
1674.0
20
0.0
30
-1625.0
11
1674.0
21
-25.0
31
-1625.0
0
LINE
8
0
10
1674.0
20
-25.0
30
-1625.0
11
457.0
21
-25.0
31
-1625.0
0
LINE
8
0
10
457.0
20
-25.0
30
-1625.0
11
457.0
21
0.0
31
-1625.0
0
LINE
8
0
10
457.0
20
0.0
30
-1600.0
11
1674.0
21
0.0
31
-1600.0
0
LINE
8
0
10
1674.0
20
0.0
30
-1600.0
11
1674.0
21
-25.0
31
-1600.0
0
LINE
8
0
10
1674.0
20
-25.0
30
-1600.0
11
457.0
21
-25.0
31
-1600.0
0
LINE
8
0
10
457.0
20
-25.0
30
-1600.0
11
457.0
21
0.0
31
-1600.0
0
LINE
8
0
10
457.0
20
0.0
30
-1625.0
11
457.0
21
0.0
31
-1600.0
0
LINE
8
0
10
1674.0
20
0.0
30
-1625.0
11
1674.0
21
0.0
31
-1600.0
0
LINE
8
0
10
1674.0
20
-25.0
30
-1625.0
11
1674.0
21
-25.0
31
-1600.0
0
LINE
8
0
10
457.0
20
-25.0
30
-1625.0
11
457.0
21
-25.0
31
-1600.0
0
LINE
8
0
10
0.0
20
0.0
30
-1600.0
11
889.0
21
0.0
31
-1600.0
0
LINE
8
0
10
889.0
20
0.0
30
-1600.0
11
889.0
21
-25.0
31
-1600.0
0
LINE
8
0
10
889.0
20
-25.0
30
-1600.0
11
1.0927847E-6
21
-25.0
31
-1600.0
0
LINE
8
0
10
1.0927847E-6
20
-25.0
30
-1600.0
11
0.0
21
0.0
31
-1600.0
0
LINE
8
0
10
0.0
20
0.0
30
-1575.0
11
889.0
21
0.0
31
-1575.0
0
LINE
8
0
10
889.0
20
0.0
30
-1575.0
11
889.0
21
-25.0
31
-1575.0
0
LINE
8
0
10
889.0
20
-25.0
30
-1575.0
11
1.0927847E-6
21
-25.0
31
-1575.0
0
LINE
8
0
10
1.0927847E-6
20
-25.0
30
-1575.0
11
0.0
21
0.0
31
-1575.0
0
LINE
8
0
10
0.0
20
0.0
30
-1600.0
11
0.0
21
0.0
31
-1575.0
0
LINE
8
0
10
889.0
20
0.0
30
-1600.0
11
889.0
21
0.0
31
-1575.0
0
LINE
8
0
10
889.0
20
-25.0
30
-1600.0
11
889.0
21
-25.0
31
-1575.0
0
LINE
8
0
10
1.0927847E-6
20
-25.0
30
-1600.0
11
1.0927847E-6
21
-25.0
31
-1575.0
0
LINE
8
0
10
889.0
20
0.0
30
-1600.0
11
1674.0
21
0.0
31
-1600.0
0
LINE
8
0
10
1674.0
20
0.0
30
-1600.0
11
1674.0
21
-25.0
31
-1600.0
0
LINE
8
0
10
1674.0
20
-25.0
30
-1600.0
11
889.0
21
-25.0
31
-1600.0
0
LINE
8
0
10
889.0
20
-25.0
30
-1600.0
11
889.0
21
0.0
31
-1600.0
0
LINE
8
0
10
889.0
20
0.0
30
-1575.0
11
1674.0
21
0.0
31
-1575.0
0
LINE
8
0
10
1674.0
20
0.0
30
-1575.0
11
1674.0
21
-25.0
31
-1575.0
0
LINE
8
0
10
1674.0
20
-25.0
30
-1575.0
11
889.0
21
-25.0
31
-1575.0
0
LINE
8
0
10
889.0
20
-25.0
30
-1575.0
11
889.0
21
0.0
31
-1575.0
0
LINE
8
0
10
889.0
20
0.0
30
-1600.0
11
889.0
21
0.0
31
-1575.0
0
LINE
8
0
10
1674.0
20
0.0
30
-1600.0
11
1674.0
21
0.0
31
-1575.0
0
LINE
8
0
10
1674.0
20
-25.0
30
-1600.0
11
1674.0
21
-25.0
31
-1575.0
0
LINE
8
0
10
889.0
20
-25.0
30
-1600.0
11
889.0
21
-25.0
31
-1575.0
0
LINE
8
0
10
0.0
20
0.0
30
-1575.0
11
452.0
21
0.0
31
-1575.0
0
LINE
8
0
10
452.0
20
0.0
30
-1575.0
11
452.0
21
-25.0
31
-1575.0
0
LINE
8
0
10
452.0
20
-25.0
30
-1575.0
11
1.0927847E-6
21
-25.0
31
-1575.0
0
LINE
8
0
10
1.0927847E-6
20
-25.0
30
-1575.0
11
0.0
21
0.0
31
-1575.0
0
LINE
8
0
10
0.0
20
0.0
30
-1550.0
11
452.0
21
0.0
31
-1550.0
0
LINE
8
0
10
452.0
20
0.0
30
-1550.0
11
452.0
21
-25.0
31
-1550.0
0
LINE
8
0
10
452.0
20
-25.0
30
-1550.0
11
1.0927847E-6
21
-25.0
31
-1550.0
0
LINE
8
0
10
1.0927847E-6
20
-25.0
30
-1550.0
11
0.0
21
0.0
31
-1550.0
0
LINE
8
0
10
0.0
20
0.0
30
-1575.0
11
0.0
21
0.0
31
-1550.0
0
LINE
8
0
10
452.0
20
0.0
30
-1575.0
11
452.0
21
0.0
31
-1550.0
0
LINE
8
0
10
452.0
20
-25.0
30
-1575.0
11
452.0
21
-25.0
31
-1550.0
0
LINE
8
0
10
1.0927847E-6
20
-25.0
30
-1575.0
11
1.0927847E-6
21
-25.0
31
-1550.0
0
LINE
8
0
10
452.0
20
0.0
30
-1575.0
11
1674.0
21
0.0
31
-1575.0
0
LINE
8
0
10
1674.0
20
0.0
30
-1575.0
11
1674.0
21
-25.0
31
-1575.0
0
LINE
8
0
10
1674.0
20
-25.0
30
-1575.0
11
452.0
21
-25.0
31
-1575.0
0
LINE
8
0
10
452.0
20
-25.0
30
-1575.0
11
452.0
21
0.0
31
-1575.0
0
LINE
8
0
10
452.0
20
0.0
30
-1550.0
11
1674.0
21
0.0
31
-1550.0
0
LINE
8
0
10
1674.0
20
0.0
30
-1550.0
11
1674.0
21
-25.0
31
-1550.0
0
LINE
8
0
10
1674.0
20
-25.0
30
-1550.0
11
452.0
21
-25.0
31
-1550.0
0
LINE
8
0
10
452.0
20
-25.0
30
-1550.0
11
452.0
21
0.0
31
-1550.0
0
LINE
8
0
10
452.0
20
0.0
30
-1575.0
11
452.0
21
0.0
31
-1550.0
0
LINE
8
0
10
1674.0
20
0.0
30
-1575.0
11
1674.0
21
0.0
31
-1550.0
0
LINE
8
0
10
1674.0
20
-25.0
30
-1575.0
11
1674.0
21
-25.0
31
-1550.0
0
LINE
8
0
10
452.0
20
-25.0
30
-1575.0
11
452.0
21
-25.0
31
-1550.0
0
LINE
8
0
10
0.0
20
0.0
30
-1550.0
11
893.0
21
0.0
31
-1550.0
0
LINE
8
0
10
893.0
20
0.0
30
-1550.0
11
893.0
21
-25.0
31
-1550.0
0
LINE
8
0
10
893.0
20
-25.0
30
-1550.0
11
1.0927847E-6
21
-25.0
31
-1550.0
0
LINE
8
0
10
1.0927847E-6
20
-25.0
30
-1550.0
11
0.0
21
0.0
31
-1550.0
0
LINE
8
0
10
0.0
20
0.0
30
-1525.0
11
893.0
21
0.0
31
-1525.0
0
LINE
8
0
10
893.0
20
0.0
30
-1525.0
11
893.0
21
-25.0
31
-1525.0
0
LINE
8
0
10
893.0
20
-25.0
30
-1525.0
11
1.0927847E-6
21
-25.0
31
-1525.0
0
LINE
8
0
10
1.0927847E-6
20
-25.0
30
-1525.0
11
0.0
21
0.0
31
-1525.0
0
LINE
8
0
10
0.0
20
0.0
30
-1550.0
11
0.0
21
0.0
31
-1525.0
0
LINE
8
0
10
893.0
20
0.0
30
-1550.0
11
893.0
21
0.0
31
-1525.0
0
LINE
8
0
10
893.0
20
-25.0
30
-1550.0
11
893.0
21
-25.0
31
-1525.0
0
LINE
8
0
10
1.0927847E-6
20
-25.0
30
-1550.0
11
1.0927847E-6
21
-25.0
31
-1525.0
0
LINE
8
0
10
893.0
20
0.0
30
-1550.0
11
1674.0
21
0.0
31
-1550.0
0
LINE
8
0
10
1674.0
20
0.0
30
-1550.0
11
1674.0
21
-25.0
31
-1550.0
0
LINE
8
0
10
1674.0
20
-25.0
30
-1550.0
11
893.0
21
-25.0
31
-1550.0
0
LINE
8
0
10
893.0
20
-25.0
30
-1550.0
11
893.0
21
0.0
31
-1550.0
0
LINE
8
0
10
893.0
20
0.0
30
-1525.0
11
1674.0
21
0.0
31
-1525.0
0
LINE
8
0
10
1674.0
20
0.0
30
-1525.0
11
1674.0
21
-25.0
31
-1525.0
0
LINE
8
0
10
1674.0
20
-25.0
30
-1525.0
11
893.0
21
-25.0
31
-1525.0
0
LINE
8
0
10
893.0
20
-25.0
30
-1525.0
11
893.0
21
0.0
31
-1525.0
0
LINE
8
0
10
893.0
20
0.0
30
-1550.0
11
893.0
21
0.0
31
-1525.0
0
LINE
8
0
10
1674.0
20
0.0
30
-1550.0
11
1674.0
21
0.0
31
-1525.0
0
LINE
8
0
10
1674.0
20
-25.0
30
-1550.0
11
1674.0
21
-25.0
31
-1525.0
0
LINE
8
0
10
893.0
20
-25.0
30
-1550.0
11
893.0
21
-25.0
31
-1525.0
0
LINE
8
0
10
0.0
20
0.0
30
-1525.0
11
451.0
21
0.0
31
-1525.0
0
LINE
8
0
10
451.0
20
0.0
30
-1525.0
11
451.0
21
-25.0
31
-1525.0
0
LINE
8
0
10
451.0
20
-25.0
30
-1525.0
11
1.0927847E-6
21
-25.0
31
-1525.0
0
LINE
8
0
10
1.0927847E-6
20
-25.0
30
-1525.0
11
0.0
21
0.0
31
-1525.0
0
LINE
8
0
10
0.0
20
0.0
30
-1500.0
11
451.0
21
0.0
31
-1500.0
0
LINE
8
0
10
451.0
20
0.0
30
-1500.0
11
451.0
21
-25.0
31
-1500.0
0
LINE
8
0
10
451.0
20
-25.0
30
-1500.0
11
1.0927847E-6
21
-25.0
31
-1500.0
0
LINE
8
0
10
1.0927847E-6
20
-25.0
30
-1500.0
11
0.0
21
0.0
31
-1500.0
0
LINE
8
0
10
0.0
20
0.0
30
-1525.0
11
0.0
21
0.0
31
-1500.0
0
LINE
8
0
10
451.0
20
0.0
30
-1525.0
11
451.0
21
0.0
31
-1500.0
0
LINE
8
0
10
451.0
20
-25.0
30
-1525.0
11
451.0
21
-25.0
31
-1500.0
0
LINE
8
0
10
1.0927847E-6
20
-25.0
30
-1525.0
11
1.0927847E-6
21
-25.0
31
-1500.0
0
LINE
8
0
10
451.0
20
0.0
30
-1525.0
11
1674.0
21
0.0
31
-1525.0
0
LINE
8
0
10
1674.0
20
0.0
30
-1525.0
11
1674.0
21
-25.0
31
-1525.0
0
LINE
8
0
10
1674.0
20
-25.0
30
-1525.0
11
451.0
21
-25.0
31
-1525.0
0
LINE
8
0
10
451.0
20
-25.0
30
-1525.0
11
451.0
21
0.0
31
-1525.0
0
LINE
8
0
10
451.0
20
0.0
30
-1500.0
11
1674.0
21
0.0
31
-1500.0
0
LINE
8
0
10
1674.0
20
0.0
30
-1500.0
11
1674.0
21
-25.0
31
-1500.0
0
LINE
8
0
10
1674.0
20
-25.0
30
-1500.0
11
451.0
21
-25.0
31
-1500.0
0
LINE
8
0
10
451.0
20
-25.0
30
-1500.0
11
451.0
21
0.0
31
-1500.0
0
LINE
8
0
10
451.0
20
0.0
30
-1525.0
11
451.0
21
0.0
31
-1500.0
0
LINE
8
0
10
1674.0
20
0.0
30
-1525.0
11
1674.0
21
0.0
31
-1500.0
0
LINE
8
0
10
1674.0
20
-25.0
30
-1525.0
11
1674.0
21
-25.0
31
-1500.0
0
LINE
8
0
10
451.0
20
-25.0
30
-1525.0
11
451.0
21
-25.0
31
-1500.0
0
LINE
8
0
10
0.0
20
0.0
30
-1500.0
11
889.0
21
0.0
31
-1500.0
0
LINE
8
0
10
889.0
20
0.0
30
-1500.0
11
889.0
21
-25.0
31
-1500.0
0
LINE
8
0
10
889.0
20
-25.0
30
-1500.0
11
1.0927847E-6
21
-25.0
31
-1500.0
0
LINE
8
0
10
1.0927847E-6
20
-25.0
30
-1500.0
11
0.0
21
0.0
31
-1500.0
0
LINE
8
0
10
0.0
20
0.0
30
-1475.0
11
889.0
21
0.0
31
-1475.0
0
LINE
8
0
10
889.0
20
0.0
30
-1475.0
11
889.0
21
-25.0
31
-1475.0
0
LINE
8
0
10
889.0
20
-25.0
30
-1475.0
11
1.0927847E-6
21
-25.0
31
-1475.0
0
LINE
8
0
10
1.0927847E-6
20
-25.0
30
-1475.0
11
0.0
21
0.0
31
-1475.0
0
LINE
8
0
10
0.0
20
0.0
30
-1500.0
11
0.0
21
0.0
31
-1475.0
0
LINE
8
0
10
889.0
20
0.0
30
-1500.0
11
889.0
21
0.0
31
-1475.0
0
LINE
8
0
10
889.0
20
-25.0
30
-1500.0
11
889.0
21
-25.0
31
-1475.0
0
LINE
8
0
10
1.0927847E-6
20
-25.0
30
-1500.0
11
1.0927847E-6
21
-25.0
31
-1475.0
0
LINE
8
0
10
889.0
20
0.0
30
-1500.0
11
1674.0
21
0.0
31
-1500.0
0
LINE
8
0
10
1674.0
20
0.0
30
-1500.0
11
1674.0
21
-25.0
31
-1500.0
0
LINE
8
0
10
1674.0
20
-25.0
30
-1500.0
11
889.0
21
-25.0
31
-1500.0
0
LINE
8
0
10
889.0
20
-25.0
30
-1500.0
11
889.0
21
0.0
31
-1500.0
0
LINE
8
0
10
889.0
20
0.0
30
-1475.0
11
1674.0
21
0.0
31
-1475.0
0
LINE
8
0
10
1674.0
20
0.0
30
-1475.0
11
1674.0
21
-25.0
31
-1475.0
0
LINE
8
0
10
1674.0
20
-25.0
30
-1475.0
11
889.0
21
-25.0
31
-1475.0
0
LINE
8
0
10
889.0
20
-25.0
30
-1475.0
11
889.0
21
0.0
31
-1475.0
0
LINE
8
0
10
889.0
20
0.0
30
-1500.0
11
889.0
21
0.0
31
-1475.0
0
LINE
8
0
10
1674.0
20
0.0
30
-1500.0
11
1674.0
21
0.0
31
-1475.0
0
LINE
8
0
10
1674.0
20
-25.0
30
-1500.0
11
1674.0
21
-25.0
31
-1475.0
0
LINE
8
0
10
889.0
20
-25.0
30
-1500.0
11
889.0
21
-25.0
31
-1475.0
0
LINE
8
0
10
0.0
20
0.0
30
-1475.0
11
457.0
21
0.0
31
-1475.0
0
LINE
8
0
10
457.0
20
0.0
30
-1475.0
11
457.0
21
-25.0
31
-1475.0
0
LINE
8
0
10
457.0
20
-25.0
30
-1475.0
11
1.0927847E-6
21
-25.0
31
-1475.0
0
LINE
8
0
10
1.0927847E-6
20
-25.0
30
-1475.0
11
0.0
21
0.0
31
-1475.0
0
LINE
8
0
10
0.0
20
0.0
30
-1450.0
11
457.0
21
0.0
31
-1450.0
0
LINE
8
0
10
457.0
20
0.0
30
-1450.0
11
457.0
21
-25.0
31
-1450.0
0
LINE
8
0
10
457.0
20
-25.0
30
-1450.0
11
1.0927847E-6
21
-25.0
31
-1450.0
0
LINE
8
0
10
1.0927847E-6
20
-25.0
30
-1450.0
11
0.0
21
0.0
31
-1450.0
0
LINE
8
0
10
0.0
20
0.0
30
-1475.0
11
0.0
21
0.0
31
-1450.0
0
LINE
8
0
10
457.0
20
0.0
30
-1475.0
11
457.0
21
0.0
31
-1450.0
0
LINE
8
0
10
457.0
20
-25.0
30
-1475.0
11
457.0
21
-25.0
31
-1450.0
0
LINE
8
0
10
1.0927847E-6
20
-25.0
30
-1475.0
11
1.0927847E-6
21
-25.0
31
-1450.0
0
LINE
8
0
10
457.0
20
0.0
30
-1475.0
11
1674.0
21
0.0
31
-1475.0
0
LINE
8
0
10
1674.0
20
0.0
30
-1475.0
11
1674.0
21
-25.0
31
-1475.0
0
LINE
8
0
10
1674.0
20
-25.0
30
-1475.0
11
457.0
21
-25.0
31
-1475.0
0
LINE
8
0
10
457.0
20
-25.0
30
-1475.0
11
457.0
21
0.0
31
-1475.0
0
LINE
8
0
10
457.0
20
0.0
30
-1450.0
11
1674.0
21
0.0
31
-1450.0
0
LINE
8
0
10
1674.0
20
0.0
30
-1450.0
11
1674.0
21
-25.0
31
-1450.0
0
LINE
8
0
10
1674.0
20
-25.0
30
-1450.0
11
457.0
21
-25.0
31
-1450.0
0
LINE
8
0
10
457.0
20
-25.0
30
-1450.0
11
457.0
21
0.0
31
-1450.0
0
LINE
8
0
10
457.0
20
0.0
30
-1475.0
11
457.0
21
0.0
31
-1450.0
0
LINE
8
0
10
1674.0
20
0.0
30
-1475.0
11
1674.0
21
0.0
31
-1450.0
0
LINE
8
0
10
1674.0
20
-25.0
30
-1475.0
11
1674.0
21
-25.0
31
-1450.0
0
LINE
8
0
10
457.0
20
-25.0
30
-1475.0
11
457.0
21
-25.0
31
-1450.0
0
LINE
8
0
10
0.0
20
0.0
30
-1450.0
11
882.0
21
0.0
31
-1450.0
0
LINE
8
0
10
882.0
20
0.0
30
-1450.0
11
882.0
21
-25.0
31
-1450.0
0
LINE
8
0
10
882.0
20
-25.0
30
-1450.0
11
1.0927847E-6
21
-25.0
31
-1450.0
0
LINE
8
0
10
1.0927847E-6
20
-25.0
30
-1450.0
11
0.0
21
0.0
31
-1450.0
0
LINE
8
0
10
0.0
20
0.0
30
-1425.0
11
882.0
21
0.0
31
-1425.0
0
LINE
8
0
10
882.0
20
0.0
30
-1425.0
11
882.0
21
-25.0
31
-1425.0
0
LINE
8
0
10
882.0
20
-25.0
30
-1425.0
11
1.0927847E-6
21
-25.0
31
-1425.0
0
LINE
8
0
10
1.0927847E-6
20
-25.0
30
-1425.0
11
0.0
21
0.0
31
-1425.0
0
LINE
8
0
10
0.0
20
0.0
30
-1450.0
11
0.0
21
0.0
31
-1425.0
0
LINE
8
0
10
882.0
20
0.0
30
-1450.0
11
882.0
21
0.0
31
-1425.0
0
LINE
8
0
10
882.0
20
-25.0
30
-1450.0
11
882.0
21
-25.0
31
-1425.0
0
LINE
8
0
10
1.0927847E-6
20
-25.0
30
-1450.0
11
1.0927847E-6
21
-25.0
31
-1425.0
0
LINE
8
0
10
882.0
20
0.0
30
-1450.0
11
1674.0
21
0.0
31
-1450.0
0
LINE
8
0
10
1674.0
20
0.0
30
-1450.0
11
1674.0
21
-25.0
31
-1450.0
0
LINE
8
0
10
1674.0
20
-25.0
30
-1450.0
11
882.0
21
-25.0
31
-1450.0
0
LINE
8
0
10
882.0
20
-25.0
30
-1450.0
11
882.0
21
0.0
31
-1450.0
0
LINE
8
0
10
882.0
20
0.0
30
-1425.0
11
1674.0
21
0.0
31
-1425.0
0
LINE
8
0
10
1674.0
20
0.0
30
-1425.0
11
1674.0
21
-25.0
31
-1425.0
0
LINE
8
0
10
1674.0
20
-25.0
30
-1425.0
11
882.0
21
-25.0
31
-1425.0
0
LINE
8
0
10
882.0
20
-25.0
30
-1425.0
11
882.0
21
0.0
31
-1425.0
0
LINE
8
0
10
882.0
20
0.0
30
-1450.0
11
882.0
21
0.0
31
-1425.0
0
LINE
8
0
10
1674.0
20
0.0
30
-1450.0
11
1674.0
21
0.0
31
-1425.0
0
LINE
8
0
10
1674.0
20
-25.0
30
-1450.0
11
1674.0
21
-25.0
31
-1425.0
0
LINE
8
0
10
882.0
20
-25.0
30
-1450.0
11
882.0
21
-25.0
31
-1425.0
0
LINE
8
0
10
0.0
20
0.0
30
-1425.0
11
465.0
21
0.0
31
-1425.0
0
LINE
8
0
10
465.0
20
0.0
30
-1425.0
11
465.0
21
-25.0
31
-1425.0
0
LINE
8
0
10
465.0
20
-25.0
30
-1425.0
11
1.0927847E-6
21
-25.0
31
-1425.0
0
LINE
8
0
10
1.0927847E-6
20
-25.0
30
-1425.0
11
0.0
21
0.0
31
-1425.0
0
LINE
8
0
10
0.0
20
0.0
30
-1400.0
11
465.0
21
0.0
31
-1400.0
0
LINE
8
0
10
465.0
20
0.0
30
-1400.0
11
465.0
21
-25.0
31
-1400.0
0
LINE
8
0
10
465.0
20
-25.0
30
-1400.0
11
1.0927847E-6
21
-25.0
31
-1400.0
0
LINE
8
0
10
1.0927847E-6
20
-25.0
30
-1400.0
11
0.0
21
0.0
31
-1400.0
0
LINE
8
0
10
0.0
20
0.0
30
-1425.0
11
0.0
21
0.0
31
-1400.0
0
LINE
8
0
10
465.0
20
0.0
30
-1425.0
11
465.0
21
0.0
31
-1400.0
0
LINE
8
0
10
465.0
20
-25.0
30
-1425.0
11
465.0
21
-25.0
31
-1400.0
0
LINE
8
0
10
1.0927847E-6
20
-25.0
30
-1425.0
11
1.0927847E-6
21
-25.0
31
-1400.0
0
LINE
8
0
10
465.0
20
0.0
30
-1425.0
11
1674.0
21
0.0
31
-1425.0
0
LINE
8
0
10
1674.0
20
0.0
30
-1425.0
11
1674.0
21
-25.0
31
-1425.0
0
LINE
8
0
10
1674.0
20
-25.0
30
-1425.0
11
465.0
21
-25.0
31
-1425.0
0
LINE
8
0
10
465.0
20
-25.0
30
-1425.0
11
465.0
21
0.0
31
-1425.0
0
LINE
8
0
10
465.0
20
0.0
30
-1400.0
11
1674.0
21
0.0
31
-1400.0
0
LINE
8
0
10
1674.0
20
0.0
30
-1400.0
11
1674.0
21
-25.0
31
-1400.0
0
LINE
8
0
10
1674.0
20
-25.0
30
-1400.0
11
465.0
21
-25.0
31
-1400.0
0
LINE
8
0
10
465.0
20
-25.0
30
-1400.0
11
465.0
21
0.0
31
-1400.0
0
LINE
8
0
10
465.0
20
0.0
30
-1425.0
11
465.0
21
0.0
31
-1400.0
0
LINE
8
0
10
1674.0
20
0.0
30
-1425.0
11
1674.0
21
0.0
31
-1400.0
0
LINE
8
0
10
1674.0
20
-25.0
30
-1425.0
11
1674.0
21
-25.0
31
-1400.0
0
LINE
8
0
10
465.0
20
-25.0
30
-1425.0
11
465.0
21
-25.0
31
-1400.0
0
LINE
8
0
10
0.0
20
0.0
30
-1400.0
11
869.0
21
0.0
31
-1400.0
0
LINE
8
0
10
869.0
20
0.0
30
-1400.0
11
869.0
21
-25.0
31
-1400.0
0
LINE
8
0
10
869.0
20
-25.0
30
-1400.0
11
1.0927847E-6
21
-25.0
31
-1400.0
0
LINE
8
0
10
1.0927847E-6
20
-25.0
30
-1400.0
11
0.0
21
0.0
31
-1400.0
0
LINE
8
0
10
0.0
20
0.0
30
-1375.0
11
869.0
21
0.0
31
-1375.0
0
LINE
8
0
10
869.0
20
0.0
30
-1375.0
11
869.0
21
-25.0
31
-1375.0
0
LINE
8
0
10
869.0
20
-25.0
30
-1375.0
11
1.0927847E-6
21
-25.0
31
-1375.0
0
LINE
8
0
10
1.0927847E-6
20
-25.0
30
-1375.0
11
0.0
21
0.0
31
-1375.0
0
LINE
8
0
10
0.0
20
0.0
30
-1400.0
11
0.0
21
0.0
31
-1375.0
0
LINE
8
0
10
869.0
20
0.0
30
-1400.0
11
869.0
21
0.0
31
-1375.0
0
LINE
8
0
10
869.0
20
-25.0
30
-1400.0
11
869.0
21
-25.0
31
-1375.0
0
LINE
8
0
10
1.0927847E-6
20
-25.0
30
-1400.0
11
1.0927847E-6
21
-25.0
31
-1375.0
0
LINE
8
0
10
869.0
20
0.0
30
-1400.0
11
1674.0
21
0.0
31
-1400.0
0
LINE
8
0
10
1674.0
20
0.0
30
-1400.0
11
1674.0
21
-25.0
31
-1400.0
0
LINE
8
0
10
1674.0
20
-25.0
30
-1400.0
11
869.0
21
-25.0
31
-1400.0
0
LINE
8
0
10
869.0
20
-25.0
30
-1400.0
11
869.0
21
0.0
31
-1400.0
0
LINE
8
0
10
869.0
20
0.0
30
-1375.0
11
1674.0
21
0.0
31
-1375.0
0
LINE
8
0
10
1674.0
20
0.0
30
-1375.0
11
1674.0
21
-25.0
31
-1375.0
0
LINE
8
0
10
1674.0
20
-25.0
30
-1375.0
11
869.0
21
-25.0
31
-1375.0
0
LINE
8
0
10
869.0
20
-25.0
30
-1375.0
11
869.0
21
0.0
31
-1375.0
0
LINE
8
0
10
869.0
20
0.0
30
-1400.0
11
869.0
21
0.0
31
-1375.0
0
LINE
8
0
10
1674.0
20
0.0
30
-1400.0
11
1674.0
21
0.0
31
-1375.0
0
LINE
8
0
10
1674.0
20
-25.0
30
-1400.0
11
1674.0
21
-25.0
31
-1375.0
0
LINE
8
0
10
869.0
20
-25.0
30
-1400.0
11
869.0
21
-25.0
31
-1375.0
0
LINE
8
0
10
0.0
20
0.0
30
-1375.0
11
478.0
21
0.0
31
-1375.0
0
LINE
8
0
10
478.0
20
0.0
30
-1375.0
11
478.0
21
-25.0
31
-1375.0
0
LINE
8
0
10
478.0
20
-25.0
30
-1375.0
11
1.0927847E-6
21
-25.0
31
-1375.0
0
LINE
8
0
10
1.0927847E-6
20
-25.0
30
-1375.0
11
0.0
21
0.0
31
-1375.0
0
LINE
8
0
10
0.0
20
0.0
30
-1350.0
11
478.0
21
0.0
31
-1350.0
0
LINE
8
0
10
478.0
20
0.0
30
-1350.0
11
478.0
21
-25.0
31
-1350.0
0
LINE
8
0
10
478.0
20
-25.0
30
-1350.0
11
1.0927847E-6
21
-25.0
31
-1350.0
0
LINE
8
0
10
1.0927847E-6
20
-25.0
30
-1350.0
11
0.0
21
0.0
31
-1350.0
0
LINE
8
0
10
0.0
20
0.0
30
-1375.0
11
0.0
21
0.0
31
-1350.0
0
LINE
8
0
10
478.0
20
0.0
30
-1375.0
11
478.0
21
0.0
31
-1350.0
0
LINE
8
0
10
478.0
20
-25.0
30
-1375.0
11
478.0
21
-25.0
31
-1350.0
0
LINE
8
0
10
1.0927847E-6
20
-25.0
30
-1375.0
11
1.0927847E-6
21
-25.0
31
-1350.0
0
LINE
8
0
10
478.0
20
0.0
30
-1375.0
11
1674.0
21
0.0
31
-1375.0
0
LINE
8
0
10
1674.0
20
0.0
30
-1375.0
11
1674.0
21
-25.0
31
-1375.0
0
LINE
8
0
10
1674.0
20
-25.0
30
-1375.0
11
478.0
21
-25.0
31
-1375.0
0
LINE
8
0
10
478.0
20
-25.0
30
-1375.0
11
478.0
21
0.0
31
-1375.0
0
LINE
8
0
10
478.0
20
0.0
30
-1350.0
11
1674.0
21
0.0
31
-1350.0
0
LINE
8
0
10
1674.0
20
0.0
30
-1350.0
11
1674.0
21
-25.0
31
-1350.0
0
LINE
8
0
10
1674.0
20
-25.0
30
-1350.0
11
478.0
21
-25.0
31
-1350.0
0
LINE
8
0
10
478.0
20
-25.0
30
-1350.0
11
478.0
21
0.0
31
-1350.0
0
LINE
8
0
10
478.0
20
0.0
30
-1375.0
11
478.0
21
0.0
31
-1350.0
0
LINE
8
0
10
1674.0
20
0.0
30
-1375.0
11
1674.0
21
0.0
31
-1350.0
0
LINE
8
0
10
1674.0
20
-25.0
30
-1375.0
11
1674.0
21
-25.0
31
-1350.0
0
LINE
8
0
10
478.0
20
-25.0
30
-1375.0
11
478.0
21
-25.0
31
-1350.0
0
LINE
8
0
10
0.0
20
0.0
30
-1350.0
11
851.0
21
0.0
31
-1350.0
0
LINE
8
0
10
851.0
20
0.0
30
-1350.0
11
851.0
21
-25.0
31
-1350.0
0
LINE
8
0
10
851.0
20
-25.0
30
-1350.0
11
1.0927847E-6
21
-25.0
31
-1350.0
0
LINE
8
0
10
1.0927847E-6
20
-25.0
30
-1350.0
11
0.0
21
0.0
31
-1350.0
0
LINE
8
0
10
0.0
20
0.0
30
-1325.0
11
851.0
21
0.0
31
-1325.0
0
LINE
8
0
10
851.0
20
0.0
30
-1325.0
11
851.0
21
-25.0
31
-1325.0
0
LINE
8
0
10
851.0
20
-25.0
30
-1325.0
11
1.0927847E-6
21
-25.0
31
-1325.0
0
LINE
8
0
10
1.0927847E-6
20
-25.0
30
-1325.0
11
0.0
21
0.0
31
-1325.0
0
LINE
8
0
10
0.0
20
0.0
30
-1350.0
11
0.0
21
0.0
31
-1325.0
0
LINE
8
0
10
851.0
20
0.0
30
-1350.0
11
851.0
21
0.0
31
-1325.0
0
LINE
8
0
10
851.0
20
-25.0
30
-1350.0
11
851.0
21
-25.0
31
-1325.0
0
LINE
8
0
10
1.0927847E-6
20
-25.0
30
-1350.0
11
1.0927847E-6
21
-25.0
31
-1325.0
0
LINE
8
0
10
851.0
20
0.0
30
-1350.0
11
1674.0
21
0.0
31
-1350.0
0
LINE
8
0
10
1674.0
20
0.0
30
-1350.0
11
1674.0
21
-25.0
31
-1350.0
0
LINE
8
0
10
1674.0
20
-25.0
30
-1350.0
11
851.0
21
-25.0
31
-1350.0
0
LINE
8
0
10
851.0
20
-25.0
30
-1350.0
11
851.0
21
0.0
31
-1350.0
0
LINE
8
0
10
851.0
20
0.0
30
-1325.0
11
1674.0
21
0.0
31
-1325.0
0
LINE
8
0
10
1674.0
20
0.0
30
-1325.0
11
1674.0
21
-25.0
31
-1325.0
0
LINE
8
0
10
1674.0
20
-25.0
30
-1325.0
11
851.0
21
-25.0
31
-1325.0
0
LINE
8
0
10
851.0
20
-25.0
30
-1325.0
11
851.0
21
0.0
31
-1325.0
0
LINE
8
0
10
851.0
20
0.0
30
-1350.0
11
851.0
21
0.0
31
-1325.0
0
LINE
8
0
10
1674.0
20
0.0
30
-1350.0
11
1674.0
21
0.0
31
-1325.0
0
LINE
8
0
10
1674.0
20
-25.0
30
-1350.0
11
1674.0
21
-25.0
31
-1325.0
0
LINE
8
0
10
851.0
20
-25.0
30
-1350.0
11
851.0
21
-25.0
31
-1325.0
0
LINE
8
0
10
0.0
20
0.0
30
-1325.0
11
495.0
21
0.0
31
-1325.0
0
LINE
8
0
10
495.0
20
0.0
30
-1325.0
11
495.0
21
-25.0
31
-1325.0
0
LINE
8
0
10
495.0
20
-25.0
30
-1325.0
11
1.0927847E-6
21
-25.0
31
-1325.0
0
LINE
8
0
10
1.0927847E-6
20
-25.0
30
-1325.0
11
0.0
21
0.0
31
-1325.0
0
LINE
8
0
10
0.0
20
0.0
30
-1300.0
11
495.0
21
0.0
31
-1300.0
0
LINE
8
0
10
495.0
20
0.0
30
-1300.0
11
495.0
21
-25.0
31
-1300.0
0
LINE
8
0
10
495.0
20
-25.0
30
-1300.0
11
1.0927847E-6
21
-25.0
31
-1300.0
0
LINE
8
0
10
1.0927847E-6
20
-25.0
30
-1300.0
11
0.0
21
0.0
31
-1300.0
0
LINE
8
0
10
0.0
20
0.0
30
-1325.0
11
0.0
21
0.0
31
-1300.0
0
LINE
8
0
10
495.0
20
0.0
30
-1325.0
11
495.0
21
0.0
31
-1300.0
0
LINE
8
0
10
495.0
20
-25.0
30
-1325.0
11
495.0
21
-25.0
31
-1300.0
0
LINE
8
0
10
1.0927847E-6
20
-25.0
30
-1325.0
11
1.0927847E-6
21
-25.0
31
-1300.0
0
LINE
8
0
10
495.0
20
0.0
30
-1325.0
11
1674.0
21
0.0
31
-1325.0
0
LINE
8
0
10
1674.0
20
0.0
30
-1325.0
11
1674.0
21
-25.0
31
-1325.0
0
LINE
8
0
10
1674.0
20
-25.0
30
-1325.0
11
495.0
21
-25.0
31
-1325.0
0
LINE
8
0
10
495.0
20
-25.0
30
-1325.0
11
495.0
21
0.0
31
-1325.0
0
LINE
8
0
10
495.0
20
0.0
30
-1300.0
11
1674.0
21
0.0
31
-1300.0
0
LINE
8
0
10
1674.0
20
0.0
30
-1300.0
11
1674.0
21
-25.0
31
-1300.0
0
LINE
8
0
10
1674.0
20
-25.0
30
-1300.0
11
495.0
21
-25.0
31
-1300.0
0
LINE
8
0
10
495.0
20
-25.0
30
-1300.0
11
495.0
21
0.0
31
-1300.0
0
LINE
8
0
10
495.0
20
0.0
30
-1325.0
11
495.0
21
0.0
31
-1300.0
0
LINE
8
0
10
1674.0
20
0.0
30
-1325.0
11
1674.0
21
0.0
31
-1300.0
0
LINE
8
0
10
1674.0
20
-25.0
30
-1325.0
11
1674.0
21
-25.0
31
-1300.0
0
LINE
8
0
10
495.0
20
-25.0
30
-1325.0
11
495.0
21
-25.0
31
-1300.0
0
LINE
8
0
10
0.0
20
0.0
30
-1300.0
11
829.0
21
0.0
31
-1300.0
0
LINE
8
0
10
829.0
20
0.0
30
-1300.0
11
829.0
21
-25.0
31
-1300.0
0
LINE
8
0
10
829.0
20
-25.0
30
-1300.0
11
1.0927847E-6
21
-25.0
31
-1300.0
0
LINE
8
0
10
1.0927847E-6
20
-25.0
30
-1300.0
11
0.0
21
0.0
31
-1300.0
0
LINE
8
0
10
0.0
20
0.0
30
-1275.0
11
829.0
21
0.0
31
-1275.0
0
LINE
8
0
10
829.0
20
0.0
30
-1275.0
11
829.0
21
-25.0
31
-1275.0
0
LINE
8
0
10
829.0
20
-25.0
30
-1275.0
11
1.0927847E-6
21
-25.0
31
-1275.0
0
LINE
8
0
10
1.0927847E-6
20
-25.0
30
-1275.0
11
0.0
21
0.0
31
-1275.0
0
LINE
8
0
10
0.0
20
0.0
30
-1300.0
11
0.0
21
0.0
31
-1275.0
0
LINE
8
0
10
829.0
20
0.0
30
-1300.0
11
829.0
21
0.0
31
-1275.0
0
LINE
8
0
10
829.0
20
-25.0
30
-1300.0
11
829.0
21
-25.0
31
-1275.0
0
LINE
8
0
10
1.0927847E-6
20
-25.0
30
-1300.0
11
1.0927847E-6
21
-25.0
31
-1275.0
0
LINE
8
0
10
829.0
20
0.0
30
-1300.0
11
1674.0
21
0.0
31
-1300.0
0
LINE
8
0
10
1674.0
20
0.0
30
-1300.0
11
1674.0
21
-25.0
31
-1300.0
0
LINE
8
0
10
1674.0
20
-25.0
30
-1300.0
11
829.0
21
-25.0
31
-1300.0
0
LINE
8
0
10
829.0
20
-25.0
30
-1300.0
11
829.0
21
0.0
31
-1300.0
0
LINE
8
0
10
829.0
20
0.0
30
-1275.0
11
1674.0
21
0.0
31
-1275.0
0
LINE
8
0
10
1674.0
20
0.0
30
-1275.0
11
1674.0
21
-25.0
31
-1275.0
0
LINE
8
0
10
1674.0
20
-25.0
30
-1275.0
11
829.0
21
-25.0
31
-1275.0
0
LINE
8
0
10
829.0
20
-25.0
30
-1275.0
11
829.0
21
0.0
31
-1275.0
0
LINE
8
0
10
829.0
20
0.0
30
-1300.0
11
829.0
21
0.0
31
-1275.0
0
LINE
8
0
10
1674.0
20
0.0
30
-1300.0
11
1674.0
21
0.0
31
-1275.0
0
LINE
8
0
10
1674.0
20
-25.0
30
-1300.0
11
1674.0
21
-25.0
31
-1275.0
0
LINE
8
0
10
829.0
20
-25.0
30
-1300.0
11
829.0
21
-25.0
31
-1275.0
0
LINE
8
0
10
0.0
20
0.0
30
-1275.0
11
518.0
21
0.0
31
-1275.0
0
LINE
8
0
10
518.0
20
0.0
30
-1275.0
11
518.0
21
-25.0
31
-1275.0
0
LINE
8
0
10
518.0
20
-25.0
30
-1275.0
11
1.0927847E-6
21
-25.0
31
-1275.0
0
LINE
8
0
10
1.0927847E-6
20
-25.0
30
-1275.0
11
0.0
21
0.0
31
-1275.0
0
LINE
8
0
10
0.0
20
0.0
30
-1250.0
11
518.0
21
0.0
31
-1250.0
0
LINE
8
0
10
518.0
20
0.0
30
-1250.0
11
518.0
21
-25.0
31
-1250.0
0
LINE
8
0
10
518.0
20
-25.0
30
-1250.0
11
1.0927847E-6
21
-25.0
31
-1250.0
0
LINE
8
0
10
1.0927847E-6
20
-25.0
30
-1250.0
11
0.0
21
0.0
31
-1250.0
0
LINE
8
0
10
0.0
20
0.0
30
-1275.0
11
0.0
21
0.0
31
-1250.0
0
LINE
8
0
10
518.0
20
0.0
30
-1275.0
11
518.0
21
0.0
31
-1250.0
0
LINE
8
0
10
518.0
20
-25.0
30
-1275.0
11
518.0
21
-25.0
31
-1250.0
0
LINE
8
0
10
1.0927847E-6
20
-25.0
30
-1275.0
11
1.0927847E-6
21
-25.0
31
-1250.0
0
LINE
8
0
10
518.0
20
0.0
30
-1275.0
11
1674.0
21
0.0
31
-1275.0
0
LINE
8
0
10
1674.0
20
0.0
30
-1275.0
11
1674.0
21
-25.0
31
-1275.0
0
LINE
8
0
10
1674.0
20
-25.0
30
-1275.0
11
518.0
21
-25.0
31
-1275.0
0
LINE
8
0
10
518.0
20
-25.0
30
-1275.0
11
518.0
21
0.0
31
-1275.0
0
LINE
8
0
10
518.0
20
0.0
30
-1250.0
11
1674.0
21
0.0
31
-1250.0
0
LINE
8
0
10
1674.0
20
0.0
30
-1250.0
11
1674.0
21
-25.0
31
-1250.0
0
LINE
8
0
10
1674.0
20
-25.0
30
-1250.0
11
518.0
21
-25.0
31
-1250.0
0
LINE
8
0
10
518.0
20
-25.0
30
-1250.0
11
518.0
21
0.0
31
-1250.0
0
LINE
8
0
10
518.0
20
0.0
30
-1275.0
11
518.0
21
0.0
31
-1250.0
0
LINE
8
0
10
1674.0
20
0.0
30
-1275.0
11
1674.0
21
0.0
31
-1250.0
0
LINE
8
0
10
1674.0
20
-25.0
30
-1275.0
11
1674.0
21
-25.0
31
-1250.0
0
LINE
8
0
10
518.0
20
-25.0
30
-1275.0
11
518.0
21
-25.0
31
-1250.0
0
LINE
8
0
10
0.0
20
0.0
30
-1250.0
11
800.0
21
0.0
31
-1250.0
0
LINE
8
0
10
800.0
20
0.0
30
-1250.0
11
800.0
21
-25.0
31
-1250.0
0
LINE
8
0
10
800.0
20
-25.0
30
-1250.0
11
1.0927847E-6
21
-25.0
31
-1250.0
0
LINE
8
0
10
1.0927847E-6
20
-25.0
30
-1250.0
11
0.0
21
0.0
31
-1250.0
0
LINE
8
0
10
0.0
20
0.0
30
-1225.0
11
800.0
21
0.0
31
-1225.0
0
LINE
8
0
10
800.0
20
0.0
30
-1225.0
11
800.0
21
-25.0
31
-1225.0
0
LINE
8
0
10
800.0
20
-25.0
30
-1225.0
11
1.0927847E-6
21
-25.0
31
-1225.0
0
LINE
8
0
10
1.0927847E-6
20
-25.0
30
-1225.0
11
0.0
21
0.0
31
-1225.0
0
LINE
8
0
10
0.0
20
0.0
30
-1250.0
11
0.0
21
0.0
31
-1225.0
0
LINE
8
0
10
800.0
20
0.0
30
-1250.0
11
800.0
21
0.0
31
-1225.0
0
LINE
8
0
10
800.0
20
-25.0
30
-1250.0
11
800.0
21
-25.0
31
-1225.0
0
LINE
8
0
10
1.0927847E-6
20
-25.0
30
-1250.0
11
1.0927847E-6
21
-25.0
31
-1225.0
0
LINE
8
0
10
800.0
20
0.0
30
-1250.0
11
1674.0
21
0.0
31
-1250.0
0
LINE
8
0
10
1674.0
20
0.0
30
-1250.0
11
1674.0
21
-25.0
31
-1250.0
0
LINE
8
0
10
1674.0
20
-25.0
30
-1250.0
11
800.0
21
-25.0
31
-1250.0
0
LINE
8
0
10
800.0
20
-25.0
30
-1250.0
11
800.0
21
0.0
31
-1250.0
0
LINE
8
0
10
800.0
20
0.0
30
-1225.0
11
1674.0
21
0.0
31
-1225.0
0
LINE
8
0
10
1674.0
20
0.0
30
-1225.0
11
1674.0
21
-25.0
31
-1225.0
0
LINE
8
0
10
1674.0
20
-25.0
30
-1225.0
11
800.0
21
-25.0
31
-1225.0
0
LINE
8
0
10
800.0
20
-25.0
30
-1225.0
11
800.0
21
0.0
31
-1225.0
0
LINE
8
0
10
800.0
20
0.0
30
-1250.0
11
800.0
21
0.0
31
-1225.0
0
LINE
8
0
10
1674.0
20
0.0
30
-1250.0
11
1674.0
21
0.0
31
-1225.0
0
LINE
8
0
10
1674.0
20
-25.0
30
-1250.0
11
1674.0
21
-25.0
31
-1225.0
0
LINE
8
0
10
800.0
20
-25.0
30
-1250.0
11
800.0
21
-25.0
31
-1225.0
0
LINE
8
0
10
0.0
20
0.0
30
-1225.0
11
546.0
21
0.0
31
-1225.0
0
LINE
8
0
10
546.0
20
0.0
30
-1225.0
11
546.0
21
-25.0
31
-1225.0
0
LINE
8
0
10
546.0
20
-25.0
30
-1225.0
11
1.0927847E-6
21
-25.0
31
-1225.0
0
LINE
8
0
10
1.0927847E-6
20
-25.0
30
-1225.0
11
0.0
21
0.0
31
-1225.0
0
LINE
8
0
10
0.0
20
0.0
30
-1200.0
11
546.0
21
0.0
31
-1200.0
0
LINE
8
0
10
546.0
20
0.0
30
-1200.0
11
546.0
21
-25.0
31
-1200.0
0
LINE
8
0
10
546.0
20
-25.0
30
-1200.0
11
1.0927847E-6
21
-25.0
31
-1200.0
0
LINE
8
0
10
1.0927847E-6
20
-25.0
30
-1200.0
11
0.0
21
0.0
31
-1200.0
0
LINE
8
0
10
0.0
20
0.0
30
-1225.0
11
0.0
21
0.0
31
-1200.0
0
LINE
8
0
10
546.0
20
0.0
30
-1225.0
11
546.0
21
0.0
31
-1200.0
0
LINE
8
0
10
546.0
20
-25.0
30
-1225.0
11
546.0
21
-25.0
31
-1200.0
0
LINE
8
0
10
1.0927847E-6
20
-25.0
30
-1225.0
11
1.0927847E-6
21
-25.0
31
-1200.0
0
LINE
8
0
10
546.0
20
0.0
30
-1225.0
11
1674.0
21
0.0
31
-1225.0
0
LINE
8
0
10
1674.0
20
0.0
30
-1225.0
11
1674.0
21
-25.0
31
-1225.0
0
LINE
8
0
10
1674.0
20
-25.0
30
-1225.0
11
546.0
21
-25.0
31
-1225.0
0
LINE
8
0
10
546.0
20
-25.0
30
-1225.0
11
546.0
21
0.0
31
-1225.0
0
LINE
8
0
10
546.0
20
0.0
30
-1200.0
11
1674.0
21
0.0
31
-1200.0
0
LINE
8
0
10
1674.0
20
0.0
30
-1200.0
11
1674.0
21
-25.0
31
-1200.0
0
LINE
8
0
10
1674.0
20
-25.0
30
-1200.0
11
546.0
21
-25.0
31
-1200.0
0
LINE
8
0
10
546.0
20
-25.0
30
-1200.0
11
546.0
21
0.0
31
-1200.0
0
LINE
8
0
10
546.0
20
0.0
30
-1225.0
11
546.0
21
0.0
31
-1200.0
0
LINE
8
0
10
1674.0
20
0.0
30
-1225.0
11
1674.0
21
0.0
31
-1200.0
0
LINE
8
0
10
1674.0
20
-25.0
30
-1225.0
11
1674.0
21
-25.0
31
-1200.0
0
LINE
8
0
10
546.0
20
-25.0
30
-1225.0
11
546.0
21
-25.0
31
-1200.0
0
LINE
8
0
10
0.0
20
0.0
30
-1200.0
11
765.0
21
0.0
31
-1200.0
0
LINE
8
0
10
765.0
20
0.0
30
-1200.0
11
765.0
21
-25.0
31
-1200.0
0
LINE
8
0
10
765.0
20
-25.0
30
-1200.0
11
1.0927847E-6
21
-25.0
31
-1200.0
0
LINE
8
0
10
1.0927847E-6
20
-25.0
30
-1200.0
11
0.0
21
0.0
31
-1200.0
0
LINE
8
0
10
0.0
20
0.0
30
-1175.0
11
765.0
21
0.0
31
-1175.0
0
LINE
8
0
10
765.0
20
0.0
30
-1175.0
11
765.0
21
-25.0
31
-1175.0
0
LINE
8
0
10
765.0
20
-25.0
30
-1175.0
11
1.0927847E-6
21
-25.0
31
-1175.0
0
LINE
8
0
10
1.0927847E-6
20
-25.0
30
-1175.0
11
0.0
21
0.0
31
-1175.0
0
LINE
8
0
10
0.0
20
0.0
30
-1200.0
11
0.0
21
0.0
31
-1175.0
0
LINE
8
0
10
765.0
20
0.0
30
-1200.0
11
765.0
21
0.0
31
-1175.0
0
LINE
8
0
10
765.0
20
-25.0
30
-1200.0
11
765.0
21
-25.0
31
-1175.0
0
LINE
8
0
10
1.0927847E-6
20
-25.0
30
-1200.0
11
1.0927847E-6
21
-25.0
31
-1175.0
0
LINE
8
0
10
765.0
20
0.0
30
-1200.0
11
1674.0
21
0.0
31
-1200.0
0
LINE
8
0
10
1674.0
20
0.0
30
-1200.0
11
1674.0
21
-25.0
31
-1200.0
0
LINE
8
0
10
1674.0
20
-25.0
30
-1200.0
11
765.0
21
-25.0
31
-1200.0
0
LINE
8
0
10
765.0
20
-25.0
30
-1200.0
11
765.0
21
0.0
31
-1200.0
0
LINE
8
0
10
765.0
20
0.0
30
-1175.0
11
1674.0
21
0.0
31
-1175.0
0
LINE
8
0
10
1674.0
20
0.0
30
-1175.0
11
1674.0
21
-25.0
31
-1175.0
0
LINE
8
0
10
1674.0
20
-25.0
30
-1175.0
11
765.0
21
-25.0
31
-1175.0
0
LINE
8
0
10
765.0
20
-25.0
30
-1175.0
11
765.0
21
0.0
31
-1175.0
0
LINE
8
0
10
765.0
20
0.0
30
-1200.0
11
765.0
21
0.0
31
-1175.0
0
LINE
8
0
10
1674.0
20
0.0
30
-1200.0
11
1674.0
21
0.0
31
-1175.0
0
LINE
8
0
10
1674.0
20
-25.0
30
-1200.0
11
1674.0
21
-25.0
31
-1175.0
0
LINE
8
0
10
765.0
20
-25.0
30
-1200.0
11
765.0
21
-25.0
31
-1175.0
0
LINE
8
0
10
0.0
20
0.0
30
-1175.0
11
580.0
21
0.0
31
-1175.0
0
LINE
8
0
10
580.0
20
0.0
30
-1175.0
11
580.0
21
-25.0
31
-1175.0
0
LINE
8
0
10
580.0
20
-25.0
30
-1175.0
11
1.0927847E-6
21
-25.0
31
-1175.0
0
LINE
8
0
10
1.0927847E-6
20
-25.0
30
-1175.0
11
0.0
21
0.0
31
-1175.0
0
LINE
8
0
10
0.0
20
0.0
30
-1150.0
11
580.0
21
0.0
31
-1150.0
0
LINE
8
0
10
580.0
20
0.0
30
-1150.0
11
580.0
21
-25.0
31
-1150.0
0
LINE
8
0
10
580.0
20
-25.0
30
-1150.0
11
1.0927847E-6
21
-25.0
31
-1150.0
0
LINE
8
0
10
1.0927847E-6
20
-25.0
30
-1150.0
11
0.0
21
0.0
31
-1150.0
0
LINE
8
0
10
0.0
20
0.0
30
-1175.0
11
0.0
21
0.0
31
-1150.0
0
LINE
8
0
10
580.0
20
0.0
30
-1175.0
11
580.0
21
0.0
31
-1150.0
0
LINE
8
0
10
580.0
20
-25.0
30
-1175.0
11
580.0
21
-25.0
31
-1150.0
0
LINE
8
0
10
1.0927847E-6
20
-25.0
30
-1175.0
11
1.0927847E-6
21
-25.0
31
-1150.0
0
LINE
8
0
10
580.0
20
0.0
30
-1175.0
11
1674.0
21
0.0
31
-1175.0
0
LINE
8
0
10
1674.0
20
0.0
30
-1175.0
11
1674.0
21
-25.0
31
-1175.0
0
LINE
8
0
10
1674.0
20
-25.0
30
-1175.0
11
580.0
21
-25.0
31
-1175.0
0
LINE
8
0
10
580.0
20
-25.0
30
-1175.0
11
580.0
21
0.0
31
-1175.0
0
LINE
8
0
10
580.0
20
0.0
30
-1150.0
11
1674.0
21
0.0
31
-1150.0
0
LINE
8
0
10
1674.0
20
0.0
30
-1150.0
11
1674.0
21
-25.0
31
-1150.0
0
LINE
8
0
10
1674.0
20
-25.0
30
-1150.0
11
580.0
21
-25.0
31
-1150.0
0
LINE
8
0
10
580.0
20
-25.0
30
-1150.0
11
580.0
21
0.0
31
-1150.0
0
LINE
8
0
10
580.0
20
0.0
30
-1175.0
11
580.0
21
0.0
31
-1150.0
0
LINE
8
0
10
1674.0
20
0.0
30
-1175.0
11
1674.0
21
0.0
31
-1150.0
0
LINE
8
0
10
1674.0
20
-25.0
30
-1175.0
11
1674.0
21
-25.0
31
-1150.0
0
LINE
8
0
10
580.0
20
-25.0
30
-1175.0
11
580.0
21
-25.0
31
-1150.0
0
LINE
8
0
10
0.0
20
0.0
30
-1150.0
11
723.0
21
0.0
31
-1150.0
0
LINE
8
0
10
723.0
20
0.0
30
-1150.0
11
723.0
21
-25.0
31
-1150.0
0
LINE
8
0
10
723.0
20
-25.0
30
-1150.0
11
1.0927847E-6
21
-25.0
31
-1150.0
0
LINE
8
0
10
1.0927847E-6
20
-25.0
30
-1150.0
11
0.0
21
0.0
31
-1150.0
0
LINE
8
0
10
0.0
20
0.0
30
-1125.0
11
723.0
21
0.0
31
-1125.0
0
LINE
8
0
10
723.0
20
0.0
30
-1125.0
11
723.0
21
-25.0
31
-1125.0
0
LINE
8
0
10
723.0
20
-25.0
30
-1125.0
11
1.0927847E-6
21
-25.0
31
-1125.0
0
LINE
8
0
10
1.0927847E-6
20
-25.0
30
-1125.0
11
0.0
21
0.0
31
-1125.0
0
LINE
8
0
10
0.0
20
0.0
30
-1150.0
11
0.0
21
0.0
31
-1125.0
0
LINE
8
0
10
723.0
20
0.0
30
-1150.0
11
723.0
21
0.0
31
-1125.0
0
LINE
8
0
10
723.0
20
-25.0
30
-1150.0
11
723.0
21
-25.0
31
-1125.0
0
LINE
8
0
10
1.0927847E-6
20
-25.0
30
-1150.0
11
1.0927847E-6
21
-25.0
31
-1125.0
0
LINE
8
0
10
723.0
20
0.0
30
-1150.0
11
1674.0
21
0.0
31
-1150.0
0
LINE
8
0
10
1674.0
20
0.0
30
-1150.0
11
1674.0
21
-25.0
31
-1150.0
0
LINE
8
0
10
1674.0
20
-25.0
30
-1150.0
11
723.0
21
-25.0
31
-1150.0
0
LINE
8
0
10
723.0
20
-25.0
30
-1150.0
11
723.0
21
0.0
31
-1150.0
0
LINE
8
0
10
723.0
20
0.0
30
-1125.0
11
1674.0
21
0.0
31
-1125.0
0
LINE
8
0
10
1674.0
20
0.0
30
-1125.0
11
1674.0
21
-25.0
31
-1125.0
0
LINE
8
0
10
1674.0
20
-25.0
30
-1125.0
11
723.0
21
-25.0
31
-1125.0
0
LINE
8
0
10
723.0
20
-25.0
30
-1125.0
11
723.0
21
0.0
31
-1125.0
0
LINE
8
0
10
723.0
20
0.0
30
-1150.0
11
723.0
21
0.0
31
-1125.0
0
LINE
8
0
10
1674.0
20
0.0
30
-1150.0
11
1674.0
21
0.0
31
-1125.0
0
LINE
8
0
10
1674.0
20
-25.0
30
-1150.0
11
1674.0
21
-25.0
31
-1125.0
0
LINE
8
0
10
723.0
20
-25.0
30
-1150.0
11
723.0
21
-25.0
31
-1125.0
0
LINE
8
0
10
0.0
20
0.0
30
-1125.0
11
624.0
21
0.0
31
-1125.0
0
LINE
8
0
10
624.0
20
0.0
30
-1125.0
11
624.0
21
-25.0
31
-1125.0
0
LINE
8
0
10
624.0
20
-25.0
30
-1125.0
11
1.0927847E-6
21
-25.0
31
-1125.0
0
LINE
8
0
10
1.0927847E-6
20
-25.0
30
-1125.0
11
0.0
21
0.0
31
-1125.0
0
LINE
8
0
10
0.0
20
0.0
30
-1100.0
11
624.0
21
0.0
31
-1100.0
0
LINE
8
0
10
624.0
20
0.0
30
-1100.0
11
624.0
21
-25.0
31
-1100.0
0
LINE
8
0
10
624.0
20
-25.0
30
-1100.0
11
1.0927847E-6
21
-25.0
31
-1100.0
0
LINE
8
0
10
1.0927847E-6
20
-25.0
30
-1100.0
11
0.0
21
0.0
31
-1100.0
0
LINE
8
0
10
0.0
20
0.0
30
-1125.0
11
0.0
21
0.0
31
-1100.0
0
LINE
8
0
10
624.0
20
0.0
30
-1125.0
11
624.0
21
0.0
31
-1100.0
0
LINE
8
0
10
624.0
20
-25.0
30
-1125.0
11
624.0
21
-25.0
31
-1100.0
0
LINE
8
0
10
1.0927847E-6
20
-25.0
30
-1125.0
11
1.0927847E-6
21
-25.0
31
-1100.0
0
LINE
8
0
10
624.0
20
0.0
30
-1125.0
11
1674.0
21
0.0
31
-1125.0
0
LINE
8
0
10
1674.0
20
0.0
30
-1125.0
11
1674.0
21
-25.0
31
-1125.0
0
LINE
8
0
10
1674.0
20
-25.0
30
-1125.0
11
624.0
21
-25.0
31
-1125.0
0
LINE
8
0
10
624.0
20
-25.0
30
-1125.0
11
624.0
21
0.0
31
-1125.0
0
LINE
8
0
10
624.0
20
0.0
30
-1100.0
11
1674.0
21
0.0
31
-1100.0
0
LINE
8
0
10
1674.0
20
0.0
30
-1100.0
11
1674.0
21
-25.0
31
-1100.0
0
LINE
8
0
10
1674.0
20
-25.0
30
-1100.0
11
624.0
21
-25.0
31
-1100.0
0
LINE
8
0
10
624.0
20
-25.0
30
-1100.0
11
624.0
21
0.0
31
-1100.0
0
LINE
8
0
10
624.0
20
0.0
30
-1125.0
11
624.0
21
0.0
31
-1100.0
0
LINE
8
0
10
1674.0
20
0.0
30
-1125.0
11
1674.0
21
0.0
31
-1100.0
0
LINE
8
0
10
1674.0
20
-25.0
30
-1125.0
11
1674.0
21
-25.0
31
-1100.0
0
LINE
8
0
10
624.0
20
-25.0
30
-1125.0
11
624.0
21
-25.0
31
-1100.0
0
LINE
8
0
10
0.0
20
0.0
30
-1100.0
11
673.0
21
0.0
31
-1100.0
0
LINE
8
0
10
673.0
20
0.0
30
-1100.0
11
673.0
21
-25.0
31
-1100.0
0
LINE
8
0
10
673.0
20
-25.0
30
-1100.0
11
1.0927847E-6
21
-25.0
31
-1100.0
0
LINE
8
0
10
1.0927847E-6
20
-25.0
30
-1100.0
11
0.0
21
0.0
31
-1100.0
0
LINE
8
0
10
0.0
20
0.0
30
-1075.0
11
673.0
21
0.0
31
-1075.0
0
LINE
8
0
10
673.0
20
0.0
30
-1075.0
11
673.0
21
-25.0
31
-1075.0
0
LINE
8
0
10
673.0
20
-25.0
30
-1075.0
11
1.0927847E-6
21
-25.0
31
-1075.0
0
LINE
8
0
10
1.0927847E-6
20
-25.0
30
-1075.0
11
0.0
21
0.0
31
-1075.0
0
LINE
8
0
10
0.0
20
0.0
30
-1100.0
11
0.0
21
0.0
31
-1075.0
0
LINE
8
0
10
673.0
20
0.0
30
-1100.0
11
673.0
21
0.0
31
-1075.0
0
LINE
8
0
10
673.0
20
-25.0
30
-1100.0
11
673.0
21
-25.0
31
-1075.0
0
LINE
8
0
10
1.0927847E-6
20
-25.0
30
-1100.0
11
1.0927847E-6
21
-25.0
31
-1075.0
0
LINE
8
0
10
673.0
20
0.0
30
-1100.0
11
1674.0
21
0.0
31
-1100.0
0
LINE
8
0
10
1674.0
20
0.0
30
-1100.0
11
1674.0
21
-25.0
31
-1100.0
0
LINE
8
0
10
1674.0
20
-25.0
30
-1100.0
11
673.0
21
-25.0
31
-1100.0
0
LINE
8
0
10
673.0
20
-25.0
30
-1100.0
11
673.0
21
0.0
31
-1100.0
0
LINE
8
0
10
673.0
20
0.0
30
-1075.0
11
1674.0
21
0.0
31
-1075.0
0
LINE
8
0
10
1674.0
20
0.0
30
-1075.0
11
1674.0
21
-25.0
31
-1075.0
0
LINE
8
0
10
1674.0
20
-25.0
30
-1075.0
11
673.0
21
-25.0
31
-1075.0
0
LINE
8
0
10
673.0
20
-25.0
30
-1075.0
11
673.0
21
0.0
31
-1075.0
0
LINE
8
0
10
673.0
20
0.0
30
-1100.0
11
673.0
21
0.0
31
-1075.0
0
LINE
8
0
10
1674.0
20
0.0
30
-1100.0
11
1674.0
21
0.0
31
-1075.0
0
LINE
8
0
10
1674.0
20
-25.0
30
-1100.0
11
1674.0
21
-25.0
31
-1075.0
0
LINE
8
0
10
673.0
20
-25.0
30
-1100.0
11
673.0
21
-25.0
31
-1075.0
0
ENDSEC
0
EOF
