0
SECTION
2
ENTITIES
0
LINE
8
0
10
-1.4352622
20
16.909763
30
-2000.0
11
755.9677
21
-637.67847
31
-2000.0
0
LINE
8
0
10
755.9677
20
-637.67847
30
-2000.0
11
739.62054
21
-656.59326
31
-2000.0
0
LINE
8
0
10
739.62054
20
-656.59326
30
-2000.0
11
-17.782444
21
-2.0050354
31
-2000.0
0
LINE
8
0
10
-17.782444
20
-2.0050354
30
-2000.0
11
-1.4352622
21
16.909763
31
-2000.0
0
LINE
8
0
10
-1.4352622
20
16.909763
30
-1975.0
11
755.9677
21
-637.67847
31
-1975.0
0
LINE
8
0
10
755.9677
20
-637.67847
30
-1975.0
11
739.62054
21
-656.59326
31
-1975.0
0
LINE
8
0
10
739.62054
20
-656.59326
30
-1975.0
11
-17.782444
21
-2.0050354
31
-1975.0
0
LINE
8
0
10
-17.782444
20
-2.0050354
30
-1975.0
11
-1.4352622
21
16.909763
31
-1975.0
0
LINE
8
0
10
-1.4352622
20
16.909763
30
-2000.0
11
-1.4352622
21
16.909763
31
-1975.0
0
LINE
8
0
10
755.9677
20
-637.67847
30
-2000.0
11
755.9677
21
-637.67847
31
-1975.0
0
LINE
8
0
10
739.62054
20
-656.59326
30
-2000.0
11
739.62054
21
-656.59326
31
-1975.0
0
LINE
8
0
10
-17.782444
20
-2.0050354
30
-2000.0
11
-17.782444
21
-2.0050354
31
-1975.0
0
LINE
8
0
10
921.5828
20
14.736045
30
-2000.0
11
755.9677
21
-637.67847
31
-2000.0
0
LINE
8
0
10
755.9677
20
-637.67847
30
-2000.0
11
780.19916
21
-643.82965
31
-2000.0
0
LINE
8
0
10
780.19916
20
-643.82965
30
-2000.0
11
945.8143
21
8.58489
31
-2000.0
0
LINE
8
0
10
945.8143
20
8.58489
30
-2000.0
11
921.5828
21
14.736045
31
-2000.0
0
LINE
8
0
10
921.5828
20
14.736045
30
-1975.0
11
755.9677
21
-637.67847
31
-1975.0
0
LINE
8
0
10
755.9677
20
-637.67847
30
-1975.0
11
780.19916
21
-643.82965
31
-1975.0
0
LINE
8
0
10
780.19916
20
-643.82965
30
-1975.0
11
945.8143
21
8.58489
31
-1975.0
0
LINE
8
0
10
945.8143
20
8.58489
30
-1975.0
11
921.5828
21
14.736045
31
-1975.0
0
LINE
8
0
10
921.5828
20
14.736045
30
-2000.0
11
921.5828
21
14.736045
31
-1975.0
0
LINE
8
0
10
755.9677
20
-637.67847
30
-2000.0
11
755.9677
21
-637.67847
31
-1975.0
0
LINE
8
0
10
780.19916
20
-643.82965
30
-2000.0
11
780.19916
21
-643.82965
31
-1975.0
0
LINE
8
0
10
945.8143
20
8.58489
30
-2000.0
11
945.8143
21
8.58489
31
-1975.0
0
LINE
8
0
10
-2.7148209
20
16.752008
30
-1974.0
11
841.129
21
-606.5236
31
-1974.0
0
LINE
8
0
10
841.129
20
-606.5236
30
-1974.0
11
826.27594
21
-626.633
31
-1974.0
0
LINE
8
0
10
826.27594
20
-626.633
30
-1974.0
11
-17.567894
21
-3.3573494
31
-1974.0
0
LINE
8
0
10
-17.567894
20
-3.3573494
30
-1974.0
11
-2.7148209
21
16.752008
31
-1974.0
0
LINE
8
0
10
-2.7148209
20
16.752008
30
-1949.0
11
841.129
21
-606.5236
31
-1949.0
0
LINE
8
0
10
841.129
20
-606.5236
30
-1949.0
11
826.27594
21
-626.633
31
-1949.0
0
LINE
8
0
10
826.27594
20
-626.633
30
-1949.0
11
-17.567894
21
-3.3573494
31
-1949.0
0
LINE
8
0
10
-17.567894
20
-3.3573494
30
-1949.0
11
-2.7148209
21
16.752008
31
-1949.0
0
LINE
8
0
10
-2.7148209
20
16.752008
30
-1974.0
11
-2.7148209
21
16.752008
31
-1949.0
0
LINE
8
0
10
841.129
20
-606.5236
30
-1974.0
11
841.129
21
-606.5236
31
-1949.0
0
LINE
8
0
10
826.27594
20
-626.633
30
-1974.0
11
826.27594
21
-626.633
31
-1949.0
0
LINE
8
0
10
-17.567894
20
-3.3573494
30
-1974.0
11
-17.567894
21
-3.3573494
31
-1949.0
0
LINE
8
0
10
919.8665
20
13.6129465
30
-1974.0
11
841.129
21
-606.5236
31
-1974.0
0
LINE
8
0
10
841.129
20
-606.5236
30
-1974.0
11
865.92993
21
-609.67255
31
-1974.0
0
LINE
8
0
10
865.92993
20
-609.67255
30
-1974.0
11
944.6674
21
10.46402
31
-1974.0
0
LINE
8
0
10
944.6674
20
10.46402
30
-1974.0
11
919.8665
21
13.6129465
31
-1974.0
0
LINE
8
0
10
919.8665
20
13.6129465
30
-1949.0
11
841.129
21
-606.5236
31
-1949.0
0
LINE
8
0
10
841.129
20
-606.5236
30
-1949.0
11
865.92993
21
-609.67255
31
-1949.0
0
LINE
8
0
10
865.92993
20
-609.67255
30
-1949.0
11
944.6674
21
10.46402
31
-1949.0
0
LINE
8
0
10
944.6674
20
10.46402
30
-1949.0
11
919.8665
21
13.6129465
31
-1949.0
0
LINE
8
0
10
919.8665
20
13.6129465
30
-1974.0
11
919.8665
21
13.6129465
31
-1949.0
0
LINE
8
0
10
841.129
20
-606.5236
30
-1974.0
11
841.129
21
-606.5236
31
-1949.0
0
LINE
8
0
10
865.92993
20
-609.67255
30
-1974.0
11
865.92993
21
-609.67255
31
-1949.0
0
LINE
8
0
10
944.6674
20
10.46402
30
-1974.0
11
944.6674
21
10.46402
31
-1949.0
0
LINE
8
0
10
-0.084160805
20
16.970352
30
-1948.0
11
667.25806
21
-660.6721
31
-1948.0
0
LINE
8
0
10
667.25806
20
-660.6721
30
-1948.0
11
649.4455
21
-678.21387
31
-1948.0
0
LINE
8
0
10
649.4455
20
-678.21387
30
-1948.0
11
-17.896694
21
-0.57141685
31
-1948.0
0
LINE
8
0
10
-17.896694
20
-0.57141685
30
-1948.0
11
-0.084160805
21
16.970352
31
-1948.0
0
LINE
8
0
10
-0.084160805
20
16.970352
30
-1923.0
11
667.25806
21
-660.6721
31
-1923.0
0
LINE
8
0
10
667.25806
20
-660.6721
30
-1923.0
11
649.4455
21
-678.21387
31
-1923.0
0
LINE
8
0
10
649.4455
20
-678.21387
30
-1923.0
11
-17.896694
21
-0.57141685
31
-1923.0
0
LINE
8
0
10
-17.896694
20
-0.57141685
30
-1923.0
11
-0.084160805
21
16.970352
31
-1923.0
0
LINE
8
0
10
-0.084160805
20
16.970352
30
-1948.0
11
-0.084160805
21
16.970352
31
-1923.0
0
LINE
8
0
10
667.25806
20
-660.6721
30
-1948.0
11
667.25806
21
-660.6721
31
-1923.0
0
LINE
8
0
10
649.4455
20
-678.21387
30
-1948.0
11
649.4455
21
-678.21387
31
-1923.0
0
LINE
8
0
10
-17.896694
20
-0.57141685
30
-1948.0
11
-17.896694
21
-0.57141685
31
-1923.0
0
LINE
8
0
10
923.2839
20
15.585051
30
-1948.0
11
667.25806
21
-660.6721
31
-1948.0
0
LINE
8
0
10
667.25806
20
-660.6721
30
-1948.0
11
690.63855
21
-669.5238
31
-1948.0
0
LINE
8
0
10
690.63855
20
-669.5238
30
-1948.0
11
946.66437
21
6.7333612
31
-1948.0
0
LINE
8
0
10
946.66437
20
6.7333612
30
-1948.0
11
923.2839
21
15.585051
31
-1948.0
0
LINE
8
0
10
923.2839
20
15.585051
30
-1923.0
11
667.25806
21
-660.6721
31
-1923.0
0
LINE
8
0
10
667.25806
20
-660.6721
30
-1923.0
11
690.63855
21
-669.5238
31
-1923.0
0
LINE
8
0
10
690.63855
20
-669.5238
30
-1923.0
11
946.66437
21
6.7333612
31
-1923.0
0
LINE
8
0
10
946.66437
20
6.7333612
30
-1923.0
11
923.2839
21
15.585051
31
-1923.0
0
LINE
8
0
10
923.2839
20
15.585051
30
-1948.0
11
923.2839
21
15.585051
31
-1923.0
0
LINE
8
0
10
667.25806
20
-660.6721
30
-1948.0
11
667.25806
21
-660.6721
31
-1923.0
0
LINE
8
0
10
690.63855
20
-669.5238
30
-1948.0
11
690.63855
21
-669.5238
31
-1923.0
0
LINE
8
0
10
946.66437
20
6.7333612
30
-1948.0
11
946.66437
21
6.7333612
31
-1923.0
0
LINE
8
0
10
-3.8617516
20
16.525341
30
-1922.0
11
917.4194
21
-569.86115
31
-1922.0
0
LINE
8
0
10
917.4194
20
-569.86115
30
-1922.0
11
903.9956
21
-590.9515
31
-1922.0
0
LINE
8
0
10
903.9956
20
-590.9515
30
-1922.0
11
-17.28554
21
-4.5649853
31
-1922.0
0
LINE
8
0
10
-17.28554
20
-4.5649853
30
-1922.0
11
-3.8617516
21
16.525341
31
-1922.0
0
LINE
8
0
10
-3.8617516
20
16.525341
30
-1897.0
11
917.4194
21
-569.86115
31
-1897.0
0
LINE
8
0
10
917.4194
20
-569.86115
30
-1897.0
11
903.9956
21
-590.9515
31
-1897.0
0
LINE
8
0
10
903.9956
20
-590.9515
30
-1897.0
11
-17.28554
21
-4.5649853
31
-1897.0
0
LINE
8
0
10
-17.28554
20
-4.5649853
30
-1897.0
11
-3.8617516
21
16.525341
31
-1897.0
0
LINE
8
0
10
-3.8617516
20
16.525341
30
-1922.0
11
-3.8617516
21
16.525341
31
-1897.0
0
LINE
8
0
10
917.4194
20
-569.86115
30
-1922.0
11
917.4194
21
-569.86115
31
-1897.0
0
LINE
8
0
10
903.9956
20
-590.9515
30
-1922.0
11
903.9956
21
-590.9515
31
-1897.0
0
LINE
8
0
10
-17.28554
20
-4.5649853
30
-1922.0
11
-17.28554
21
-4.5649853
31
-1897.0
0
LINE
8
0
10
918.26776
20
12.261938
30
-1922.0
11
917.4194
21
-569.86115
31
-1922.0
0
LINE
8
0
10
917.4194
20
-569.86115
30
-1922.0
11
942.4194
21
-569.8976
31
-1922.0
0
LINE
8
0
10
942.4194
20
-569.8976
30
-1922.0
11
943.26776
21
12.2255
31
-1922.0
0
LINE
8
0
10
943.26776
20
12.2255
30
-1922.0
11
918.26776
21
12.261938
31
-1922.0
0
LINE
8
0
10
918.26776
20
12.261938
30
-1897.0
11
917.4194
21
-569.86115
31
-1897.0
0
LINE
8
0
10
917.4194
20
-569.86115
30
-1897.0
11
942.4194
21
-569.8976
31
-1897.0
0
LINE
8
0
10
942.4194
20
-569.8976
30
-1897.0
11
943.26776
21
12.2255
31
-1897.0
0
LINE
8
0
10
943.26776
20
12.2255
30
-1897.0
11
918.26776
21
12.261938
31
-1897.0
0
LINE
8
0
10
918.26776
20
12.261938
30
-1922.0
11
918.26776
21
12.261938
31
-1897.0
0
LINE
8
0
10
917.4194
20
-569.86115
30
-1922.0
11
917.4194
21
-569.86115
31
-1897.0
0
LINE
8
0
10
942.4194
20
-569.8976
30
-1922.0
11
942.4194
21
-569.8976
31
-1897.0
0
LINE
8
0
10
943.26776
20
12.2255
30
-1922.0
11
943.26776
21
12.2255
31
-1897.0
0
LINE
8
0
10
1.0770316
20
16.93635
30
-1896.0
11
592.74194
21
-673.2503
31
-1896.0
0
LINE
8
0
10
592.74194
20
-673.2503
30
-1896.0
11
573.76154
21
-689.5213
31
-1896.0
0
LINE
8
0
10
573.76154
20
-689.5213
30
-1896.0
11
-17.903349
21
0.6653595
31
-1896.0
0
LINE
8
0
10
-17.903349
20
0.6653595
30
-1896.0
11
1.0770316
21
16.93635
31
-1896.0
0
LINE
8
0
10
1.0770316
20
16.93635
30
-1871.0
11
592.74194
21
-673.2503
31
-1871.0
0
LINE
8
0
10
592.74194
20
-673.2503
30
-1871.0
11
573.76154
21
-689.5213
31
-1871.0
0
LINE
8
0
10
573.76154
20
-689.5213
30
-1871.0
11
-17.903349
21
0.6653595
31
-1871.0
0
LINE
8
0
10
-17.903349
20
0.6653595
30
-1871.0
11
1.0770316
21
16.93635
31
-1871.0
0
LINE
8
0
10
1.0770316
20
16.93635
30
-1896.0
11
1.0770316
21
16.93635
31
-1871.0
0
LINE
8
0
10
592.74194
20
-673.2503
30
-1896.0
11
592.74194
21
-673.2503
31
-1871.0
0
LINE
8
0
10
573.76154
20
-689.5213
30
-1896.0
11
573.76154
21
-689.5213
31
-1871.0
0
LINE
8
0
10
-17.903349
20
0.6653595
30
-1896.0
11
-17.903349
21
0.6653595
31
-1871.0
0
LINE
8
0
10
924.64557
20
16.103724
30
-1896.0
11
592.74194
21
-673.2503
31
-1896.0
0
LINE
8
0
10
592.74194
20
-673.2503
30
-1896.0
11
615.2671
21
-684.0955
31
-1896.0
0
LINE
8
0
10
615.2671
20
-684.0955
30
-1896.0
11
947.1707
21
5.25852
31
-1896.0
0
LINE
8
0
10
947.1707
20
5.25852
30
-1896.0
11
924.64557
21
16.103724
31
-1896.0
0
LINE
8
0
10
924.64557
20
16.103724
30
-1871.0
11
592.74194
21
-673.2503
31
-1871.0
0
LINE
8
0
10
592.74194
20
-673.2503
30
-1871.0
11
615.2671
21
-684.0955
31
-1871.0
0
LINE
8
0
10
615.2671
20
-684.0955
30
-1871.0
11
947.1707
21
5.25852
31
-1871.0
0
LINE
8
0
10
947.1707
20
5.25852
30
-1871.0
11
924.64557
21
16.103724
31
-1871.0
0
LINE
8
0
10
924.64557
20
16.103724
30
-1896.0
11
924.64557
21
16.103724
31
-1871.0
0
LINE
8
0
10
592.74194
20
-673.2503
30
-1896.0
11
592.74194
21
-673.2503
31
-1871.0
0
LINE
8
0
10
615.2671
20
-684.0955
30
-1896.0
11
615.2671
21
-684.0955
31
-1871.0
0
LINE
8
0
10
947.1707
20
5.25852
30
-1896.0
11
947.1707
21
5.25852
31
-1871.0
0
LINE
8
0
10
-4.72675
20
16.299015
30
-1870.0
11
974.19354
21
-536.1818
31
-1870.0
0
LINE
8
0
10
974.19354
20
-536.1818
30
-1870.0
11
961.90594
21
-557.95374
31
-1870.0
0
LINE
8
0
10
961.90594
20
-557.95374
30
-1870.0
11
-17.014332
21
-5.4728775
31
-1870.0
0
LINE
8
0
10
-17.014332
20
-5.4728775
30
-1870.0
11
-4.72675
21
16.299015
31
-1870.0
0
LINE
8
0
10
-4.72675
20
16.299015
30
-1845.0
11
974.19354
21
-536.1818
31
-1845.0
0
LINE
8
0
10
974.19354
20
-536.1818
30
-1845.0
11
961.90594
21
-557.95374
31
-1845.0
0
LINE
8
0
10
961.90594
20
-557.95374
30
-1845.0
11
-17.014332
21
-5.4728775
31
-1845.0
0
LINE
8
0
10
-17.014332
20
-5.4728775
30
-1845.0
11
-4.72675
21
16.299015
31
-1845.0
0
LINE
8
0
10
-4.72675
20
16.299015
30
-1870.0
11
-4.72675
21
16.299015
31
-1845.0
0
LINE
8
0
10
974.19354
20
-536.1818
30
-1870.0
11
974.19354
21
-536.1818
31
-1845.0
0
LINE
8
0
10
961.90594
20
-557.95374
30
-1870.0
11
961.90594
21
-557.95374
31
-1845.0
0
LINE
8
0
10
-17.014332
20
-5.4728775
30
-1870.0
11
-17.014332
21
-5.4728775
31
-1845.0
0
LINE
8
0
10
917.0548
20
10.973715
30
-1870.0
11
974.19354
21
-536.1818
31
-1870.0
0
LINE
8
0
10
974.19354
20
-536.1818
30
-1870.0
11
999.05835
21
-533.5852
31
-1870.0
0
LINE
8
0
10
999.05835
20
-533.5852
30
-1870.0
11
941.9196
21
13.570317
31
-1870.0
0
LINE
8
0
10
941.9196
20
13.570317
30
-1870.0
11
917.0548
21
10.973715
31
-1870.0
0
LINE
8
0
10
917.0548
20
10.973715
30
-1845.0
11
974.19354
21
-536.1818
31
-1845.0
0
LINE
8
0
10
974.19354
20
-536.1818
30
-1845.0
11
999.05835
21
-533.5852
31
-1845.0
0
LINE
8
0
10
999.05835
20
-533.5852
30
-1845.0
11
941.9196
21
13.570317
31
-1845.0
0
LINE
8
0
10
941.9196
20
13.570317
30
-1845.0
11
917.0548
21
10.973715
31
-1845.0
0
LINE
8
0
10
917.0548
20
10.973715
30
-1870.0
11
917.0548
21
10.973715
31
-1845.0
0
LINE
8
0
10
974.19354
20
-536.1818
30
-1870.0
11
974.19354
21
-536.1818
31
-1845.0
0
LINE
8
0
10
999.05835
20
-533.5852
30
-1870.0
11
999.05835
21
-533.5852
31
-1845.0
0
LINE
8
0
10
941.9196
20
13.570317
30
-1870.0
11
941.9196
21
13.570317
31
-1845.0
0
LINE
8
0
10
2.0695543
20
16.8439
30
-1844.0
11
530.64514
21
-679.3083
31
-1844.0
0
LINE
8
0
10
530.64514
20
-679.3083
30
-1844.0
11
510.7342
21
-694.42633
31
-1844.0
0
LINE
8
0
10
510.7342
20
-694.42633
30
-1844.0
11
-17.841385
21
1.7258816
31
-1844.0
0
LINE
8
0
10
-17.841385
20
1.7258816
30
-1844.0
11
2.0695543
21
16.8439
31
-1844.0
0
LINE
8
0
10
2.0695543
20
16.8439
30
-1819.0
11
530.64514
21
-679.3083
31
-1819.0
0
LINE
8
0
10
530.64514
20
-679.3083
30
-1819.0
11
510.7342
21
-694.42633
31
-1819.0
0
LINE
8
0
10
510.7342
20
-694.42633
30
-1819.0
11
-17.841385
21
1.7258816
31
-1819.0
0
LINE
8
0
10
-17.841385
20
1.7258816
30
-1819.0
11
2.0695543
21
16.8439
31
-1819.0
0
LINE
8
0
10
2.0695543
20
16.8439
30
-1844.0
11
2.0695543
21
16.8439
31
-1819.0
0
LINE
8
0
10
530.64514
20
-679.3083
30
-1844.0
11
530.64514
21
-679.3083
31
-1819.0
0
LINE
8
0
10
510.7342
20
-694.42633
30
-1844.0
11
510.7342
21
-694.42633
31
-1819.0
0
LINE
8
0
10
-17.841385
20
1.7258816
30
-1844.0
11
-17.841385
21
1.7258816
31
-1819.0
0
LINE
8
0
10
925.73676
20
16.426342
30
-1844.0
11
530.64514
21
-679.3083
31
-1844.0
0
LINE
8
0
10
530.64514
20
-679.3083
30
-1844.0
11
552.3844
21
-691.6535
31
-1844.0
0
LINE
8
0
10
552.3844
20
-691.6535
30
-1844.0
11
947.476
21
4.0811195
31
-1844.0
0
LINE
8
0
10
947.476
20
4.0811195
30
-1844.0
11
925.73676
21
16.426342
31
-1844.0
0
LINE
8
0
10
925.73676
20
16.426342
30
-1819.0
11
530.64514
21
-679.3083
31
-1819.0
0
LINE
8
0
10
530.64514
20
-679.3083
30
-1819.0
11
552.3844
21
-691.6535
31
-1819.0
0
LINE
8
0
10
552.3844
20
-691.6535
30
-1819.0
11
947.476
21
4.0811195
31
-1819.0
0
LINE
8
0
10
947.476
20
4.0811195
30
-1819.0
11
925.73676
21
16.426342
31
-1819.0
0
LINE
8
0
10
925.73676
20
16.426342
30
-1844.0
11
925.73676
21
16.426342
31
-1819.0
0
LINE
8
0
10
530.64514
20
-679.3083
30
-1844.0
11
530.64514
21
-679.3083
31
-1819.0
0
LINE
8
0
10
552.3844
20
-691.6535
30
-1844.0
11
552.3844
21
-691.6535
31
-1819.0
0
LINE
8
0
10
947.476
20
4.0811195
30
-1844.0
11
947.476
21
4.0811195
31
-1819.0
0
LINE
8
0
10
-5.4448385
20
16.073383
30
-1818.0
11
1020.3226
21
-503.97006
31
-1818.0
0
LINE
8
0
10
1020.3226
20
-503.97006
30
-1818.0
11
1009.0179
21
-526.2681
31
-1818.0
0
LINE
8
0
10
1009.0179
20
-526.2681
30
-1818.0
11
-16.749517
21
-6.2246933
31
-1818.0
0
LINE
8
0
10
-16.749517
20
-6.2246933
30
-1818.0
11
-5.4448385
21
16.073383
31
-1818.0
0
LINE
8
0
10
-5.4448385
20
16.073383
30
-1793.0
11
1020.3226
21
-503.97006
31
-1793.0
0
LINE
8
0
10
1020.3226
20
-503.97006
30
-1793.0
11
1009.0179
21
-526.2681
31
-1793.0
0
LINE
8
0
10
1009.0179
20
-526.2681
30
-1793.0
11
-16.749517
21
-6.2246933
31
-1793.0
0
LINE
8
0
10
-16.749517
20
-6.2246933
30
-1793.0
11
-5.4448385
21
16.073383
31
-1793.0
0
LINE
8
0
10
-5.4448385
20
16.073383
30
-1818.0
11
-5.4448385
21
16.073383
31
-1793.0
0
LINE
8
0
10
1020.3226
20
-503.97006
30
-1818.0
11
1020.3226
21
-503.97006
31
-1793.0
0
LINE
8
0
10
1009.0179
20
-526.2681
30
-1818.0
11
1009.0179
21
-526.2681
31
-1793.0
0
LINE
8
0
10
-16.749517
20
-6.2246933
30
-1818.0
11
-16.749517
21
-6.2246933
31
-1793.0
0
LINE
8
0
10
916.0712
20
9.694864
30
-1818.0
11
1020.3226
21
-503.97006
31
-1818.0
0
LINE
8
0
10
1020.3226
20
-503.97006
30
-1818.0
11
1044.8231
21
-498.99756
31
-1818.0
0
LINE
8
0
10
1044.8231
20
-498.99756
30
-1818.0
11
940.5717
21
14.66738
31
-1818.0
0
LINE
8
0
10
940.5717
20
14.66738
30
-1818.0
11
916.0712
21
9.694864
31
-1818.0
0
LINE
8
0
10
916.0712
20
9.694864
30
-1793.0
11
1020.3226
21
-503.97006
31
-1793.0
0
LINE
8
0
10
1020.3226
20
-503.97006
30
-1793.0
11
1044.8231
21
-498.99756
31
-1793.0
0
LINE
8
0
10
1044.8231
20
-498.99756
30
-1793.0
11
940.5717
21
14.66738
31
-1793.0
0
LINE
8
0
10
940.5717
20
14.66738
30
-1793.0
11
916.0712
21
9.694864
31
-1793.0
0
LINE
8
0
10
916.0712
20
9.694864
30
-1818.0
11
916.0712
21
9.694864
31
-1793.0
0
LINE
8
0
10
1020.3226
20
-503.97006
30
-1818.0
11
1020.3226
21
-503.97006
31
-1793.0
0
LINE
8
0
10
1044.8231
20
-498.99756
30
-1818.0
11
1044.8231
21
-498.99756
31
-1793.0
0
LINE
8
0
10
940.5717
20
14.66738
30
-1818.0
11
940.5717
21
14.66738
31
-1793.0
0
LINE
8
0
10
2.9124775
20
16.718773
30
-1792.0
11
479.19354
21
-681.36816
31
-1792.0
0
LINE
8
0
10
479.19354
20
-681.36816
30
-1792.0
11
458.54218
21
-695.4579
31
-1792.0
0
LINE
8
0
10
458.54218
20
-695.4579
30
-1792.0
11
-17.738901
21
2.6290398
31
-1792.0
0
LINE
8
0
10
-17.738901
20
2.6290398
30
-1792.0
11
2.9124775
21
16.718773
31
-1792.0
0
LINE
8
0
10
2.9124775
20
16.718773
30
-1767.0
11
479.19354
21
-681.36816
31
-1767.0
0
LINE
8
0
10
479.19354
20
-681.36816
30
-1767.0
11
458.54218
21
-695.4579
31
-1767.0
0
LINE
8
0
10
458.54218
20
-695.4579
30
-1767.0
11
-17.738901
21
2.6290398
31
-1767.0
0
LINE
8
0
10
-17.738901
20
2.6290398
30
-1767.0
11
2.9124775
21
16.718773
31
-1767.0
0
LINE
8
0
10
2.9124775
20
16.718773
30
-1792.0
11
2.9124775
21
16.718773
31
-1767.0
0
LINE
8
0
10
479.19354
20
-681.36816
30
-1792.0
11
479.19354
21
-681.36816
31
-1767.0
0
LINE
8
0
10
458.54218
20
-695.4579
30
-1792.0
11
458.54218
21
-695.4579
31
-1767.0
0
LINE
8
0
10
-17.738901
20
2.6290398
30
-1792.0
11
-17.738901
21
2.6290398
31
-1767.0
0
LINE
8
0
10
926.6135
20
16.62925
30
-1792.0
11
479.19354
21
-681.36816
31
-1792.0
0
LINE
8
0
10
479.19354
20
-681.36816
30
-1792.0
11
500.24072
21
-694.8595
31
-1792.0
0
LINE
8
0
10
500.24072
20
-694.8595
30
-1792.0
11
947.6607
21
3.1378965
31
-1792.0
0
LINE
8
0
10
947.6607
20
3.1378965
30
-1792.0
11
926.6135
21
16.62925
31
-1792.0
0
LINE
8
0
10
926.6135
20
16.62925
30
-1767.0
11
479.19354
21
-681.36816
31
-1767.0
0
LINE
8
0
10
479.19354
20
-681.36816
30
-1767.0
11
500.24072
21
-694.8595
31
-1767.0
0
LINE
8
0
10
500.24072
20
-694.8595
30
-1767.0
11
947.6607
21
3.1378965
31
-1767.0
0
LINE
8
0
10
947.6607
20
3.1378965
30
-1767.0
11
926.6135
21
16.62925
31
-1767.0
0
LINE
8
0
10
926.6135
20
16.62925
30
-1792.0
11
926.6135
21
16.62925
31
-1767.0
0
LINE
8
0
10
479.19354
20
-681.36816
30
-1792.0
11
479.19354
21
-681.36816
31
-1767.0
0
LINE
8
0
10
500.24072
20
-694.8595
30
-1792.0
11
500.24072
21
-694.8595
31
-1767.0
0
LINE
8
0
10
947.6607
20
3.1378965
30
-1792.0
11
947.6607
21
3.1378965
31
-1767.0
0
LINE
8
0
10
-6.040849
20
15.859009
30
-1766.0
11
1057.5807
21
-474.13513
31
-1766.0
0
LINE
8
0
10
1057.5807
20
-474.13513
30
-1766.0
11
1047.1202
21
-496.8415
31
-1766.0
0
LINE
8
0
10
1047.1202
20
-496.8415
30
-1766.0
11
-16.50132
21
-6.8473473
31
-1766.0
0
LINE
8
0
10
-16.50132
20
-6.8473473
30
-1766.0
11
-6.040849
21
15.859009
31
-1766.0
0
LINE
8
0
10
-6.040849
20
15.859009
30
-1741.0
11
1057.5807
21
-474.13513
31
-1741.0
0
LINE
8
0
10
1057.5807
20
-474.13513
30
-1741.0
11
1047.1202
21
-496.8415
31
-1741.0
0
LINE
8
0
10
1047.1202
20
-496.8415
30
-1741.0
11
-16.50132
21
-6.8473473
31
-1741.0
0
LINE
8
0
10
-16.50132
20
-6.8473473
30
-1741.0
11
-6.040849
21
15.859009
31
-1741.0
0
LINE
8
0
10
-6.040849
20
15.859009
30
-1766.0
11
-6.040849
21
15.859009
31
-1741.0
0
LINE
8
0
10
1057.5807
20
-474.13513
30
-1766.0
11
1057.5807
21
-474.13513
31
-1741.0
0
LINE
8
0
10
1047.1202
20
-496.8415
30
-1766.0
11
1047.1202
21
-496.8415
31
-1741.0
0
LINE
8
0
10
-16.50132
20
-6.8473473
30
-1766.0
11
-16.50132
21
-6.8473473
31
-1741.0
0
LINE
8
0
10
915.2941
20
8.46976
30
-1766.0
11
1057.5807
21
-474.13513
31
-1766.0
0
LINE
8
0
10
1057.5807
20
-474.13513
30
-1766.0
11
1081.5602
21
-467.06525
31
-1766.0
0
LINE
8
0
10
1081.5602
20
-467.06525
30
-1766.0
11
939.2736
21
15.539654
31
-1766.0
0
LINE
8
0
10
939.2736
20
15.539654
30
-1766.0
11
915.2941
21
8.46976
31
-1766.0
0
LINE
8
0
10
915.2941
20
8.46976
30
-1741.0
11
1057.5807
21
-474.13513
31
-1741.0
0
LINE
8
0
10
1057.5807
20
-474.13513
30
-1741.0
11
1081.5602
21
-467.06525
31
-1741.0
0
LINE
8
0
10
1081.5602
20
-467.06525
30
-1741.0
11
939.2736
21
15.539654
31
-1741.0
0
LINE
8
0
10
939.2736
20
15.539654
30
-1741.0
11
915.2941
21
8.46976
31
-1741.0
0
LINE
8
0
10
915.2941
20
8.46976
30
-1766.0
11
915.2941
21
8.46976
31
-1741.0
0
LINE
8
0
10
1057.5807
20
-474.13513
30
-1766.0
11
1057.5807
21
-474.13513
31
-1741.0
0
LINE
8
0
10
1081.5602
20
-467.06525
30
-1766.0
11
1081.5602
21
-467.06525
31
-1741.0
0
LINE
8
0
10
939.2736
20
15.539654
30
-1766.0
11
939.2736
21
15.539654
31
-1741.0
0
LINE
8
0
10
3.5659475
20
16.591686
30
-1740.0
11
440.1613
21
-681.16003
31
-1740.0
0
LINE
8
0
10
440.1613
20
-681.16003
30
-1740.0
11
418.96817
21
-694.42096
31
-1740.0
0
LINE
8
0
10
418.96817
20
-694.42096
30
-1740.0
11
-17.62717
21
3.330779
31
-1740.0
0
LINE
8
0
10
-17.62717
20
3.330779
30
-1740.0
11
3.5659475
21
16.591686
31
-1740.0
0
LINE
8
0
10
3.5659475
20
16.591686
30
-1715.0
11
440.1613
21
-681.16003
31
-1715.0
0
LINE
8
0
10
440.1613
20
-681.16003
30
-1715.0
11
418.96817
21
-694.42096
31
-1715.0
0
LINE
8
0
10
418.96817
20
-694.42096
30
-1715.0
11
-17.62717
21
3.330779
31
-1715.0
0
LINE
8
0
10
-17.62717
20
3.330779
30
-1715.0
11
3.5659475
21
16.591686
31
-1715.0
0
LINE
8
0
10
3.5659475
20
16.591686
30
-1740.0
11
3.5659475
21
16.591686
31
-1715.0
0
LINE
8
0
10
440.1613
20
-681.16003
30
-1740.0
11
440.1613
21
-681.16003
31
-1715.0
0
LINE
8
0
10
418.96817
20
-694.42096
30
-1740.0
11
418.96817
21
-694.42096
31
-1715.0
0
LINE
8
0
10
-17.62717
20
3.330779
30
-1740.0
11
-17.62717
21
3.330779
31
-1715.0
0
LINE
8
0
10
927.2636
20
16.748495
30
-1740.0
11
440.1613
21
-681.16003
31
-1740.0
0
LINE
8
0
10
440.1613
20
-681.16003
30
-1740.0
11
460.66183
21
-695.4683
31
-1740.0
0
LINE
8
0
10
460.66183
20
-695.4683
30
-1740.0
11
947.76416
21
2.4402075
31
-1740.0
0
LINE
8
0
10
947.76416
20
2.4402075
30
-1740.0
11
927.2636
21
16.748495
31
-1740.0
0
LINE
8
0
10
927.2636
20
16.748495
30
-1715.0
11
440.1613
21
-681.16003
31
-1715.0
0
LINE
8
0
10
440.1613
20
-681.16003
30
-1715.0
11
460.66183
21
-695.4683
31
-1715.0
0
LINE
8
0
10
460.66183
20
-695.4683
30
-1715.0
11
947.76416
21
2.4402075
31
-1715.0
0
LINE
8
0
10
947.76416
20
2.4402075
30
-1715.0
11
927.2636
21
16.748495
31
-1715.0
0
LINE
8
0
10
927.2636
20
16.748495
30
-1740.0
11
927.2636
21
16.748495
31
-1715.0
0
LINE
8
0
10
440.1613
20
-681.16003
30
-1740.0
11
440.1613
21
-681.16003
31
-1715.0
0
LINE
8
0
10
460.66183
20
-695.4683
30
-1740.0
11
460.66183
21
-695.4683
31
-1715.0
0
LINE
8
0
10
947.76416
20
2.4402075
30
-1740.0
11
947.76416
21
2.4402075
31
-1715.0
0
LINE
8
0
10
-6.4789734
20
15.685119
30
-1714.0
11
1084.1936
21
-450.33362
31
-1714.0
0
LINE
8
0
10
1084.1936
20
-450.33362
30
-1714.0
11
1074.3707
21
-473.323
31
-1714.0
0
LINE
8
0
10
1074.3707
20
-473.323
30
-1714.0
11
-16.3018
21
-7.3042727
31
-1714.0
0
LINE
8
0
10
-16.3018
20
-7.3042727
30
-1714.0
11
-6.4789734
21
15.685119
31
-1714.0
0
LINE
8
0
10
-6.4789734
20
15.685119
30
-1689.0
11
1084.1936
21
-450.33362
31
-1689.0
0
LINE
8
0
10
1084.1936
20
-450.33362
30
-1689.0
11
1074.3707
21
-473.323
31
-1689.0
0
LINE
8
0
10
1074.3707
20
-473.323
30
-1689.0
11
-16.3018
21
-7.3042727
31
-1689.0
0
LINE
8
0
10
-16.3018
20
-7.3042727
30
-1689.0
11
-6.4789734
21
15.685119
31
-1689.0
0
LINE
8
0
10
-6.4789734
20
15.685119
30
-1714.0
11
-6.4789734
21
15.685119
31
-1689.0
0
LINE
8
0
10
1084.1936
20
-450.33362
30
-1714.0
11
1084.1936
21
-450.33362
31
-1689.0
0
LINE
8
0
10
1074.3707
20
-473.323
30
-1714.0
11
1074.3707
21
-473.323
31
-1689.0
0
LINE
8
0
10
-16.3018
20
-7.3042727
30
-1714.0
11
-16.3018
21
-7.3042727
31
-1689.0
0
LINE
8
0
10
914.7598
20
7.4657183
30
-1714.0
11
1084.1936
21
-450.33362
31
-1714.0
0
LINE
8
0
10
1084.1936
20
-450.33362
30
-1714.0
11
1107.6394
21
-441.65625
31
-1714.0
0
LINE
8
0
10
1107.6394
20
-441.65625
30
-1714.0
11
938.20557
21
16.143097
31
-1714.0
0
LINE
8
0
10
938.20557
20
16.143097
30
-1714.0
11
914.7598
21
7.4657183
31
-1714.0
0
LINE
8
0
10
914.7598
20
7.4657183
30
-1689.0
11
1084.1936
21
-450.33362
31
-1689.0
0
LINE
8
0
10
1084.1936
20
-450.33362
30
-1689.0
11
1107.6394
21
-441.65625
31
-1689.0
0
LINE
8
0
10
1107.6394
20
-441.65625
30
-1689.0
11
938.20557
21
16.143097
31
-1689.0
0
LINE
8
0
10
938.20557
20
16.143097
30
-1689.0
11
914.7598
21
7.4657183
31
-1689.0
0
LINE
8
0
10
914.7598
20
7.4657183
30
-1714.0
11
914.7598
21
7.4657183
31
-1689.0
0
LINE
8
0
10
1084.1936
20
-450.33362
30
-1714.0
11
1084.1936
21
-450.33362
31
-1689.0
0
LINE
8
0
10
1107.6394
20
-441.65625
30
-1714.0
11
1107.6394
21
-441.65625
31
-1689.0
0
LINE
8
0
10
938.20557
20
16.143097
30
-1714.0
11
938.20557
21
16.143097
31
-1689.0
0
LINE
8
0
10
4.110384
20
16.465256
30
-1688.0
11
408.2258
21
-679.85345
31
-1688.0
0
LINE
8
0
10
408.2258
20
-679.85345
30
-1688.0
11
386.6034
21
-692.4022
31
-1688.0
0
LINE
8
0
10
386.6034
20
-692.4022
30
-1688.0
11
-17.51202
21
3.9164858
31
-1688.0
0
LINE
8
0
10
-17.51202
20
3.9164858
30
-1688.0
11
4.110384
21
16.465256
31
-1688.0
0
LINE
8
0
10
4.110384
20
16.465256
30
-1663.0
11
408.2258
21
-679.85345
31
-1663.0
0
LINE
8
0
10
408.2258
20
-679.85345
30
-1663.0
11
386.6034
21
-692.4022
31
-1663.0
0
LINE
8
0
10
386.6034
20
-692.4022
30
-1663.0
11
-17.51202
21
3.9164858
31
-1663.0
0
LINE
8
0
10
-17.51202
20
3.9164858
30
-1663.0
11
4.110384
21
16.465256
31
-1663.0
0
LINE
8
0
10
4.110384
20
16.465256
30
-1688.0
11
4.110384
21
16.465256
31
-1663.0
0
LINE
8
0
10
408.2258
20
-679.85345
30
-1688.0
11
408.2258
21
-679.85345
31
-1663.0
0
LINE
8
0
10
386.6034
20
-692.4022
30
-1688.0
11
386.6034
21
-692.4022
31
-1663.0
0
LINE
8
0
10
-17.51202
20
3.9164858
30
-1688.0
11
-17.51202
21
3.9164858
31
-1663.0
0
LINE
8
0
10
927.7865
20
16.825588
30
-1688.0
11
408.2258
21
-679.85345
31
-1688.0
0
LINE
8
0
10
408.2258
20
-679.85345
30
-1688.0
11
428.26645
21
-694.79913
31
-1688.0
0
LINE
8
0
10
428.26645
20
-694.79913
30
-1688.0
11
947.82715
21
1.8799267
31
-1688.0
0
LINE
8
0
10
947.82715
20
1.8799267
30
-1688.0
11
927.7865
21
16.825588
31
-1688.0
0
LINE
8
0
10
927.7865
20
16.825588
30
-1663.0
11
408.2258
21
-679.85345
31
-1663.0
0
LINE
8
0
10
408.2258
20
-679.85345
30
-1663.0
11
428.26645
21
-694.79913
31
-1663.0
0
LINE
8
0
10
428.26645
20
-694.79913
30
-1663.0
11
947.82715
21
1.8799267
31
-1663.0
0
LINE
8
0
10
947.82715
20
1.8799267
30
-1663.0
11
927.7865
21
16.825588
31
-1663.0
0
LINE
8
0
10
927.7865
20
16.825588
30
-1688.0
11
927.7865
21
16.825588
31
-1663.0
0
LINE
8
0
10
408.2258
20
-679.85345
30
-1688.0
11
408.2258
21
-679.85345
31
-1663.0
0
LINE
8
0
10
428.26645
20
-694.79913
30
-1688.0
11
428.26645
21
-694.79913
31
-1663.0
0
LINE
8
0
10
947.82715
20
1.8799267
30
-1688.0
11
947.82715
21
1.8799267
31
-1663.0
0
LINE
8
0
10
-6.8392706
20
15.531401
30
-1662.0
11
1105.4839
21
-429.53622
31
-1662.0
0
LINE
8
0
10
1105.4839
20
-429.53622
30
-1662.0
11
1096.1967
21
-452.74713
31
-1662.0
0
LINE
8
0
10
1096.1967
20
-452.74713
30
-1662.0
11
-16.126534
21
-7.6795177
31
-1662.0
0
LINE
8
0
10
-16.126534
20
-7.6795177
30
-1662.0
11
-6.8392706
21
15.531401
31
-1662.0
0
LINE
8
0
10
-6.8392706
20
15.531401
30
-1637.0
11
1105.4839
21
-429.53622
31
-1637.0
0
LINE
8
0
10
1105.4839
20
-429.53622
30
-1637.0
11
1096.1967
21
-452.74713
31
-1637.0
0
LINE
8
0
10
1096.1967
20
-452.74713
30
-1637.0
11
-16.126534
21
-7.6795177
31
-1637.0
0
LINE
8
0
10
-16.126534
20
-7.6795177
30
-1637.0
11
-6.8392706
21
15.531401
31
-1637.0
0
LINE
8
0
10
-6.8392706
20
15.531401
30
-1662.0
11
-6.8392706
21
15.531401
31
-1637.0
0
LINE
8
0
10
1105.4839
20
-429.53622
30
-1662.0
11
1105.4839
21
-429.53622
31
-1637.0
0
LINE
8
0
10
1096.1967
20
-452.74713
30
-1662.0
11
1096.1967
21
-452.74713
31
-1637.0
0
LINE
8
0
10
-16.126534
20
-7.6795177
30
-1662.0
11
-16.126534
21
-7.6795177
31
-1637.0
0
LINE
8
0
10
914.3529
20
6.57032
30
-1662.0
11
1105.4839
21
-429.53622
31
-1662.0
0
LINE
8
0
10
1105.4839
20
-429.53622
30
-1662.0
11
1128.3813
21
-419.50104
31
-1662.0
0
LINE
8
0
10
1128.3813
20
-419.50104
30
-1662.0
11
937.25037
21
16.605522
31
-1662.0
0
LINE
8
0
10
937.25037
20
16.605522
30
-1662.0
11
914.3529
21
6.57032
31
-1662.0
0
LINE
8
0
10
914.3529
20
6.57032
30
-1637.0
11
1105.4839
21
-429.53622
31
-1637.0
0
LINE
8
0
10
1105.4839
20
-429.53622
30
-1637.0
11
1128.3813
21
-419.50104
31
-1637.0
0
LINE
8
0
10
1128.3813
20
-419.50104
30
-1637.0
11
937.25037
21
16.605522
31
-1637.0
0
LINE
8
0
10
937.25037
20
16.605522
30
-1637.0
11
914.3529
21
6.57032
31
-1637.0
0
LINE
8
0
10
914.3529
20
6.57032
30
-1662.0
11
914.3529
21
6.57032
31
-1637.0
0
LINE
8
0
10
1105.4839
20
-429.53622
30
-1662.0
11
1105.4839
21
-429.53622
31
-1637.0
0
LINE
8
0
10
1128.3813
20
-419.50104
30
-1662.0
11
1128.3813
21
-419.50104
31
-1637.0
0
LINE
8
0
10
937.25037
20
16.605522
30
-1662.0
11
937.25037
21
16.605522
31
-1637.0
0
LINE
8
0
10
4.5093713
20
16.360485
30
-1636.0
11
385.1613
21
-678.27045
31
-1636.0
0
LINE
8
0
10
385.1613
20
-678.27045
30
-1636.0
11
363.23734
21
-690.2846
31
-1636.0
0
LINE
8
0
10
363.23734
20
-690.2846
30
-1636.0
11
-17.414593
21
4.3463345
31
-1636.0
0
LINE
8
0
10
-17.414593
20
4.3463345
30
-1636.0
11
4.5093713
21
16.360485
31
-1636.0
0
LINE
8
0
10
4.5093713
20
16.360485
30
-1611.0
11
385.1613
21
-678.27045
31
-1611.0
0
LINE
8
0
10
385.1613
20
-678.27045
30
-1611.0
11
363.23734
21
-690.2846
31
-1611.0
0
LINE
8
0
10
363.23734
20
-690.2846
30
-1611.0
11
-17.414593
21
4.3463345
31
-1611.0
0
LINE
8
0
10
-17.414593
20
4.3463345
30
-1611.0
11
4.5093713
21
16.360485
31
-1611.0
0
LINE
8
0
10
4.5093713
20
16.360485
30
-1636.0
11
4.5093713
21
16.360485
31
-1611.0
0
LINE
8
0
10
385.1613
20
-678.27045
30
-1636.0
11
385.1613
21
-678.27045
31
-1611.0
0
LINE
8
0
10
363.23734
20
-690.2846
30
-1636.0
11
363.23734
21
-690.2846
31
-1611.0
0
LINE
8
0
10
-17.414593
20
4.3463345
30
-1636.0
11
-17.414593
21
4.3463345
31
-1611.0
0
LINE
8
0
10
928.15955
20
16.87047
30
-1636.0
11
385.1613
21
-678.27045
31
-1636.0
0
LINE
8
0
10
385.1613
20
-678.27045
30
-1636.0
11
404.863
21
-693.66016
31
-1636.0
0
LINE
8
0
10
404.863
20
-693.66016
30
-1636.0
11
947.86127
21
1.4807777
31
-1636.0
0
LINE
8
0
10
947.86127
20
1.4807777
30
-1636.0
11
928.15955
21
16.87047
31
-1636.0
0
LINE
8
0
10
928.15955
20
16.87047
30
-1611.0
11
385.1613
21
-678.27045
31
-1611.0
0
LINE
8
0
10
385.1613
20
-678.27045
30
-1611.0
11
404.863
21
-693.66016
31
-1611.0
0
LINE
8
0
10
404.863
20
-693.66016
30
-1611.0
11
947.86127
21
1.4807777
31
-1611.0
0
LINE
8
0
10
947.86127
20
1.4807777
30
-1611.0
11
928.15955
21
16.87047
31
-1611.0
0
LINE
8
0
10
928.15955
20
16.87047
30
-1636.0
11
928.15955
21
16.87047
31
-1611.0
0
LINE
8
0
10
385.1613
20
-678.27045
30
-1636.0
11
385.1613
21
-678.27045
31
-1611.0
0
LINE
8
0
10
404.863
20
-693.66016
30
-1636.0
11
404.863
21
-693.66016
31
-1611.0
0
LINE
8
0
10
947.86127
20
1.4807777
30
-1636.0
11
947.86127
21
1.4807777
31
-1611.0
0
LINE
8
0
10
-7.085414
20
15.420668
30
-1610.0
11
1119.6774
21
-414.6788
31
-1610.0
0
LINE
8
0
10
1119.6774
20
-414.6788
30
-1610.0
11
1110.762
21
-438.0351
31
-1610.0
0
LINE
8
0
10
1110.762
20
-438.0351
30
-1610.0
11
-16.000803
21
-7.9356117
31
-1610.0
0
LINE
8
0
10
-16.000803
20
-7.9356117
30
-1610.0
11
-7.085414
21
15.420668
31
-1610.0
0
LINE
8
0
10
-7.085414
20
15.420668
30
-1585.0
11
1119.6774
21
-414.6788
31
-1585.0
0
LINE
8
0
10
1119.6774
20
-414.6788
30
-1585.0
11
1110.762
21
-438.0351
31
-1585.0
0
LINE
8
0
10
1110.762
20
-438.0351
30
-1585.0
11
-16.000803
21
-7.9356117
31
-1585.0
0
LINE
8
0
10
-16.000803
20
-7.9356117
30
-1585.0
11
-7.085414
21
15.420668
31
-1585.0
0
LINE
8
0
10
-7.085414
20
15.420668
30
-1610.0
11
-7.085414
21
15.420668
31
-1585.0
0
LINE
8
0
10
1119.6774
20
-414.6788
30
-1610.0
11
1119.6774
21
-414.6788
31
-1585.0
0
LINE
8
0
10
1110.762
20
-438.0351
30
-1610.0
11
1110.762
21
-438.0351
31
-1585.0
0
LINE
8
0
10
-16.000803
20
-7.9356117
30
-1610.0
11
-16.000803
21
-7.9356117
31
-1585.0
0
LINE
8
0
10
914.0959
20
5.9210887
30
-1610.0
11
1119.6774
21
-414.6788
31
-1610.0
0
LINE
8
0
10
1119.6774
20
-414.6788
30
-1610.0
11
1142.138
21
-403.7005
31
-1610.0
0
LINE
8
0
10
1142.138
20
-403.7005
30
-1610.0
11
936.55646
21
16.899391
31
-1610.0
0
LINE
8
0
10
936.55646
20
16.899391
30
-1610.0
11
914.0959
21
5.9210887
31
-1610.0
0
LINE
8
0
10
914.0959
20
5.9210887
30
-1585.0
11
1119.6774
21
-414.6788
31
-1585.0
0
LINE
8
0
10
1119.6774
20
-414.6788
30
-1585.0
11
1142.138
21
-403.7005
31
-1585.0
0
LINE
8
0
10
1142.138
20
-403.7005
30
-1585.0
11
936.55646
21
16.899391
31
-1585.0
0
LINE
8
0
10
936.55646
20
16.899391
30
-1585.0
11
914.0959
21
5.9210887
31
-1585.0
0
LINE
8
0
10
914.0959
20
5.9210887
30
-1610.0
11
914.0959
21
5.9210887
31
-1585.0
0
LINE
8
0
10
1119.6774
20
-414.6788
30
-1610.0
11
1119.6774
21
-414.6788
31
-1585.0
0
LINE
8
0
10
1142.138
20
-403.7005
30
-1610.0
11
1142.138
21
-403.7005
31
-1585.0
0
LINE
8
0
10
936.55646
20
16.899391
30
-1610.0
11
936.55646
21
16.899391
31
-1585.0
0
LINE
8
0
10
4.726308
20
16.299143
30
-1584.0
11
372.74194
21
-677.1945
31
-1584.0
0
LINE
8
0
10
372.74194
20
-677.1945
30
-1584.0
11
350.65875
21
-688.9134
31
-1584.0
0
LINE
8
0
10
350.65875
20
-688.9134
30
-1584.0
11
-17.356895
21
4.580266
31
-1584.0
0
LINE
8
0
10
-17.356895
20
4.580266
30
-1584.0
11
4.726308
21
16.299143
31
-1584.0
0
LINE
8
0
10
4.726308
20
16.299143
30
-1559.0
11
372.74194
21
-677.1945
31
-1559.0
0
LINE
8
0
10
372.74194
20
-677.1945
30
-1559.0
11
350.65875
21
-688.9134
31
-1559.0
0
LINE
8
0
10
350.65875
20
-688.9134
30
-1559.0
11
-17.356895
21
4.580266
31
-1559.0
0
LINE
8
0
10
-17.356895
20
4.580266
30
-1559.0
11
4.726308
21
16.299143
31
-1559.0
0
LINE
8
0
10
4.726308
20
16.299143
30
-1584.0
11
4.726308
21
16.299143
31
-1559.0
0
LINE
8
0
10
372.74194
20
-677.1945
30
-1584.0
11
372.74194
21
-677.1945
31
-1559.0
0
LINE
8
0
10
350.65875
20
-688.9134
30
-1584.0
11
350.65875
21
-688.9134
31
-1559.0
0
LINE
8
0
10
-17.356895
20
4.580266
30
-1584.0
11
-17.356895
21
4.580266
31
-1559.0
0
LINE
8
0
10
928.35895
20
16.891026
30
-1584.0
11
372.74194
21
-677.1945
31
-1584.0
0
LINE
8
0
10
372.74194
20
-677.1945
30
-1584.0
11
392.25888
21
-692.8179
31
-1584.0
0
LINE
8
0
10
392.25888
20
-692.8179
30
-1584.0
11
947.87585
21
1.267662
31
-1584.0
0
LINE
8
0
10
947.87585
20
1.267662
30
-1584.0
11
928.35895
21
16.891026
31
-1584.0
0
LINE
8
0
10
928.35895
20
16.891026
30
-1559.0
11
372.74194
21
-677.1945
31
-1559.0
0
LINE
8
0
10
372.74194
20
-677.1945
30
-1559.0
11
392.25888
21
-692.8179
31
-1559.0
0
LINE
8
0
10
392.25888
20
-692.8179
30
-1559.0
11
947.87585
21
1.267662
31
-1559.0
0
LINE
8
0
10
947.87585
20
1.267662
30
-1559.0
11
928.35895
21
16.891026
31
-1559.0
0
LINE
8
0
10
928.35895
20
16.891026
30
-1584.0
11
928.35895
21
16.891026
31
-1559.0
0
LINE
8
0
10
372.74194
20
-677.1945
30
-1584.0
11
372.74194
21
-677.1945
31
-1559.0
0
LINE
8
0
10
392.25888
20
-692.8179
30
-1584.0
11
392.25888
21
-692.8179
31
-1559.0
0
LINE
8
0
10
947.87585
20
1.267662
30
-1584.0
11
947.87585
21
1.267662
31
-1559.0
0
LINE
8
0
10
-7.210556
20
15.36255
30
-1558.0
11
1126.7742
21
-406.91998
31
-1558.0
0
LINE
8
0
10
1126.7742
20
-406.91998
30
-1558.0
11
1118.0498
21
-430.34827
31
-1558.0
0
LINE
8
0
10
1118.0498
20
-430.34827
30
-1558.0
11
-15.934982
21
-8.065732
31
-1558.0
0
LINE
8
0
10
-15.934982
20
-8.065732
30
-1558.0
11
-7.210556
21
15.36255
31
-1558.0
0
LINE
8
0
10
-7.210556
20
15.36255
30
-1533.0
11
1126.7742
21
-406.91998
31
-1533.0
0
LINE
8
0
10
1126.7742
20
-406.91998
30
-1533.0
11
1118.0498
21
-430.34827
31
-1533.0
0
LINE
8
0
10
1118.0498
20
-430.34827
30
-1533.0
11
-15.934982
21
-8.065732
31
-1533.0
0
LINE
8
0
10
-15.934982
20
-8.065732
30
-1533.0
11
-7.210556
21
15.36255
31
-1533.0
0
LINE
8
0
10
-7.210556
20
15.36255
30
-1558.0
11
-7.210556
21
15.36255
31
-1533.0
0
LINE
8
0
10
1126.7742
20
-406.91998
30
-1558.0
11
1126.7742
21
-406.91998
31
-1533.0
0
LINE
8
0
10
1118.0498
20
-430.34827
30
-1558.0
11
1118.0498
21
-430.34827
31
-1533.0
0
LINE
8
0
10
-15.934982
20
-8.065732
30
-1558.0
11
-15.934982
21
-8.065732
31
-1533.0
0
LINE
8
0
10
913.9727
20
5.579093
30
-1558.0
11
1126.7742
21
-406.91998
31
-1558.0
0
LINE
8
0
10
1126.7742
20
-406.91998
30
-1558.0
11
1148.992
21
-395.45822
31
-1558.0
0
LINE
8
0
10
1148.992
20
-395.45822
30
-1558.0
11
936.1904
21
17.040852
31
-1558.0
0
LINE
8
0
10
936.1904
20
17.040852
30
-1558.0
11
913.9727
21
5.579093
31
-1558.0
0
LINE
8
0
10
913.9727
20
5.579093
30
-1533.0
11
1126.7742
21
-406.91998
31
-1533.0
0
LINE
8
0
10
1126.7742
20
-406.91998
30
-1533.0
11
1148.992
21
-395.45822
31
-1533.0
0
LINE
8
0
10
1148.992
20
-395.45822
30
-1533.0
11
936.1904
21
17.040852
31
-1533.0
0
LINE
8
0
10
936.1904
20
17.040852
30
-1533.0
11
913.9727
21
5.579093
31
-1533.0
0
LINE
8
0
10
913.9727
20
5.579093
30
-1558.0
11
913.9727
21
5.579093
31
-1533.0
0
LINE
8
0
10
1126.7742
20
-406.91998
30
-1558.0
11
1126.7742
21
-406.91998
31
-1533.0
0
LINE
8
0
10
1148.992
20
-395.45822
30
-1558.0
11
1148.992
21
-395.45822
31
-1533.0
0
LINE
8
0
10
936.1904
20
17.040852
30
-1558.0
11
936.1904
21
17.040852
31
-1533.0
0
LINE
8
0
10
4.850929
20
16.262486
30
-1532.0
11
365.64517
21
-676.50916
31
-1532.0
0
LINE
8
0
10
365.64517
20
-676.50916
30
-1532.0
11
343.47202
21
-688.0569
31
-1532.0
0
LINE
8
0
10
343.47202
20
-688.0569
30
-1532.0
11
-17.32224
21
4.714734
31
-1532.0
0
LINE
8
0
10
-17.32224
20
4.714734
30
-1532.0
11
4.850929
21
16.262486
31
-1532.0
0
LINE
8
0
10
4.850929
20
16.262486
30
-1507.0
11
365.64517
21
-676.50916
31
-1507.0
0
LINE
8
0
10
365.64517
20
-676.50916
30
-1507.0
11
343.47202
21
-688.0569
31
-1507.0
0
LINE
8
0
10
343.47202
20
-688.0569
30
-1507.0
11
-17.32224
21
4.714734
31
-1507.0
0
LINE
8
0
10
-17.32224
20
4.714734
30
-1507.0
11
4.850929
21
16.262486
31
-1507.0
0
LINE
8
0
10
4.850929
20
16.262486
30
-1532.0
11
4.850929
21
16.262486
31
-1507.0
0
LINE
8
0
10
365.64517
20
-676.50916
30
-1532.0
11
365.64517
21
-676.50916
31
-1507.0
0
LINE
8
0
10
343.47202
20
-688.0569
30
-1532.0
11
343.47202
21
-688.0569
31
-1507.0
0
LINE
8
0
10
-17.32224
20
4.714734
30
-1532.0
11
-17.32224
21
4.714734
31
-1507.0
0
LINE
8
0
10
928.47235
20
16.901669
30
-1532.0
11
365.64517
21
-676.50916
31
-1532.0
0
LINE
8
0
10
365.64517
20
-676.50916
30
-1532.0
11
385.05582
21
-692.2644
31
-1532.0
0
LINE
8
0
10
385.05582
20
-692.2644
30
-1532.0
11
947.883
21
1.1464491
31
-1532.0
0
LINE
8
0
10
947.883
20
1.1464491
30
-1532.0
11
928.47235
21
16.901669
31
-1532.0
0
LINE
8
0
10
928.47235
20
16.901669
30
-1507.0
11
365.64517
21
-676.50916
31
-1507.0
0
LINE
8
0
10
365.64517
20
-676.50916
30
-1507.0
11
385.05582
21
-692.2644
31
-1507.0
0
LINE
8
0
10
385.05582
20
-692.2644
30
-1507.0
11
947.883
21
1.1464491
31
-1507.0
0
LINE
8
0
10
947.883
20
1.1464491
30
-1507.0
11
928.47235
21
16.901669
31
-1507.0
0
LINE
8
0
10
928.47235
20
16.901669
30
-1532.0
11
928.47235
21
16.901669
31
-1507.0
0
LINE
8
0
10
365.64517
20
-676.50916
30
-1532.0
11
365.64517
21
-676.50916
31
-1507.0
0
LINE
8
0
10
385.05582
20
-692.2644
30
-1532.0
11
385.05582
21
-692.2644
31
-1507.0
0
LINE
8
0
10
947.883
20
1.1464491
30
-1532.0
11
947.883
21
1.1464491
31
-1507.0
0
LINE
8
0
10
-7.2420774
20
15.347715
30
-1506.0
11
1128.5483
21
-404.94397
31
-1506.0
0
LINE
8
0
10
1128.5483
20
-404.94397
30
-1506.0
11
1119.8722
21
-428.3902
31
-1506.0
0
LINE
8
0
10
1119.8722
20
-428.3902
30
-1506.0
11
-15.91819
21
-8.098501
31
-1506.0
0
LINE
8
0
10
-15.91819
20
-8.098501
30
-1506.0
11
-7.2420774
21
15.347715
31
-1506.0
0
LINE
8
0
10
-7.2420774
20
15.347715
30
-1481.0
11
1128.5483
21
-404.94397
31
-1481.0
0
LINE
8
0
10
1128.5483
20
-404.94397
30
-1481.0
11
1119.8722
21
-428.3902
31
-1481.0
0
LINE
8
0
10
1119.8722
20
-428.3902
30
-1481.0
11
-15.91819
21
-8.098501
31
-1481.0
0
LINE
8
0
10
-15.91819
20
-8.098501
30
-1481.0
11
-7.2420774
21
15.347715
31
-1481.0
0
LINE
8
0
10
-7.2420774
20
15.347715
30
-1506.0
11
-7.2420774
21
15.347715
31
-1481.0
0
LINE
8
0
10
1128.5483
20
-404.94397
30
-1506.0
11
1128.5483
21
-404.94397
31
-1481.0
0
LINE
8
0
10
1119.8722
20
-428.3902
30
-1506.0
11
1119.8722
21
-428.3902
31
-1481.0
0
LINE
8
0
10
-15.91819
20
-8.098501
30
-1506.0
11
-15.91819
21
-8.098501
31
-1481.0
0
LINE
8
0
10
913.94257
20
5.491682
30
-1506.0
11
1128.5483
21
-404.94397
31
-1506.0
0
LINE
8
0
10
1128.5483
20
-404.94397
30
-1506.0
11
1150.7026
21
-393.36008
31
-1506.0
0
LINE
8
0
10
1150.7026
20
-393.36008
30
-1506.0
11
936.09686
21
17.075567
31
-1506.0
0
LINE
8
0
10
936.09686
20
17.075567
30
-1506.0
11
913.94257
21
5.491682
31
-1506.0
0
LINE
8
0
10
913.94257
20
5.491682
30
-1481.0
11
1128.5483
21
-404.94397
31
-1481.0
0
LINE
8
0
10
1128.5483
20
-404.94397
30
-1481.0
11
1150.7026
21
-393.36008
31
-1481.0
0
LINE
8
0
10
1150.7026
20
-393.36008
30
-1481.0
11
936.09686
21
17.075567
31
-1481.0
0
LINE
8
0
10
936.09686
20
17.075567
30
-1481.0
11
913.94257
21
5.491682
31
-1481.0
0
LINE
8
0
10
913.94257
20
5.491682
30
-1506.0
11
913.94257
21
5.491682
31
-1481.0
0
LINE
8
0
10
1128.5483
20
-404.94397
30
-1506.0
11
1128.5483
21
-404.94397
31
-1481.0
0
LINE
8
0
10
1150.7026
20
-393.36008
30
-1506.0
11
1150.7026
21
-393.36008
31
-1481.0
0
LINE
8
0
10
936.09686
20
17.075567
30
-1506.0
11
936.09686
21
17.075567
31
-1481.0
0
LINE
8
0
10
4.726308
20
16.299143
30
-1480.0
11
372.74194
21
-677.1945
31
-1480.0
0
LINE
8
0
10
372.74194
20
-677.1945
30
-1480.0
11
350.65875
21
-688.9134
31
-1480.0
0
LINE
8
0
10
350.65875
20
-688.9134
30
-1480.0
11
-17.356895
21
4.580266
31
-1480.0
0
LINE
8
0
10
-17.356895
20
4.580266
30
-1480.0
11
4.726308
21
16.299143
31
-1480.0
0
LINE
8
0
10
4.726308
20
16.299143
30
-1455.0
11
372.74194
21
-677.1945
31
-1455.0
0
LINE
8
0
10
372.74194
20
-677.1945
30
-1455.0
11
350.65875
21
-688.9134
31
-1455.0
0
LINE
8
0
10
350.65875
20
-688.9134
30
-1455.0
11
-17.356895
21
4.580266
31
-1455.0
0
LINE
8
0
10
-17.356895
20
4.580266
30
-1455.0
11
4.726308
21
16.299143
31
-1455.0
0
LINE
8
0
10
4.726308
20
16.299143
30
-1480.0
11
4.726308
21
16.299143
31
-1455.0
0
LINE
8
0
10
372.74194
20
-677.1945
30
-1480.0
11
372.74194
21
-677.1945
31
-1455.0
0
LINE
8
0
10
350.65875
20
-688.9134
30
-1480.0
11
350.65875
21
-688.9134
31
-1455.0
0
LINE
8
0
10
-17.356895
20
4.580266
30
-1480.0
11
-17.356895
21
4.580266
31
-1455.0
0
LINE
8
0
10
928.35895
20
16.891026
30
-1480.0
11
372.74194
21
-677.1945
31
-1480.0
0
LINE
8
0
10
372.74194
20
-677.1945
30
-1480.0
11
392.25888
21
-692.8179
31
-1480.0
0
LINE
8
0
10
392.25888
20
-692.8179
30
-1480.0
11
947.87585
21
1.267662
31
-1480.0
0
LINE
8
0
10
947.87585
20
1.267662
30
-1480.0
11
928.35895
21
16.891026
31
-1480.0
0
LINE
8
0
10
928.35895
20
16.891026
30
-1455.0
11
372.74194
21
-677.1945
31
-1455.0
0
LINE
8
0
10
372.74194
20
-677.1945
30
-1455.0
11
392.25888
21
-692.8179
31
-1455.0
0
LINE
8
0
10
392.25888
20
-692.8179
30
-1455.0
11
947.87585
21
1.267662
31
-1455.0
0
LINE
8
0
10
947.87585
20
1.267662
30
-1455.0
11
928.35895
21
16.891026
31
-1455.0
0
LINE
8
0
10
928.35895
20
16.891026
30
-1480.0
11
928.35895
21
16.891026
31
-1455.0
0
LINE
8
0
10
372.74194
20
-677.1945
30
-1480.0
11
372.74194
21
-677.1945
31
-1455.0
0
LINE
8
0
10
392.25888
20
-692.8179
30
-1480.0
11
392.25888
21
-692.8179
31
-1455.0
0
LINE
8
0
10
947.87585
20
1.267662
30
-1480.0
11
947.87585
21
1.267662
31
-1455.0
0
LINE
8
0
10
-7.085414
20
15.420668
30
-1454.0
11
1119.6774
21
-414.6788
31
-1454.0
0
LINE
8
0
10
1119.6774
20
-414.6788
30
-1454.0
11
1110.762
21
-438.0351
31
-1454.0
0
LINE
8
0
10
1110.762
20
-438.0351
30
-1454.0
11
-16.000803
21
-7.9356117
31
-1454.0
0
LINE
8
0
10
-16.000803
20
-7.9356117
30
-1454.0
11
-7.085414
21
15.420668
31
-1454.0
0
LINE
8
0
10
-7.085414
20
15.420668
30
-1429.0
11
1119.6774
21
-414.6788
31
-1429.0
0
LINE
8
0
10
1119.6774
20
-414.6788
30
-1429.0
11
1110.762
21
-438.0351
31
-1429.0
0
LINE
8
0
10
1110.762
20
-438.0351
30
-1429.0
11
-16.000803
21
-7.9356117
31
-1429.0
0
LINE
8
0
10
-16.000803
20
-7.9356117
30
-1429.0
11
-7.085414
21
15.420668
31
-1429.0
0
LINE
8
0
10
-7.085414
20
15.420668
30
-1454.0
11
-7.085414
21
15.420668
31
-1429.0
0
LINE
8
0
10
1119.6774
20
-414.6788
30
-1454.0
11
1119.6774
21
-414.6788
31
-1429.0
0
LINE
8
0
10
1110.762
20
-438.0351
30
-1454.0
11
1110.762
21
-438.0351
31
-1429.0
0
LINE
8
0
10
-16.000803
20
-7.9356117
30
-1454.0
11
-16.000803
21
-7.9356117
31
-1429.0
0
LINE
8
0
10
914.0959
20
5.9210887
30
-1454.0
11
1119.6774
21
-414.6788
31
-1454.0
0
LINE
8
0
10
1119.6774
20
-414.6788
30
-1454.0
11
1142.138
21
-403.7005
31
-1454.0
0
LINE
8
0
10
1142.138
20
-403.7005
30
-1454.0
11
936.55646
21
16.899391
31
-1454.0
0
LINE
8
0
10
936.55646
20
16.899391
30
-1454.0
11
914.0959
21
5.9210887
31
-1454.0
0
LINE
8
0
10
914.0959
20
5.9210887
30
-1429.0
11
1119.6774
21
-414.6788
31
-1429.0
0
LINE
8
0
10
1119.6774
20
-414.6788
30
-1429.0
11
1142.138
21
-403.7005
31
-1429.0
0
LINE
8
0
10
1142.138
20
-403.7005
30
-1429.0
11
936.55646
21
16.899391
31
-1429.0
0
LINE
8
0
10
936.55646
20
16.899391
30
-1429.0
11
914.0959
21
5.9210887
31
-1429.0
0
LINE
8
0
10
914.0959
20
5.9210887
30
-1454.0
11
914.0959
21
5.9210887
31
-1429.0
0
LINE
8
0
10
1119.6774
20
-414.6788
30
-1454.0
11
1119.6774
21
-414.6788
31
-1429.0
0
LINE
8
0
10
1142.138
20
-403.7005
30
-1454.0
11
1142.138
21
-403.7005
31
-1429.0
0
LINE
8
0
10
936.55646
20
16.899391
30
-1454.0
11
936.55646
21
16.899391
31
-1429.0
0
LINE
8
0
10
4.5093713
20
16.360485
30
-1428.0
11
385.1613
21
-678.27045
31
-1428.0
0
LINE
8
0
10
385.1613
20
-678.27045
30
-1428.0
11
363.23734
21
-690.2846
31
-1428.0
0
LINE
8
0
10
363.23734
20
-690.2846
30
-1428.0
11
-17.414593
21
4.3463345
31
-1428.0
0
LINE
8
0
10
-17.414593
20
4.3463345
30
-1428.0
11
4.5093713
21
16.360485
31
-1428.0
0
LINE
8
0
10
4.5093713
20
16.360485
30
-1403.0
11
385.1613
21
-678.27045
31
-1403.0
0
LINE
8
0
10
385.1613
20
-678.27045
30
-1403.0
11
363.23734
21
-690.2846
31
-1403.0
0
LINE
8
0
10
363.23734
20
-690.2846
30
-1403.0
11
-17.414593
21
4.3463345
31
-1403.0
0
LINE
8
0
10
-17.414593
20
4.3463345
30
-1403.0
11
4.5093713
21
16.360485
31
-1403.0
0
LINE
8
0
10
4.5093713
20
16.360485
30
-1428.0
11
4.5093713
21
16.360485
31
-1403.0
0
LINE
8
0
10
385.1613
20
-678.27045
30
-1428.0
11
385.1613
21
-678.27045
31
-1403.0
0
LINE
8
0
10
363.23734
20
-690.2846
30
-1428.0
11
363.23734
21
-690.2846
31
-1403.0
0
LINE
8
0
10
-17.414593
20
4.3463345
30
-1428.0
11
-17.414593
21
4.3463345
31
-1403.0
0
LINE
8
0
10
928.15955
20
16.87047
30
-1428.0
11
385.1613
21
-678.27045
31
-1428.0
0
LINE
8
0
10
385.1613
20
-678.27045
30
-1428.0
11
404.863
21
-693.66016
31
-1428.0
0
LINE
8
0
10
404.863
20
-693.66016
30
-1428.0
11
947.86127
21
1.4807777
31
-1428.0
0
LINE
8
0
10
947.86127
20
1.4807777
30
-1428.0
11
928.15955
21
16.87047
31
-1428.0
0
LINE
8
0
10
928.15955
20
16.87047
30
-1403.0
11
385.1613
21
-678.27045
31
-1403.0
0
LINE
8
0
10
385.1613
20
-678.27045
30
-1403.0
11
404.863
21
-693.66016
31
-1403.0
0
LINE
8
0
10
404.863
20
-693.66016
30
-1403.0
11
947.86127
21
1.4807777
31
-1403.0
0
LINE
8
0
10
947.86127
20
1.4807777
30
-1403.0
11
928.15955
21
16.87047
31
-1403.0
0
LINE
8
0
10
928.15955
20
16.87047
30
-1428.0
11
928.15955
21
16.87047
31
-1403.0
0
LINE
8
0
10
385.1613
20
-678.27045
30
-1428.0
11
385.1613
21
-678.27045
31
-1403.0
0
LINE
8
0
10
404.863
20
-693.66016
30
-1428.0
11
404.863
21
-693.66016
31
-1403.0
0
LINE
8
0
10
947.86127
20
1.4807777
30
-1428.0
11
947.86127
21
1.4807777
31
-1403.0
0
LINE
8
0
10
-6.8392706
20
15.531401
30
-1402.0
11
1105.4839
21
-429.53622
31
-1402.0
0
LINE
8
0
10
1105.4839
20
-429.53622
30
-1402.0
11
1096.1967
21
-452.74713
31
-1402.0
0
LINE
8
0
10
1096.1967
20
-452.74713
30
-1402.0
11
-16.126534
21
-7.6795177
31
-1402.0
0
LINE
8
0
10
-16.126534
20
-7.6795177
30
-1402.0
11
-6.8392706
21
15.531401
31
-1402.0
0
LINE
8
0
10
-6.8392706
20
15.531401
30
-1377.0
11
1105.4839
21
-429.53622
31
-1377.0
0
LINE
8
0
10
1105.4839
20
-429.53622
30
-1377.0
11
1096.1967
21
-452.74713
31
-1377.0
0
LINE
8
0
10
1096.1967
20
-452.74713
30
-1377.0
11
-16.126534
21
-7.6795177
31
-1377.0
0
LINE
8
0
10
-16.126534
20
-7.6795177
30
-1377.0
11
-6.8392706
21
15.531401
31
-1377.0
0
LINE
8
0
10
-6.8392706
20
15.531401
30
-1402.0
11
-6.8392706
21
15.531401
31
-1377.0
0
LINE
8
0
10
1105.4839
20
-429.53622
30
-1402.0
11
1105.4839
21
-429.53622
31
-1377.0
0
LINE
8
0
10
1096.1967
20
-452.74713
30
-1402.0
11
1096.1967
21
-452.74713
31
-1377.0
0
LINE
8
0
10
-16.126534
20
-7.6795177
30
-1402.0
11
-16.126534
21
-7.6795177
31
-1377.0
0
LINE
8
0
10
914.3529
20
6.57032
30
-1402.0
11
1105.4839
21
-429.53622
31
-1402.0
0
LINE
8
0
10
1105.4839
20
-429.53622
30
-1402.0
11
1128.3813
21
-419.50104
31
-1402.0
0
LINE
8
0
10
1128.3813
20
-419.50104
30
-1402.0
11
937.25037
21
16.605522
31
-1402.0
0
LINE
8
0
10
937.25037
20
16.605522
30
-1402.0
11
914.3529
21
6.57032
31
-1402.0
0
LINE
8
0
10
914.3529
20
6.57032
30
-1377.0
11
1105.4839
21
-429.53622
31
-1377.0
0
LINE
8
0
10
1105.4839
20
-429.53622
30
-1377.0
11
1128.3813
21
-419.50104
31
-1377.0
0
LINE
8
0
10
1128.3813
20
-419.50104
30
-1377.0
11
937.25037
21
16.605522
31
-1377.0
0
LINE
8
0
10
937.25037
20
16.605522
30
-1377.0
11
914.3529
21
6.57032
31
-1377.0
0
LINE
8
0
10
914.3529
20
6.57032
30
-1402.0
11
914.3529
21
6.57032
31
-1377.0
0
LINE
8
0
10
1105.4839
20
-429.53622
30
-1402.0
11
1105.4839
21
-429.53622
31
-1377.0
0
LINE
8
0
10
1128.3813
20
-419.50104
30
-1402.0
11
1128.3813
21
-419.50104
31
-1377.0
0
LINE
8
0
10
937.25037
20
16.605522
30
-1402.0
11
937.25037
21
16.605522
31
-1377.0
0
LINE
8
0
10
4.110384
20
16.465256
30
-1376.0
11
408.2258
21
-679.85345
31
-1376.0
0
LINE
8
0
10
408.2258
20
-679.85345
30
-1376.0
11
386.6034
21
-692.4022
31
-1376.0
0
LINE
8
0
10
386.6034
20
-692.4022
30
-1376.0
11
-17.51202
21
3.9164858
31
-1376.0
0
LINE
8
0
10
-17.51202
20
3.9164858
30
-1376.0
11
4.110384
21
16.465256
31
-1376.0
0
LINE
8
0
10
4.110384
20
16.465256
30
-1351.0
11
408.2258
21
-679.85345
31
-1351.0
0
LINE
8
0
10
408.2258
20
-679.85345
30
-1351.0
11
386.6034
21
-692.4022
31
-1351.0
0
LINE
8
0
10
386.6034
20
-692.4022
30
-1351.0
11
-17.51202
21
3.9164858
31
-1351.0
0
LINE
8
0
10
-17.51202
20
3.9164858
30
-1351.0
11
4.110384
21
16.465256
31
-1351.0
0
LINE
8
0
10
4.110384
20
16.465256
30
-1376.0
11
4.110384
21
16.465256
31
-1351.0
0
LINE
8
0
10
408.2258
20
-679.85345
30
-1376.0
11
408.2258
21
-679.85345
31
-1351.0
0
LINE
8
0
10
386.6034
20
-692.4022
30
-1376.0
11
386.6034
21
-692.4022
31
-1351.0
0
LINE
8
0
10
-17.51202
20
3.9164858
30
-1376.0
11
-17.51202
21
3.9164858
31
-1351.0
0
LINE
8
0
10
927.7865
20
16.825588
30
-1376.0
11
408.2258
21
-679.85345
31
-1376.0
0
LINE
8
0
10
408.2258
20
-679.85345
30
-1376.0
11
428.26645
21
-694.79913
31
-1376.0
0
LINE
8
0
10
428.26645
20
-694.79913
30
-1376.0
11
947.82715
21
1.8799267
31
-1376.0
0
LINE
8
0
10
947.82715
20
1.8799267
30
-1376.0
11
927.7865
21
16.825588
31
-1376.0
0
LINE
8
0
10
927.7865
20
16.825588
30
-1351.0
11
408.2258
21
-679.85345
31
-1351.0
0
LINE
8
0
10
408.2258
20
-679.85345
30
-1351.0
11
428.26645
21
-694.79913
31
-1351.0
0
LINE
8
0
10
428.26645
20
-694.79913
30
-1351.0
11
947.82715
21
1.8799267
31
-1351.0
0
LINE
8
0
10
947.82715
20
1.8799267
30
-1351.0
11
927.7865
21
16.825588
31
-1351.0
0
LINE
8
0
10
927.7865
20
16.825588
30
-1376.0
11
927.7865
21
16.825588
31
-1351.0
0
LINE
8
0
10
408.2258
20
-679.85345
30
-1376.0
11
408.2258
21
-679.85345
31
-1351.0
0
LINE
8
0
10
428.26645
20
-694.79913
30
-1376.0
11
428.26645
21
-694.79913
31
-1351.0
0
LINE
8
0
10
947.82715
20
1.8799267
30
-1376.0
11
947.82715
21
1.8799267
31
-1351.0
0
LINE
8
0
10
-6.4789734
20
15.685119
30
-1350.0
11
1084.1936
21
-450.33362
31
-1350.0
0
LINE
8
0
10
1084.1936
20
-450.33362
30
-1350.0
11
1074.3707
21
-473.323
31
-1350.0
0
LINE
8
0
10
1074.3707
20
-473.323
30
-1350.0
11
-16.3018
21
-7.3042727
31
-1350.0
0
LINE
8
0
10
-16.3018
20
-7.3042727
30
-1350.0
11
-6.4789734
21
15.685119
31
-1350.0
0
LINE
8
0
10
-6.4789734
20
15.685119
30
-1325.0
11
1084.1936
21
-450.33362
31
-1325.0
0
LINE
8
0
10
1084.1936
20
-450.33362
30
-1325.0
11
1074.3707
21
-473.323
31
-1325.0
0
LINE
8
0
10
1074.3707
20
-473.323
30
-1325.0
11
-16.3018
21
-7.3042727
31
-1325.0
0
LINE
8
0
10
-16.3018
20
-7.3042727
30
-1325.0
11
-6.4789734
21
15.685119
31
-1325.0
0
LINE
8
0
10
-6.4789734
20
15.685119
30
-1350.0
11
-6.4789734
21
15.685119
31
-1325.0
0
LINE
8
0
10
1084.1936
20
-450.33362
30
-1350.0
11
1084.1936
21
-450.33362
31
-1325.0
0
LINE
8
0
10
1074.3707
20
-473.323
30
-1350.0
11
1074.3707
21
-473.323
31
-1325.0
0
LINE
8
0
10
-16.3018
20
-7.3042727
30
-1350.0
11
-16.3018
21
-7.3042727
31
-1325.0
0
LINE
8
0
10
914.7598
20
7.4657183
30
-1350.0
11
1084.1936
21
-450.33362
31
-1350.0
0
LINE
8
0
10
1084.1936
20
-450.33362
30
-1350.0
11
1107.6394
21
-441.65625
31
-1350.0
0
LINE
8
0
10
1107.6394
20
-441.65625
30
-1350.0
11
938.20557
21
16.143097
31
-1350.0
0
LINE
8
0
10
938.20557
20
16.143097
30
-1350.0
11
914.7598
21
7.4657183
31
-1350.0
0
LINE
8
0
10
914.7598
20
7.4657183
30
-1325.0
11
1084.1936
21
-450.33362
31
-1325.0
0
LINE
8
0
10
1084.1936
20
-450.33362
30
-1325.0
11
1107.6394
21
-441.65625
31
-1325.0
0
LINE
8
0
10
1107.6394
20
-441.65625
30
-1325.0
11
938.20557
21
16.143097
31
-1325.0
0
LINE
8
0
10
938.20557
20
16.143097
30
-1325.0
11
914.7598
21
7.4657183
31
-1325.0
0
LINE
8
0
10
914.7598
20
7.4657183
30
-1350.0
11
914.7598
21
7.4657183
31
-1325.0
0
LINE
8
0
10
1084.1936
20
-450.33362
30
-1350.0
11
1084.1936
21
-450.33362
31
-1325.0
0
LINE
8
0
10
1107.6394
20
-441.65625
30
-1350.0
11
1107.6394
21
-441.65625
31
-1325.0
0
LINE
8
0
10
938.20557
20
16.143097
30
-1350.0
11
938.20557
21
16.143097
31
-1325.0
0
LINE
8
0
10
3.5659475
20
16.591686
30
-1324.0
11
440.1613
21
-681.16003
31
-1324.0
0
LINE
8
0
10
440.1613
20
-681.16003
30
-1324.0
11
418.96817
21
-694.42096
31
-1324.0
0
LINE
8
0
10
418.96817
20
-694.42096
30
-1324.0
11
-17.62717
21
3.330779
31
-1324.0
0
LINE
8
0
10
-17.62717
20
3.330779
30
-1324.0
11
3.5659475
21
16.591686
31
-1324.0
0
LINE
8
0
10
3.5659475
20
16.591686
30
-1299.0
11
440.1613
21
-681.16003
31
-1299.0
0
LINE
8
0
10
440.1613
20
-681.16003
30
-1299.0
11
418.96817
21
-694.42096
31
-1299.0
0
LINE
8
0
10
418.96817
20
-694.42096
30
-1299.0
11
-17.62717
21
3.330779
31
-1299.0
0
LINE
8
0
10
-17.62717
20
3.330779
30
-1299.0
11
3.5659475
21
16.591686
31
-1299.0
0
LINE
8
0
10
3.5659475
20
16.591686
30
-1324.0
11
3.5659475
21
16.591686
31
-1299.0
0
LINE
8
0
10
440.1613
20
-681.16003
30
-1324.0
11
440.1613
21
-681.16003
31
-1299.0
0
LINE
8
0
10
418.96817
20
-694.42096
30
-1324.0
11
418.96817
21
-694.42096
31
-1299.0
0
LINE
8
0
10
-17.62717
20
3.330779
30
-1324.0
11
-17.62717
21
3.330779
31
-1299.0
0
LINE
8
0
10
927.2636
20
16.748495
30
-1324.0
11
440.1613
21
-681.16003
31
-1324.0
0
LINE
8
0
10
440.1613
20
-681.16003
30
-1324.0
11
460.66183
21
-695.4683
31
-1324.0
0
LINE
8
0
10
460.66183
20
-695.4683
30
-1324.0
11
947.76416
21
2.4402075
31
-1324.0
0
LINE
8
0
10
947.76416
20
2.4402075
30
-1324.0
11
927.2636
21
16.748495
31
-1324.0
0
LINE
8
0
10
927.2636
20
16.748495
30
-1299.0
11
440.1613
21
-681.16003
31
-1299.0
0
LINE
8
0
10
440.1613
20
-681.16003
30
-1299.0
11
460.66183
21
-695.4683
31
-1299.0
0
LINE
8
0
10
460.66183
20
-695.4683
30
-1299.0
11
947.76416
21
2.4402075
31
-1299.0
0
LINE
8
0
10
947.76416
20
2.4402075
30
-1299.0
11
927.2636
21
16.748495
31
-1299.0
0
LINE
8
0
10
927.2636
20
16.748495
30
-1324.0
11
927.2636
21
16.748495
31
-1299.0
0
LINE
8
0
10
440.1613
20
-681.16003
30
-1324.0
11
440.1613
21
-681.16003
31
-1299.0
0
LINE
8
0
10
460.66183
20
-695.4683
30
-1324.0
11
460.66183
21
-695.4683
31
-1299.0
0
LINE
8
0
10
947.76416
20
2.4402075
30
-1324.0
11
947.76416
21
2.4402075
31
-1299.0
0
LINE
8
0
10
-6.040849
20
15.859009
30
-1298.0
11
1057.5807
21
-474.13513
31
-1298.0
0
LINE
8
0
10
1057.5807
20
-474.13513
30
-1298.0
11
1047.1202
21
-496.8415
31
-1298.0
0
LINE
8
0
10
1047.1202
20
-496.8415
30
-1298.0
11
-16.50132
21
-6.8473473
31
-1298.0
0
LINE
8
0
10
-16.50132
20
-6.8473473
30
-1298.0
11
-6.040849
21
15.859009
31
-1298.0
0
LINE
8
0
10
-6.040849
20
15.859009
30
-1273.0
11
1057.5807
21
-474.13513
31
-1273.0
0
LINE
8
0
10
1057.5807
20
-474.13513
30
-1273.0
11
1047.1202
21
-496.8415
31
-1273.0
0
LINE
8
0
10
1047.1202
20
-496.8415
30
-1273.0
11
-16.50132
21
-6.8473473
31
-1273.0
0
LINE
8
0
10
-16.50132
20
-6.8473473
30
-1273.0
11
-6.040849
21
15.859009
31
-1273.0
0
LINE
8
0
10
-6.040849
20
15.859009
30
-1298.0
11
-6.040849
21
15.859009
31
-1273.0
0
LINE
8
0
10
1057.5807
20
-474.13513
30
-1298.0
11
1057.5807
21
-474.13513
31
-1273.0
0
LINE
8
0
10
1047.1202
20
-496.8415
30
-1298.0
11
1047.1202
21
-496.8415
31
-1273.0
0
LINE
8
0
10
-16.50132
20
-6.8473473
30
-1298.0
11
-16.50132
21
-6.8473473
31
-1273.0
0
LINE
8
0
10
915.2941
20
8.46976
30
-1298.0
11
1057.5807
21
-474.13513
31
-1298.0
0
LINE
8
0
10
1057.5807
20
-474.13513
30
-1298.0
11
1081.5602
21
-467.06525
31
-1298.0
0
LINE
8
0
10
1081.5602
20
-467.06525
30
-1298.0
11
939.2736
21
15.539654
31
-1298.0
0
LINE
8
0
10
939.2736
20
15.539654
30
-1298.0
11
915.2941
21
8.46976
31
-1298.0
0
LINE
8
0
10
915.2941
20
8.46976
30
-1273.0
11
1057.5807
21
-474.13513
31
-1273.0
0
LINE
8
0
10
1057.5807
20
-474.13513
30
-1273.0
11
1081.5602
21
-467.06525
31
-1273.0
0
LINE
8
0
10
1081.5602
20
-467.06525
30
-1273.0
11
939.2736
21
15.539654
31
-1273.0
0
LINE
8
0
10
939.2736
20
15.539654
30
-1273.0
11
915.2941
21
8.46976
31
-1273.0
0
LINE
8
0
10
915.2941
20
8.46976
30
-1298.0
11
915.2941
21
8.46976
31
-1273.0
0
LINE
8
0
10
1057.5807
20
-474.13513
30
-1298.0
11
1057.5807
21
-474.13513
31
-1273.0
0
LINE
8
0
10
1081.5602
20
-467.06525
30
-1298.0
11
1081.5602
21
-467.06525
31
-1273.0
0
LINE
8
0
10
939.2736
20
15.539654
30
-1298.0
11
939.2736
21
15.539654
31
-1273.0
0
LINE
8
0
10
2.9124775
20
16.718773
30
-1272.0
11
479.19354
21
-681.36816
31
-1272.0
0
LINE
8
0
10
479.19354
20
-681.36816
30
-1272.0
11
458.54218
21
-695.4579
31
-1272.0
0
LINE
8
0
10
458.54218
20
-695.4579
30
-1272.0
11
-17.738901
21
2.6290398
31
-1272.0
0
LINE
8
0
10
-17.738901
20
2.6290398
30
-1272.0
11
2.9124775
21
16.718773
31
-1272.0
0
LINE
8
0
10
2.9124775
20
16.718773
30
-1247.0
11
479.19354
21
-681.36816
31
-1247.0
0
LINE
8
0
10
479.19354
20
-681.36816
30
-1247.0
11
458.54218
21
-695.4579
31
-1247.0
0
LINE
8
0
10
458.54218
20
-695.4579
30
-1247.0
11
-17.738901
21
2.6290398
31
-1247.0
0
LINE
8
0
10
-17.738901
20
2.6290398
30
-1247.0
11
2.9124775
21
16.718773
31
-1247.0
0
LINE
8
0
10
2.9124775
20
16.718773
30
-1272.0
11
2.9124775
21
16.718773
31
-1247.0
0
LINE
8
0
10
479.19354
20
-681.36816
30
-1272.0
11
479.19354
21
-681.36816
31
-1247.0
0
LINE
8
0
10
458.54218
20
-695.4579
30
-1272.0
11
458.54218
21
-695.4579
31
-1247.0
0
LINE
8
0
10
-17.738901
20
2.6290398
30
-1272.0
11
-17.738901
21
2.6290398
31
-1247.0
0
LINE
8
0
10
926.6135
20
16.62925
30
-1272.0
11
479.19354
21
-681.36816
31
-1272.0
0
LINE
8
0
10
479.19354
20
-681.36816
30
-1272.0
11
500.24072
21
-694.8595
31
-1272.0
0
LINE
8
0
10
500.24072
20
-694.8595
30
-1272.0
11
947.6607
21
3.1378965
31
-1272.0
0
LINE
8
0
10
947.6607
20
3.1378965
30
-1272.0
11
926.6135
21
16.62925
31
-1272.0
0
LINE
8
0
10
926.6135
20
16.62925
30
-1247.0
11
479.19354
21
-681.36816
31
-1247.0
0
LINE
8
0
10
479.19354
20
-681.36816
30
-1247.0
11
500.24072
21
-694.8595
31
-1247.0
0
LINE
8
0
10
500.24072
20
-694.8595
30
-1247.0
11
947.6607
21
3.1378965
31
-1247.0
0
LINE
8
0
10
947.6607
20
3.1378965
30
-1247.0
11
926.6135
21
16.62925
31
-1247.0
0
LINE
8
0
10
926.6135
20
16.62925
30
-1272.0
11
926.6135
21
16.62925
31
-1247.0
0
LINE
8
0
10
479.19354
20
-681.36816
30
-1272.0
11
479.19354
21
-681.36816
31
-1247.0
0
LINE
8
0
10
500.24072
20
-694.8595
30
-1272.0
11
500.24072
21
-694.8595
31
-1247.0
0
LINE
8
0
10
947.6607
20
3.1378965
30
-1272.0
11
947.6607
21
3.1378965
31
-1247.0
0
LINE
8
0
10
-5.4448385
20
16.073383
30
-1246.0
11
1020.3226
21
-503.97006
31
-1246.0
0
LINE
8
0
10
1020.3226
20
-503.97006
30
-1246.0
11
1009.0179
21
-526.2681
31
-1246.0
0
LINE
8
0
10
1009.0179
20
-526.2681
30
-1246.0
11
-16.749517
21
-6.2246933
31
-1246.0
0
LINE
8
0
10
-16.749517
20
-6.2246933
30
-1246.0
11
-5.4448385
21
16.073383
31
-1246.0
0
LINE
8
0
10
-5.4448385
20
16.073383
30
-1221.0
11
1020.3226
21
-503.97006
31
-1221.0
0
LINE
8
0
10
1020.3226
20
-503.97006
30
-1221.0
11
1009.0179
21
-526.2681
31
-1221.0
0
LINE
8
0
10
1009.0179
20
-526.2681
30
-1221.0
11
-16.749517
21
-6.2246933
31
-1221.0
0
LINE
8
0
10
-16.749517
20
-6.2246933
30
-1221.0
11
-5.4448385
21
16.073383
31
-1221.0
0
LINE
8
0
10
-5.4448385
20
16.073383
30
-1246.0
11
-5.4448385
21
16.073383
31
-1221.0
0
LINE
8
0
10
1020.3226
20
-503.97006
30
-1246.0
11
1020.3226
21
-503.97006
31
-1221.0
0
LINE
8
0
10
1009.0179
20
-526.2681
30
-1246.0
11
1009.0179
21
-526.2681
31
-1221.0
0
LINE
8
0
10
-16.749517
20
-6.2246933
30
-1246.0
11
-16.749517
21
-6.2246933
31
-1221.0
0
LINE
8
0
10
916.0712
20
9.694864
30
-1246.0
11
1020.3226
21
-503.97006
31
-1246.0
0
LINE
8
0
10
1020.3226
20
-503.97006
30
-1246.0
11
1044.8231
21
-498.99756
31
-1246.0
0
LINE
8
0
10
1044.8231
20
-498.99756
30
-1246.0
11
940.5717
21
14.66738
31
-1246.0
0
LINE
8
0
10
940.5717
20
14.66738
30
-1246.0
11
916.0712
21
9.694864
31
-1246.0
0
LINE
8
0
10
916.0712
20
9.694864
30
-1221.0
11
1020.3226
21
-503.97006
31
-1221.0
0
LINE
8
0
10
1020.3226
20
-503.97006
30
-1221.0
11
1044.8231
21
-498.99756
31
-1221.0
0
LINE
8
0
10
1044.8231
20
-498.99756
30
-1221.0
11
940.5717
21
14.66738
31
-1221.0
0
LINE
8
0
10
940.5717
20
14.66738
30
-1221.0
11
916.0712
21
9.694864
31
-1221.0
0
LINE
8
0
10
916.0712
20
9.694864
30
-1246.0
11
916.0712
21
9.694864
31
-1221.0
0
LINE
8
0
10
1020.3226
20
-503.97006
30
-1246.0
11
1020.3226
21
-503.97006
31
-1221.0
0
LINE
8
0
10
1044.8231
20
-498.99756
30
-1246.0
11
1044.8231
21
-498.99756
31
-1221.0
0
LINE
8
0
10
940.5717
20
14.66738
30
-1246.0
11
940.5717
21
14.66738
31
-1221.0
0
LINE
8
0
10
2.0695543
20
16.8439
30
-1220.0
11
530.64514
21
-679.3083
31
-1220.0
0
LINE
8
0
10
530.64514
20
-679.3083
30
-1220.0
11
510.7342
21
-694.42633
31
-1220.0
0
LINE
8
0
10
510.7342
20
-694.42633
30
-1220.0
11
-17.841385
21
1.7258816
31
-1220.0
0
LINE
8
0
10
-17.841385
20
1.7258816
30
-1220.0
11
2.0695543
21
16.8439
31
-1220.0
0
LINE
8
0
10
2.0695543
20
16.8439
30
-1195.0
11
530.64514
21
-679.3083
31
-1195.0
0
LINE
8
0
10
530.64514
20
-679.3083
30
-1195.0
11
510.7342
21
-694.42633
31
-1195.0
0
LINE
8
0
10
510.7342
20
-694.42633
30
-1195.0
11
-17.841385
21
1.7258816
31
-1195.0
0
LINE
8
0
10
-17.841385
20
1.7258816
30
-1195.0
11
2.0695543
21
16.8439
31
-1195.0
0
LINE
8
0
10
2.0695543
20
16.8439
30
-1220.0
11
2.0695543
21
16.8439
31
-1195.0
0
LINE
8
0
10
530.64514
20
-679.3083
30
-1220.0
11
530.64514
21
-679.3083
31
-1195.0
0
LINE
8
0
10
510.7342
20
-694.42633
30
-1220.0
11
510.7342
21
-694.42633
31
-1195.0
0
LINE
8
0
10
-17.841385
20
1.7258816
30
-1220.0
11
-17.841385
21
1.7258816
31
-1195.0
0
LINE
8
0
10
925.73676
20
16.426342
30
-1220.0
11
530.64514
21
-679.3083
31
-1220.0
0
LINE
8
0
10
530.64514
20
-679.3083
30
-1220.0
11
552.3844
21
-691.6535
31
-1220.0
0
LINE
8
0
10
552.3844
20
-691.6535
30
-1220.0
11
947.476
21
4.0811195
31
-1220.0
0
LINE
8
0
10
947.476
20
4.0811195
30
-1220.0
11
925.73676
21
16.426342
31
-1220.0
0
LINE
8
0
10
925.73676
20
16.426342
30
-1195.0
11
530.64514
21
-679.3083
31
-1195.0
0
LINE
8
0
10
530.64514
20
-679.3083
30
-1195.0
11
552.3844
21
-691.6535
31
-1195.0
0
LINE
8
0
10
552.3844
20
-691.6535
30
-1195.0
11
947.476
21
4.0811195
31
-1195.0
0
LINE
8
0
10
947.476
20
4.0811195
30
-1195.0
11
925.73676
21
16.426342
31
-1195.0
0
LINE
8
0
10
925.73676
20
16.426342
30
-1220.0
11
925.73676
21
16.426342
31
-1195.0
0
LINE
8
0
10
530.64514
20
-679.3083
30
-1220.0
11
530.64514
21
-679.3083
31
-1195.0
0
LINE
8
0
10
552.3844
20
-691.6535
30
-1220.0
11
552.3844
21
-691.6535
31
-1195.0
0
LINE
8
0
10
947.476
20
4.0811195
30
-1220.0
11
947.476
21
4.0811195
31
-1195.0
0
LINE
8
0
10
-4.72675
20
16.299015
30
-1194.0
11
974.19354
21
-536.1818
31
-1194.0
0
LINE
8
0
10
974.19354
20
-536.1818
30
-1194.0
11
961.90594
21
-557.95374
31
-1194.0
0
LINE
8
0
10
961.90594
20
-557.95374
30
-1194.0
11
-17.014332
21
-5.4728775
31
-1194.0
0
LINE
8
0
10
-17.014332
20
-5.4728775
30
-1194.0
11
-4.72675
21
16.299015
31
-1194.0
0
LINE
8
0
10
-4.72675
20
16.299015
30
-1169.0
11
974.19354
21
-536.1818
31
-1169.0
0
LINE
8
0
10
974.19354
20
-536.1818
30
-1169.0
11
961.90594
21
-557.95374
31
-1169.0
0
LINE
8
0
10
961.90594
20
-557.95374
30
-1169.0
11
-17.014332
21
-5.4728775
31
-1169.0
0
LINE
8
0
10
-17.014332
20
-5.4728775
30
-1169.0
11
-4.72675
21
16.299015
31
-1169.0
0
LINE
8
0
10
-4.72675
20
16.299015
30
-1194.0
11
-4.72675
21
16.299015
31
-1169.0
0
LINE
8
0
10
974.19354
20
-536.1818
30
-1194.0
11
974.19354
21
-536.1818
31
-1169.0
0
LINE
8
0
10
961.90594
20
-557.95374
30
-1194.0
11
961.90594
21
-557.95374
31
-1169.0
0
LINE
8
0
10
-17.014332
20
-5.4728775
30
-1194.0
11
-17.014332
21
-5.4728775
31
-1169.0
0
LINE
8
0
10
917.0548
20
10.973715
30
-1194.0
11
974.19354
21
-536.1818
31
-1194.0
0
LINE
8
0
10
974.19354
20
-536.1818
30
-1194.0
11
999.05835
21
-533.5852
31
-1194.0
0
LINE
8
0
10
999.05835
20
-533.5852
30
-1194.0
11
941.9196
21
13.570317
31
-1194.0
0
LINE
8
0
10
941.9196
20
13.570317
30
-1194.0
11
917.0548
21
10.973715
31
-1194.0
0
LINE
8
0
10
917.0548
20
10.973715
30
-1169.0
11
974.19354
21
-536.1818
31
-1169.0
0
LINE
8
0
10
974.19354
20
-536.1818
30
-1169.0
11
999.05835
21
-533.5852
31
-1169.0
0
LINE
8
0
10
999.05835
20
-533.5852
30
-1169.0
11
941.9196
21
13.570317
31
-1169.0
0
LINE
8
0
10
941.9196
20
13.570317
30
-1169.0
11
917.0548
21
10.973715
31
-1169.0
0
LINE
8
0
10
917.0548
20
10.973715
30
-1194.0
11
917.0548
21
10.973715
31
-1169.0
0
LINE
8
0
10
974.19354
20
-536.1818
30
-1194.0
11
974.19354
21
-536.1818
31
-1169.0
0
LINE
8
0
10
999.05835
20
-533.5852
30
-1194.0
11
999.05835
21
-533.5852
31
-1169.0
0
LINE
8
0
10
941.9196
20
13.570317
30
-1194.0
11
941.9196
21
13.570317
31
-1169.0
0
LINE
8
0
10
1.0770316
20
16.93635
30
-1168.0
11
592.74194
21
-673.2503
31
-1168.0
0
LINE
8
0
10
592.74194
20
-673.2503
30
-1168.0
11
573.76154
21
-689.5213
31
-1168.0
0
LINE
8
0
10
573.76154
20
-689.5213
30
-1168.0
11
-17.903349
21
0.6653595
31
-1168.0
0
LINE
8
0
10
-17.903349
20
0.6653595
30
-1168.0
11
1.0770316
21
16.93635
31
-1168.0
0
LINE
8
0
10
1.0770316
20
16.93635
30
-1143.0
11
592.74194
21
-673.2503
31
-1143.0
0
LINE
8
0
10
592.74194
20
-673.2503
30
-1143.0
11
573.76154
21
-689.5213
31
-1143.0
0
LINE
8
0
10
573.76154
20
-689.5213
30
-1143.0
11
-17.903349
21
0.6653595
31
-1143.0
0
LINE
8
0
10
-17.903349
20
0.6653595
30
-1143.0
11
1.0770316
21
16.93635
31
-1143.0
0
LINE
8
0
10
1.0770316
20
16.93635
30
-1168.0
11
1.0770316
21
16.93635
31
-1143.0
0
LINE
8
0
10
592.74194
20
-673.2503
30
-1168.0
11
592.74194
21
-673.2503
31
-1143.0
0
LINE
8
0
10
573.76154
20
-689.5213
30
-1168.0
11
573.76154
21
-689.5213
31
-1143.0
0
LINE
8
0
10
-17.903349
20
0.6653595
30
-1168.0
11
-17.903349
21
0.6653595
31
-1143.0
0
LINE
8
0
10
924.64557
20
16.103724
30
-1168.0
11
592.74194
21
-673.2503
31
-1168.0
0
LINE
8
0
10
592.74194
20
-673.2503
30
-1168.0
11
615.2671
21
-684.0955
31
-1168.0
0
LINE
8
0
10
615.2671
20
-684.0955
30
-1168.0
11
947.1707
21
5.25852
31
-1168.0
0
LINE
8
0
10
947.1707
20
5.25852
30
-1168.0
11
924.64557
21
16.103724
31
-1168.0
0
LINE
8
0
10
924.64557
20
16.103724
30
-1143.0
11
592.74194
21
-673.2503
31
-1143.0
0
LINE
8
0
10
592.74194
20
-673.2503
30
-1143.0
11
615.2671
21
-684.0955
31
-1143.0
0
LINE
8
0
10
615.2671
20
-684.0955
30
-1143.0
11
947.1707
21
5.25852
31
-1143.0
0
LINE
8
0
10
947.1707
20
5.25852
30
-1143.0
11
924.64557
21
16.103724
31
-1143.0
0
LINE
8
0
10
924.64557
20
16.103724
30
-1168.0
11
924.64557
21
16.103724
31
-1143.0
0
LINE
8
0
10
592.74194
20
-673.2503
30
-1168.0
11
592.74194
21
-673.2503
31
-1143.0
0
LINE
8
0
10
615.2671
20
-684.0955
30
-1168.0
11
615.2671
21
-684.0955
31
-1143.0
0
LINE
8
0
10
947.1707
20
5.25852
30
-1168.0
11
947.1707
21
5.25852
31
-1143.0
0
LINE
8
0
10
-3.8617516
20
16.525341
30
-1142.0
11
917.4194
21
-569.86115
31
-1142.0
0
LINE
8
0
10
917.4194
20
-569.86115
30
-1142.0
11
903.9956
21
-590.9515
31
-1142.0
0
LINE
8
0
10
903.9956
20
-590.9515
30
-1142.0
11
-17.28554
21
-4.5649853
31
-1142.0
0
LINE
8
0
10
-17.28554
20
-4.5649853
30
-1142.0
11
-3.8617516
21
16.525341
31
-1142.0
0
LINE
8
0
10
-3.8617516
20
16.525341
30
-1117.0
11
917.4194
21
-569.86115
31
-1117.0
0
LINE
8
0
10
917.4194
20
-569.86115
30
-1117.0
11
903.9956
21
-590.9515
31
-1117.0
0
LINE
8
0
10
903.9956
20
-590.9515
30
-1117.0
11
-17.28554
21
-4.5649853
31
-1117.0
0
LINE
8
0
10
-17.28554
20
-4.5649853
30
-1117.0
11
-3.8617516
21
16.525341
31
-1117.0
0
LINE
8
0
10
-3.8617516
20
16.525341
30
-1142.0
11
-3.8617516
21
16.525341
31
-1117.0
0
LINE
8
0
10
917.4194
20
-569.86115
30
-1142.0
11
917.4194
21
-569.86115
31
-1117.0
0
LINE
8
0
10
903.9956
20
-590.9515
30
-1142.0
11
903.9956
21
-590.9515
31
-1117.0
0
LINE
8
0
10
-17.28554
20
-4.5649853
30
-1142.0
11
-17.28554
21
-4.5649853
31
-1117.0
0
LINE
8
0
10
918.26776
20
12.261938
30
-1142.0
11
917.4194
21
-569.86115
31
-1142.0
0
LINE
8
0
10
917.4194
20
-569.86115
30
-1142.0
11
942.4194
21
-569.8976
31
-1142.0
0
LINE
8
0
10
942.4194
20
-569.8976
30
-1142.0
11
943.26776
21
12.2255
31
-1142.0
0
LINE
8
0
10
943.26776
20
12.2255
30
-1142.0
11
918.26776
21
12.261938
31
-1142.0
0
LINE
8
0
10
918.26776
20
12.261938
30
-1117.0
11
917.4194
21
-569.86115
31
-1117.0
0
LINE
8
0
10
917.4194
20
-569.86115
30
-1117.0
11
942.4194
21
-569.8976
31
-1117.0
0
LINE
8
0
10
942.4194
20
-569.8976
30
-1117.0
11
943.26776
21
12.2255
31
-1117.0
0
LINE
8
0
10
943.26776
20
12.2255
30
-1117.0
11
918.26776
21
12.261938
31
-1117.0
0
LINE
8
0
10
918.26776
20
12.261938
30
-1142.0
11
918.26776
21
12.261938
31
-1117.0
0
LINE
8
0
10
917.4194
20
-569.86115
30
-1142.0
11
917.4194
21
-569.86115
31
-1117.0
0
LINE
8
0
10
942.4194
20
-569.8976
30
-1142.0
11
942.4194
21
-569.8976
31
-1117.0
0
LINE
8
0
10
943.26776
20
12.2255
30
-1142.0
11
943.26776
21
12.2255
31
-1117.0
0
LINE
8
0
10
-0.084160805
20
16.970352
30
-1116.0
11
667.25806
21
-660.6721
31
-1116.0
0
LINE
8
0
10
667.25806
20
-660.6721
30
-1116.0
11
649.4455
21
-678.21387
31
-1116.0
0
LINE
8
0
10
649.4455
20
-678.21387
30
-1116.0
11
-17.896694
21
-0.57141685
31
-1116.0
0
LINE
8
0
10
-17.896694
20
-0.57141685
30
-1116.0
11
-0.084160805
21
16.970352
31
-1116.0
0
LINE
8
0
10
-0.084160805
20
16.970352
30
-1091.0
11
667.25806
21
-660.6721
31
-1091.0
0
LINE
8
0
10
667.25806
20
-660.6721
30
-1091.0
11
649.4455
21
-678.21387
31
-1091.0
0
LINE
8
0
10
649.4455
20
-678.21387
30
-1091.0
11
-17.896694
21
-0.57141685
31
-1091.0
0
LINE
8
0
10
-17.896694
20
-0.57141685
30
-1091.0
11
-0.084160805
21
16.970352
31
-1091.0
0
LINE
8
0
10
-0.084160805
20
16.970352
30
-1116.0
11
-0.084160805
21
16.970352
31
-1091.0
0
LINE
8
0
10
667.25806
20
-660.6721
30
-1116.0
11
667.25806
21
-660.6721
31
-1091.0
0
LINE
8
0
10
649.4455
20
-678.21387
30
-1116.0
11
649.4455
21
-678.21387
31
-1091.0
0
LINE
8
0
10
-17.896694
20
-0.57141685
30
-1116.0
11
-17.896694
21
-0.57141685
31
-1091.0
0
LINE
8
0
10
923.2839
20
15.585051
30
-1116.0
11
667.25806
21
-660.6721
31
-1116.0
0
LINE
8
0
10
667.25806
20
-660.6721
30
-1116.0
11
690.63855
21
-669.5238
31
-1116.0
0
LINE
8
0
10
690.63855
20
-669.5238
30
-1116.0
11
946.66437
21
6.7333612
31
-1116.0
0
LINE
8
0
10
946.66437
20
6.7333612
30
-1116.0
11
923.2839
21
15.585051
31
-1116.0
0
LINE
8
0
10
923.2839
20
15.585051
30
-1091.0
11
667.25806
21
-660.6721
31
-1091.0
0
LINE
8
0
10
667.25806
20
-660.6721
30
-1091.0
11
690.63855
21
-669.5238
31
-1091.0
0
LINE
8
0
10
690.63855
20
-669.5238
30
-1091.0
11
946.66437
21
6.7333612
31
-1091.0
0
LINE
8
0
10
946.66437
20
6.7333612
30
-1091.0
11
923.2839
21
15.585051
31
-1091.0
0
LINE
8
0
10
923.2839
20
15.585051
30
-1116.0
11
923.2839
21
15.585051
31
-1091.0
0
LINE
8
0
10
667.25806
20
-660.6721
30
-1116.0
11
667.25806
21
-660.6721
31
-1091.0
0
LINE
8
0
10
690.63855
20
-669.5238
30
-1116.0
11
690.63855
21
-669.5238
31
-1091.0
0
LINE
8
0
10
946.66437
20
6.7333612
30
-1116.0
11
946.66437
21
6.7333612
31
-1091.0
0
LINE
8
0
10
-2.7148209
20
16.752008
30
-1090.0
11
841.129
21
-606.5236
31
-1090.0
0
LINE
8
0
10
841.129
20
-606.5236
30
-1090.0
11
826.27594
21
-626.633
31
-1090.0
0
LINE
8
0
10
826.27594
20
-626.633
30
-1090.0
11
-17.567894
21
-3.3573494
31
-1090.0
0
LINE
8
0
10
-17.567894
20
-3.3573494
30
-1090.0
11
-2.7148209
21
16.752008
31
-1090.0
0
LINE
8
0
10
-2.7148209
20
16.752008
30
-1065.0
11
841.129
21
-606.5236
31
-1065.0
0
LINE
8
0
10
841.129
20
-606.5236
30
-1065.0
11
826.27594
21
-626.633
31
-1065.0
0
LINE
8
0
10
826.27594
20
-626.633
30
-1065.0
11
-17.567894
21
-3.3573494
31
-1065.0
0
LINE
8
0
10
-17.567894
20
-3.3573494
30
-1065.0
11
-2.7148209
21
16.752008
31
-1065.0
0
LINE
8
0
10
-2.7148209
20
16.752008
30
-1090.0
11
-2.7148209
21
16.752008
31
-1065.0
0
LINE
8
0
10
841.129
20
-606.5236
30
-1090.0
11
841.129
21
-606.5236
31
-1065.0
0
LINE
8
0
10
826.27594
20
-626.633
30
-1090.0
11
826.27594
21
-626.633
31
-1065.0
0
LINE
8
0
10
-17.567894
20
-3.3573494
30
-1090.0
11
-17.567894
21
-3.3573494
31
-1065.0
0
LINE
8
0
10
919.8665
20
13.6129465
30
-1090.0
11
841.129
21
-606.5236
31
-1090.0
0
LINE
8
0
10
841.129
20
-606.5236
30
-1090.0
11
865.92993
21
-609.67255
31
-1090.0
0
LINE
8
0
10
865.92993
20
-609.67255
30
-1090.0
11
944.6674
21
10.46402
31
-1090.0
0
LINE
8
0
10
944.6674
20
10.46402
30
-1090.0
11
919.8665
21
13.6129465
31
-1090.0
0
LINE
8
0
10
919.8665
20
13.6129465
30
-1065.0
11
841.129
21
-606.5236
31
-1065.0
0
LINE
8
0
10
841.129
20
-606.5236
30
-1065.0
11
865.92993
21
-609.67255
31
-1065.0
0
LINE
8
0
10
865.92993
20
-609.67255
30
-1065.0
11
944.6674
21
10.46402
31
-1065.0
0
LINE
8
0
10
944.6674
20
10.46402
30
-1065.0
11
919.8665
21
13.6129465
31
-1065.0
0
LINE
8
0
10
919.8665
20
13.6129465
30
-1090.0
11
919.8665
21
13.6129465
31
-1065.0
0
LINE
8
0
10
841.129
20
-606.5236
30
-1090.0
11
841.129
21
-606.5236
31
-1065.0
0
LINE
8
0
10
865.92993
20
-609.67255
30
-1090.0
11
865.92993
21
-609.67255
31
-1065.0
0
LINE
8
0
10
944.6674
20
10.46402
30
-1090.0
11
944.6674
21
10.46402
31
-1065.0
0
LINE
8
0
10
-1.4352622
20
16.909763
30
-1064.0
11
755.9677
21
-637.67847
31
-1064.0
0
LINE
8
0
10
755.9677
20
-637.67847
30
-1064.0
11
739.62054
21
-656.59326
31
-1064.0
0
LINE
8
0
10
739.62054
20
-656.59326
30
-1064.0
11
-17.782444
21
-2.0050354
31
-1064.0
0
LINE
8
0
10
-17.782444
20
-2.0050354
30
-1064.0
11
-1.4352622
21
16.909763
31
-1064.0
0
LINE
8
0
10
-1.4352622
20
16.909763
30
-1039.0
11
755.9677
21
-637.67847
31
-1039.0
0
LINE
8
0
10
755.9677
20
-637.67847
30
-1039.0
11
739.62054
21
-656.59326
31
-1039.0
0
LINE
8
0
10
739.62054
20
-656.59326
30
-1039.0
11
-17.782444
21
-2.0050354
31
-1039.0
0
LINE
8
0
10
-17.782444
20
-2.0050354
30
-1039.0
11
-1.4352622
21
16.909763
31
-1039.0
0
LINE
8
0
10
-1.4352622
20
16.909763
30
-1064.0
11
-1.4352622
21
16.909763
31
-1039.0
0
LINE
8
0
10
755.9677
20
-637.67847
30
-1064.0
11
755.9677
21
-637.67847
31
-1039.0
0
LINE
8
0
10
739.62054
20
-656.59326
30
-1064.0
11
739.62054
21
-656.59326
31
-1039.0
0
LINE
8
0
10
-17.782444
20
-2.0050354
30
-1064.0
11
-17.782444
21
-2.0050354
31
-1039.0
0
LINE
8
0
10
921.5828
20
14.736045
30
-1064.0
11
755.9677
21
-637.67847
31
-1064.0
0
LINE
8
0
10
755.9677
20
-637.67847
30
-1064.0
11
780.19916
21
-643.82965
31
-1064.0
0
LINE
8
0
10
780.19916
20
-643.82965
30
-1064.0
11
945.8143
21
8.58489
31
-1064.0
0
LINE
8
0
10
945.8143
20
8.58489
30
-1064.0
11
921.5828
21
14.736045
31
-1064.0
0
LINE
8
0
10
921.5828
20
14.736045
30
-1039.0
11
755.9677
21
-637.67847
31
-1039.0
0
LINE
8
0
10
755.9677
20
-637.67847
30
-1039.0
11
780.19916
21
-643.82965
31
-1039.0
0
LINE
8
0
10
780.19916
20
-643.82965
30
-1039.0
11
945.8143
21
8.58489
31
-1039.0
0
LINE
8
0
10
945.8143
20
8.58489
30
-1039.0
11
921.5828
21
14.736045
31
-1039.0
0
LINE
8
0
10
921.5828
20
14.736045
30
-1064.0
11
921.5828
21
14.736045
31
-1039.0
0
LINE
8
0
10
755.9677
20
-637.67847
30
-1064.0
11
755.9677
21
-637.67847
31
-1039.0
0
LINE
8
0
10
780.19916
20
-643.82965
30
-1064.0
11
780.19916
21
-643.82965
31
-1039.0
0
LINE
8
0
10
945.8143
20
8.58489
30
-1064.0
11
945.8143
21
8.58489
31
-1039.0
0
ENDSEC
0
EOF
